{"glyphs":{"0":{"ha":904,"x_min":56,"x_max":848,"o":"m 742 116 q 690 47 742 116 q 452 -22 637 -22 q 162 116 268 -22 q 56 491 56 253 q 162 864 56 728 q 452 1001 269 1001 q 742 865 636 1001 q 848 492 848 728 q 742 116 848 254 m 314 234 q 339 188 314 234 q 452 142 364 142 q 590 234 541 142 q 640 491 640 325 q 590 746 640 656 q 452 837 540 837 q 315 746 365 837 q 264 491 264 655 q 314 234 264 326 z "},"1":{"ha":667,"x_min":60,"x_max":517,"o":"m 314 0 l 314 791 l 310 791 l 60 618 l 60 803 l 313 979 l 517 979 l 517 0 l 314 0 z "},"2":{"ha":838,"x_min":58,"x_max":781,"o":"m 58 684 q 158 912 58 823 q 419 1000 259 1000 q 670 921 573 1000 q 767 718 767 841 q 754 632 767 673 q 712 550 741 591 q 654 476 683 509 q 578 397 625 444 l 339 167 l 339 163 l 781 163 l 781 0 l 69 0 l 69 138 l 438 493 q 540 613 513 568 q 568 709 568 659 q 524 803 568 765 q 412 841 479 841 q 294 797 341 841 q 248 684 248 752 l 248 681 l 58 681 l 58 684 z "},"3":{"ha":875,"x_min":54,"x_max":814,"o":"m 307 427 l 307 575 l 426 575 q 539 613 496 575 q 583 711 583 651 q 541 807 583 772 q 425 843 500 843 q 309 804 353 843 q 261 701 265 766 l 73 701 q 176 919 78 838 q 433 1000 275 1000 q 681 928 587 1000 q 776 739 776 857 q 720 589 776 650 q 574 511 665 527 l 574 507 q 749 434 684 497 q 814 271 814 372 q 706 59 814 140 q 429 -22 599 -22 q 162 61 264 -22 q 54 280 61 144 l 250 280 q 303 180 254 218 q 431 143 351 143 q 557 182 508 143 q 606 283 606 222 q 558 389 606 351 q 428 427 511 427 l 307 427 z "},"4":{"ha":900,"x_min":49,"x_max":858,"o":"m 536 0 l 536 174 l 49 174 l 49 349 q 441 979 168 576 l 730 979 l 730 338 l 858 338 l 858 174 l 730 174 l 730 0 l 536 0 m 229 338 l 229 332 l 540 332 l 540 833 l 536 833 q 354 558 422 668 q 229 338 286 448 z "},"5":{"ha":868,"x_min":78,"x_max":823,"o":"m 446 -22 q 185 63 288 -22 q 78 280 83 147 l 267 280 q 326 179 276 218 q 447 140 376 140 q 577 191 527 140 q 628 321 628 241 q 578 454 628 403 q 448 506 528 506 q 348 482 393 506 q 277 416 302 458 l 94 416 l 142 979 l 764 979 l 764 816 l 302 816 l 280 548 l 284 548 q 371 627 315 598 q 502 655 428 655 q 733 563 642 655 q 823 327 823 470 q 719 75 823 172 q 446 -22 614 -22 z "},"6":{"ha":893,"x_min":57,"x_max":840,"o":"m 464 -22 q 274 24 358 -22 q 139 158 191 71 q 57 481 57 283 q 167 862 57 724 q 467 1001 277 1001 q 707 926 607 1001 q 827 730 806 850 l 625 730 q 567 809 610 779 q 466 839 524 839 q 306 745 363 839 q 252 487 248 652 l 256 487 q 355 603 286 559 q 516 646 424 646 q 748 554 656 646 q 840 323 840 463 q 734 75 840 172 q 464 -22 628 -22 m 462 141 q 588 192 536 141 q 640 317 640 243 q 590 443 640 393 q 463 492 539 492 q 335 443 386 492 q 283 319 283 393 q 335 193 283 245 q 462 141 387 141 z "},"7":{"ha":795,"x_min":43,"x_max":743,"o":"m 120 0 l 541 812 l 541 816 l 43 816 l 43 979 l 743 979 l 743 814 l 335 0 l 120 0 z "},"8":{"ha":906,"x_min":56,"x_max":850,"o":"m 453 -22 q 166 58 275 -22 q 56 265 56 138 q 120 430 56 361 q 286 516 184 499 l 286 520 q 148 601 201 540 q 96 742 96 661 q 196 927 96 854 q 453 1000 296 1000 q 710 927 610 1000 q 810 741 810 854 q 758 601 810 662 q 620 520 705 541 l 620 516 q 786 430 723 498 q 850 264 850 361 q 740 58 850 137 q 453 -22 629 -22 m 321 171 q 347 149 321 171 q 453 127 372 127 q 585 171 534 127 q 635 280 635 214 q 585 390 635 347 q 453 433 534 433 q 321 390 372 433 q 270 280 270 347 q 321 171 270 214 m 342 620 q 363 601 342 620 q 453 582 385 582 q 564 620 521 582 q 608 717 608 659 q 564 814 608 776 q 453 852 521 852 q 342 814 385 852 q 298 717 298 776 q 342 620 298 658 z "},"9":{"ha":896,"x_min":54,"x_max":839,"o":"m 428 -22 q 187 54 288 -22 q 66 250 87 130 l 269 250 q 328 170 283 200 q 431 140 372 140 q 590 233 534 140 q 643 493 647 326 l 641 493 l 640 493 l 639 493 q 543 376 612 420 q 378 333 473 333 q 146 425 239 333 q 54 656 54 517 q 160 904 54 806 q 431 1001 267 1001 q 622 955 537 1001 q 757 822 706 909 q 839 498 839 696 q 730 116 839 254 q 428 -22 621 -22 m 304 537 q 330 512 304 537 q 432 487 355 487 q 560 537 509 487 q 611 661 611 587 q 559 786 611 735 q 433 838 508 838 q 306 787 358 838 q 254 662 254 736 q 304 537 254 587 z "}," ":{"ha":298,"x_min":0,"x_max":0,"o":""},"!":{"ha":439,"x_min":109,"x_max":330,"o":"m 118 979 l 321 979 l 305 322 l 134 322 l 118 979 m 298 14 q 282 -2 298 14 q 220 -17 266 -17 q 141 14 174 -17 q 109 90 109 45 q 141 165 109 134 q 220 196 174 196 q 298 165 266 196 q 330 90 330 134 q 298 14 330 45 z "},"\"":{"ha":630,"x_min":73,"x_max":557,"o":"m 243 589 l 73 589 l 73 979 l 243 979 l 243 589 m 557 589 l 387 589 l 387 979 l 557 979 l 557 589 z "},"#":{"ha":862,"x_min":16,"x_max":857,"o":"m 829 584 l 680 584 l 644 408 l 787 408 l 760 261 l 616 261 l 564 0 l 413 0 l 465 261 l 307 261 l 254 0 l 104 0 l 156 261 l 16 261 l 44 408 l 185 408 l 220 584 l 85 584 l 113 729 l 250 729 l 300 979 l 450 979 l 400 729 l 559 729 l 609 979 l 760 979 l 709 729 l 857 729 l 829 584 m 363 596 l 323 395 l 500 395 l 542 596 l 363 596 z "},"$":{"ha":899,"x_min":64,"x_max":836,"o":"m 503 -93 l 407 -93 l 407 -6 q 156 79 247 3 q 64 279 64 155 l 258 279 q 302 191 261 227 q 407 148 342 155 l 407 412 l 335 429 q 148 527 212 458 q 84 703 84 597 q 169 904 84 827 q 407 992 254 980 l 407 1085 l 503 1085 l 503 991 q 730 902 645 979 q 817 707 815 825 l 629 707 q 592 791 627 755 q 503 835 557 827 l 503 582 l 575 568 q 836 292 836 511 q 749 86 836 163 q 503 -5 663 8 l 503 -93 m 644 271 q 609 351 644 320 q 503 395 574 381 l 503 147 q 606 184 569 151 q 644 271 644 216 m 280 720 q 407 602 280 629 l 407 836 q 316 800 351 832 q 280 720 280 768 z "},"%":{"ha":1099,"x_min":31,"x_max":1069,"o":"m 1069 240 q 1008 55 1069 123 q 846 -14 948 -14 q 683 55 743 -14 q 623 240 623 123 q 683 424 623 356 q 846 492 743 492 q 1009 424 949 492 q 1069 240 1069 356 m 793 141 q 803 123 793 141 q 846 104 812 104 q 898 141 879 104 q 917 240 917 177 q 898 338 917 303 q 846 373 880 373 q 793 337 812 373 q 774 239 774 302 q 793 141 774 177 m 477 754 q 416 569 477 637 q 254 500 356 500 q 91 569 151 500 q 31 754 31 637 q 91 938 31 870 q 254 1006 151 1006 q 417 938 357 1006 q 477 754 477 870 m 201 655 q 211 637 201 655 q 254 618 220 618 q 306 655 287 618 q 325 754 325 691 q 306 852 325 817 q 254 887 288 887 q 201 851 220 887 q 182 753 182 816 q 201 655 182 691 m 274 0 l 100 0 l 814 979 l 988 979 l 274 0 z "},"&":{"ha":975,"x_min":46,"x_max":987,"o":"m 766 0 l 690 81 q 556 8 636 35 q 387 -18 476 -18 q 139 57 232 -18 q 46 256 46 132 q 90 402 46 340 q 227 517 134 465 q 242 525 231 519 q 261 535 253 530 q 271 541 270 540 q 177 660 205 609 q 150 764 150 711 q 229 927 150 863 q 427 991 308 991 q 624 929 547 991 q 700 768 700 866 q 652 631 700 692 q 502 513 604 569 l 688 313 q 723 498 723 375 l 723 549 l 888 549 l 888 486 q 805 191 888 305 l 987 0 l 766 0 m 335 422 q 255 352 279 387 q 231 272 231 317 q 280 166 231 206 q 408 126 329 126 q 509 144 460 126 q 587 194 558 163 l 362 437 q 335 422 354 433 m 410 606 q 506 675 477 640 q 535 754 535 710 q 505 830 535 801 q 428 860 475 860 q 350 830 380 860 q 319 754 319 800 q 340 687 319 720 q 410 606 360 654 z "},"'":{"ha":316,"x_min":73,"x_max":243,"o":"m 243 589 l 73 589 l 73 979 l 243 979 l 243 589 z "},"(":{"ha":481,"x_min":90,"x_max":463,"o":"m 460 -188 l 273 -188 q 142 64 193 -87 q 90 407 90 216 q 104 591 90 507 q 144 744 117 675 q 203 867 172 813 q 280 979 235 922 l 463 979 q 345 747 396 902 q 294 408 294 593 q 338 89 294 229 q 460 -188 382 -52 z "},")":{"ha":481,"x_min":20,"x_max":392,"o":"m 21 -188 q 143 89 99 -52 q 187 408 187 229 q 136 747 187 593 q 20 979 85 901 l 201 979 q 278 867 246 922 q 338 744 311 813 q 378 591 365 675 q 392 407 392 507 q 340 64 392 216 q 208 -188 288 -88 l 21 -188 z "},"*":{"ha":674,"x_min":72,"x_max":602,"o":"m 535 543 l 378 664 l 405 468 l 269 468 l 296 664 l 139 543 l 72 660 l 256 735 l 72 810 l 139 928 l 297 804 l 269 1003 l 405 1003 l 378 804 l 535 928 l 602 810 l 419 735 l 602 660 l 535 543 z "},"+":{"ha":899,"x_min":84,"x_max":815,"o":"m 538 306 l 538 9 l 361 9 l 361 306 l 84 306 l 84 479 l 361 479 l 361 772 l 538 772 l 538 479 l 815 479 l 815 306 l 538 306 z "},",":{"ha":392,"x_min":60,"x_max":302,"o":"m 210 -184 l 60 -184 l 117 183 l 302 183 l 210 -184 z "},"-":{"ha":614,"x_min":84,"x_max":530,"o":"m 530 306 l 84 306 l 84 479 l 530 479 l 530 306 z "},".":{"ha":386,"x_min":84,"x_max":302,"o":"m 271 24 q 255 8 271 24 q 193 -8 239 -8 q 116 24 148 -8 q 84 101 84 56 q 116 178 84 146 q 193 210 148 210 q 271 178 239 210 q 302 101 302 146 q 271 24 302 56 z "},"/":{"ha":466,"x_min":0,"x_max":466,"o":"m 181 -199 l 0 -199 l 281 979 l 466 979 l 181 -199 z "},":":{"ha":386,"x_min":84,"x_max":302,"o":"m 271 24 q 255 8 271 24 q 193 -8 239 -8 q 116 24 148 -8 q 84 101 84 56 q 116 178 84 146 q 193 210 148 210 q 271 178 239 210 q 302 101 302 146 q 271 24 302 56 m 271 509 q 255 493 271 509 q 193 477 239 477 q 116 509 148 477 q 84 586 84 541 q 116 664 84 632 q 193 695 148 695 q 271 664 239 695 q 302 586 302 632 q 271 509 302 541 z "},";":{"ha":386,"x_min":37,"x_max":302,"o":"m 271 509 q 255 493 271 509 q 193 477 239 477 q 116 509 148 477 q 84 586 84 541 q 116 664 84 632 q 193 695 148 695 q 271 664 239 695 q 302 586 302 632 q 271 509 302 541 m 187 -184 l 37 -184 l 93 183 l 280 183 l 187 -184 z "},"<":{"ha":899,"x_min":127,"x_max":773,"o":"m 773 614 l 328 398 l 328 391 l 773 182 l 773 -16 l 127 316 l 127 469 l 773 812 l 773 614 z "},"=":{"ha":899,"x_min":94,"x_max":805,"o":"m 805 149 l 94 149 l 94 319 l 805 319 l 805 149 m 805 466 l 94 466 l 94 636 l 805 636 l 805 466 z "},">":{"ha":899,"x_min":127,"x_max":773,"o":"m 127 615 l 127 812 l 773 469 l 773 316 l 127 -15 l 127 182 l 572 391 l 572 398 l 127 615 z "},"?":{"ha":741,"x_min":37,"x_max":688,"o":"m 37 704 q 126 910 39 832 q 366 987 213 987 q 600 915 511 987 q 688 725 688 842 q 652 594 688 650 q 543 495 616 538 q 452 425 475 456 q 428 343 428 393 l 428 307 l 248 307 l 247 347 q 269 476 240 425 q 369 569 298 527 q 459 640 435 608 q 483 719 483 671 q 447 799 483 768 q 354 830 412 830 q 260 796 296 830 q 220 704 224 762 l 37 704 m 419 14 q 403 -2 419 14 q 340 -17 387 -17 q 262 14 294 -17 q 230 90 230 45 q 262 165 230 134 q 340 196 294 196 q 419 165 387 196 q 452 90 452 134 q 419 14 452 45 z "},"@":{"ha":1227,"x_min":54,"x_max":1175,"o":"m 606 570 q 522 529 552 570 q 491 412 491 487 q 521 296 491 338 q 605 254 551 254 q 692 297 660 254 q 724 412 724 339 q 692 528 724 486 q 606 570 660 570 m 628 983 q 912 920 787 983 q 1106 742 1036 857 q 1175 479 1175 627 q 1104 223 1175 318 q 909 127 1032 127 q 801 156 845 127 q 745 234 756 185 l 736 234 q 572 130 693 130 q 402 209 467 130 q 337 416 337 288 q 400 617 337 540 q 566 694 464 694 q 664 668 621 694 q 726 597 707 642 l 736 597 l 736 679 l 873 679 l 873 316 q 890 260 873 280 q 938 239 907 239 q 1020 301 989 239 q 1050 469 1050 362 q 933 764 1050 653 q 623 875 817 875 q 303 746 427 875 q 179 414 179 618 q 308 82 179 203 q 649 -39 436 -39 q 834 -15 770 -39 l 834 -123 q 639 -149 749 -149 q 403 -109 511 -149 q 218 2 295 -70 q 97 181 140 75 q 54 417 54 288 q 127 712 54 583 q 330 912 199 841 q 628 983 460 983 z "},"A":{"ha":958,"x_min":19,"x_max":940,"o":"m 722 0 l 648 237 l 304 237 l 229 0 l 19 0 l 359 979 l 600 979 l 940 0 l 722 0 m 473 791 l 348 391 l 604 391 l 478 791 l 473 791 z "},"B":{"ha":895,"x_min":81,"x_max":859,"o":"m 521 0 l 81 0 l 81 979 l 513 979 q 732 913 651 979 q 812 734 812 847 q 760 594 812 654 q 629 522 707 534 l 629 517 q 794 443 729 509 q 859 280 859 376 q 768 75 859 151 q 521 0 677 0 m 286 826 l 286 572 l 439 572 q 566 606 522 572 q 611 703 611 640 q 572 794 611 762 q 460 826 532 826 l 286 826 m 286 153 l 469 153 q 604 190 557 153 q 650 296 650 227 q 603 401 650 365 q 464 437 555 437 l 286 437 l 286 153 z "},"C":{"ha":989,"x_min":51,"x_max":945,"o":"m 514 -17 q 175 118 300 -17 q 51 490 51 254 q 176 860 51 725 q 514 996 300 996 q 726 949 631 996 q 879 819 821 903 q 944 627 937 735 l 745 627 q 667 772 730 718 q 514 826 604 826 q 329 735 398 826 q 260 490 260 644 q 328 243 260 334 q 515 153 397 153 q 667 203 606 153 q 745 340 729 253 l 945 340 q 811 80 928 176 q 514 -17 694 -17 z "},"D":{"ha":975,"x_min":81,"x_max":925,"o":"m 81 979 l 458 979 q 802 852 680 979 q 925 493 925 725 q 802 130 925 260 q 458 0 679 0 l 81 0 l 81 979 m 286 810 l 286 170 l 434 170 q 644 252 572 170 q 716 492 716 334 q 643 728 716 646 q 434 810 570 810 l 286 810 z "},"E":{"ha":796,"x_min":81,"x_max":730,"o":"m 730 170 l 730 0 l 81 0 l 81 979 l 730 979 l 730 810 l 286 810 l 286 574 l 705 574 l 705 416 l 286 416 l 286 170 l 730 170 z "},"F":{"ha":762,"x_min":81,"x_max":722,"o":"m 286 0 l 81 0 l 81 979 l 722 979 l 722 810 l 286 810 l 286 547 l 684 547 l 684 385 l 286 385 l 286 0 z "},"G":{"ha":1010,"x_min":51,"x_max":956,"o":"m 956 411 q 841 97 956 211 q 522 -17 726 -17 q 177 119 302 -17 q 51 492 51 254 q 176 861 51 727 q 517 996 301 996 q 807 903 688 996 q 947 663 926 811 l 742 663 q 660 783 720 739 q 518 826 601 826 q 328 739 397 826 q 260 495 260 651 q 331 245 260 336 q 526 153 403 153 q 689 210 626 153 q 756 357 753 266 l 757 372 l 544 372 l 544 522 l 956 522 l 956 411 z "},"H":{"ha":1013,"x_min":81,"x_max":932,"o":"m 932 0 l 727 0 l 727 412 l 286 412 l 286 0 l 81 0 l 81 979 l 286 979 l 286 581 l 727 581 l 727 979 l 932 979 l 932 0 z "},"I":{"ha":368,"x_min":81,"x_max":286,"o":"m 286 0 l 81 0 l 81 979 l 286 979 l 286 0 z "},"J":{"ha":775,"x_min":21,"x_max":686,"o":"m 21 288 l 220 288 q 257 193 221 229 q 350 157 292 157 q 448 195 414 157 q 481 308 481 234 l 481 979 l 686 979 l 686 307 q 598 65 686 151 q 352 -20 510 -20 q 112 64 202 -20 q 21 288 21 148 z "},"K":{"ha":918,"x_min":81,"x_max":913,"o":"m 286 0 l 81 0 l 81 979 l 286 979 l 286 532 l 292 532 l 660 979 l 888 979 l 526 545 l 913 0 l 668 0 l 378 409 l 286 299 l 286 0 z "},"L":{"ha":754,"x_min":81,"x_max":714,"o":"m 714 170 l 714 0 l 81 0 l 81 979 l 286 979 l 286 170 l 714 170 z "},"M":{"ha":1199,"x_min":81,"x_max":1118,"o":"m 1118 979 l 1118 0 l 935 0 l 935 661 l 930 661 l 664 9 l 535 9 l 269 661 l 264 661 l 264 0 l 81 0 l 81 979 l 319 979 l 597 285 l 602 285 l 880 979 l 1118 979 z "},"N":{"ha":992,"x_min":81,"x_max":911,"o":"m 277 0 l 81 0 l 81 979 l 252 979 l 709 341 l 715 341 l 715 979 l 911 979 l 911 0 l 741 0 l 283 641 l 277 641 l 277 0 z "},"O":{"ha":1045,"x_min":51,"x_max":995,"o":"m 178 859 q 242 927 178 859 q 523 996 305 996 q 868 859 741 996 q 995 489 995 723 q 867 119 995 256 q 523 -17 740 -17 q 178 119 305 -17 q 51 489 51 256 q 178 859 51 723 m 714 734 q 679 779 714 734 q 523 825 643 825 q 331 734 403 825 q 260 489 260 643 q 331 245 260 336 q 523 155 402 155 q 714 245 643 155 q 785 489 785 336 q 714 734 785 643 z "},"P":{"ha":868,"x_min":81,"x_max":829,"o":"m 81 979 l 490 979 q 735 886 641 979 q 829 644 829 794 q 732 401 829 494 q 479 309 635 309 l 286 309 l 286 0 l 81 0 l 81 979 m 286 817 l 286 469 l 435 469 q 572 514 523 469 q 621 643 621 559 q 572 771 621 726 q 435 817 524 817 l 286 817 z "},"Q":{"ha":1045,"x_min":51,"x_max":994,"o":"m 962 -92 l 764 -92 l 694 10 q 523 -17 616 -17 q 178 119 304 -17 q 51 489 51 254 q 178 859 51 722 q 523 996 305 996 q 867 859 740 996 q 994 489 994 722 q 954 259 994 360 q 838 95 914 157 l 962 -92 m 523 153 q 593 162 559 153 l 486 322 l 671 322 l 713 264 q 785 489 785 347 q 714 735 785 643 q 523 827 643 827 q 331 735 402 827 q 260 489 260 643 q 331 244 260 335 q 523 153 402 153 z "},"R":{"ha":892,"x_min":81,"x_max":868,"o":"m 286 819 l 286 507 l 466 507 q 586 548 543 507 q 629 663 629 589 q 585 776 629 734 q 464 819 540 819 l 286 819 m 286 358 l 286 0 l 81 0 l 81 979 l 486 979 q 746 896 653 979 q 840 667 840 812 q 792 496 840 571 q 662 389 745 421 l 868 0 l 636 0 l 454 358 l 286 358 z "},"S":{"ha":877,"x_min":45,"x_max":833,"o":"m 45 279 l 242 279 q 306 182 249 219 q 444 145 362 145 q 577 180 526 145 q 628 269 628 215 q 590 346 628 317 q 463 395 552 375 l 336 422 q 66 696 66 480 q 171 913 66 830 q 441 996 276 996 q 711 915 610 996 q 815 701 812 835 l 623 701 q 569 799 618 763 q 441 834 519 834 q 319 801 366 834 q 273 713 273 768 q 310 641 273 669 q 433 593 348 613 l 551 568 q 766 471 699 537 q 833 293 833 405 q 726 67 833 151 q 436 -17 618 -17 q 154 62 259 -17 q 45 279 50 141 z "},"T":{"ha":842,"x_min":33,"x_max":810,"o":"m 524 0 l 319 0 l 319 810 l 33 810 l 33 979 l 810 979 l 810 810 l 524 810 l 524 0 z "},"U":{"ha":983,"x_min":81,"x_max":901,"o":"m 286 979 l 286 366 q 340 215 286 271 q 492 159 394 159 q 643 215 589 159 q 696 366 696 271 l 696 979 l 901 979 l 901 346 q 790 83 901 183 q 492 -17 678 -17 q 193 83 304 -17 q 81 346 81 183 l 81 979 l 286 979 z "},"V":{"ha":942,"x_min":19,"x_max":924,"o":"m 595 0 l 348 0 l 19 979 l 248 979 l 472 211 l 477 211 l 701 979 l 924 979 l 595 0 z "},"W":{"ha":1341,"x_min":29,"x_max":1312,"o":"m 667 669 l 481 0 l 288 0 l 29 979 l 241 979 l 395 270 l 401 270 l 584 979 l 757 979 l 940 270 l 945 270 l 1100 979 l 1312 979 l 1053 0 l 859 0 l 673 669 l 667 669 z "},"X":{"ha":952,"x_min":29,"x_max":923,"o":"m 29 0 l 340 490 l 340 496 l 31 979 l 272 979 l 479 626 l 485 626 l 694 979 l 923 979 l 603 492 l 603 487 l 919 0 l 686 0 l 471 342 l 466 342 l 250 0 l 29 0 z "},"Y":{"ha":924,"x_min":19,"x_max":905,"o":"m 564 0 l 359 0 l 359 366 l 19 979 l 242 979 l 461 561 l 466 561 l 686 979 l 905 979 l 564 366 l 564 0 z "},"Z":{"ha":876,"x_min":60,"x_max":816,"o":"m 60 0 l 60 134 l 557 804 l 557 810 l 72 810 l 72 979 l 802 979 l 802 846 l 307 174 l 307 170 l 816 170 l 816 0 l 60 0 z "},"[":{"ha":512,"x_min":100,"x_max":498,"o":"m 100 979 l 490 979 l 490 833 l 290 833 l 290 -18 l 498 -18 l 498 -163 l 100 -163 l 100 979 z "},"\\":{"ha":466,"x_min":0,"x_max":466,"o":"m 286 -199 l 0 979 l 184 979 l 466 -199 l 286 -199 z "},"]":{"ha":512,"x_min":14,"x_max":412,"o":"m 412 979 l 412 -163 l 14 -163 l 14 -18 l 222 -18 l 222 833 l 23 833 l 23 979 l 412 979 z "},"^":{"ha":663,"x_min":24,"x_max":640,"o":"m 326 814 l 197 558 l 24 558 l 245 972 l 420 972 l 640 558 l 462 558 l 337 814 l 326 814 z "},"_":{"ha":581,"x_min":-31,"x_max":612,"o":"m 612 -220 l -31 -220 l -31 -73 l 612 -73 l 612 -220 z "},"`":{"ha":685,"x_min":174,"x_max":509,"o":"m 509 857 l 353 857 l 174 1067 l 359 1067 l 509 857 z "},"a":{"ha":778,"x_min":37,"x_max":712,"o":"m 353 136 q 470 175 422 136 q 517 274 517 214 l 517 329 l 361 318 q 267 290 299 314 q 234 225 234 267 q 266 160 234 184 q 353 136 298 136 m 288 -9 q 108 54 179 -9 q 37 215 37 116 q 112 373 37 316 q 331 439 187 430 l 517 450 l 517 500 q 483 582 517 553 q 387 611 448 611 q 298 586 334 611 q 255 519 262 560 l 74 519 q 166 693 78 626 q 395 760 255 760 q 625 692 538 760 q 712 512 712 624 l 712 0 l 521 0 l 521 115 l 517 115 q 424 24 487 58 q 288 -9 361 -9 z "},"b":{"ha":849,"x_min":73,"x_max":810,"o":"m 506 -9 q 363 27 425 -9 q 271 127 302 62 l 267 127 l 267 0 l 73 0 l 73 1025 l 271 1025 l 271 619 l 275 619 q 366 720 306 684 q 505 755 426 755 q 728 653 647 755 q 810 374 810 551 q 728 94 810 196 q 506 -9 647 -9 m 439 595 q 316 534 363 595 q 269 373 270 473 q 316 212 270 273 q 439 151 363 151 q 561 212 515 151 q 607 374 607 272 q 561 535 607 475 q 439 595 515 595 z "},"c":{"ha":774,"x_min":39,"x_max":743,"o":"m 742 471 l 557 471 q 509 567 549 531 q 406 604 469 604 q 285 542 330 604 q 240 374 240 481 q 285 204 240 265 q 407 144 330 144 q 509 177 470 144 q 558 271 549 210 l 743 271 q 643 64 734 141 q 405 -13 551 -13 q 138 91 237 -13 q 39 374 39 195 q 138 655 39 551 q 404 760 237 760 q 643 679 551 760 q 742 471 734 598 z "},"d":{"ha":847,"x_min":39,"x_max":777,"o":"m 345 -9 q 122 95 205 -9 q 39 374 39 198 q 123 652 39 549 q 346 755 206 755 q 486 719 426 755 q 574 619 546 682 l 578 619 l 578 1025 l 777 1025 l 777 0 l 581 0 l 581 127 l 578 127 q 488 28 550 65 q 345 -9 427 -9 m 411 595 q 288 535 334 595 q 242 374 242 475 q 288 211 242 271 q 411 151 334 151 q 534 212 488 151 q 580 373 580 272 q 534 535 580 474 q 411 595 488 595 z "},"e":{"ha":789,"x_min":39,"x_max":750,"o":"m 400 612 q 287 567 332 612 q 237 450 242 522 l 559 450 q 513 568 556 524 q 400 612 469 612 m 562 228 l 744 228 q 635 53 728 119 q 406 -13 542 -13 q 137 90 235 -13 q 39 370 39 192 q 137 654 39 549 q 398 760 234 760 q 655 659 559 760 q 750 389 750 559 l 750 328 l 235 328 l 235 315 q 283 185 235 235 q 409 135 331 135 q 506 160 465 135 q 562 228 547 184 z "},"f":{"ha":498,"x_min":19,"x_max":454,"o":"m 120 0 l 120 597 l 19 597 l 19 747 l 120 747 l 120 813 q 176 968 120 921 q 361 1016 232 1016 q 453 1009 408 1016 l 453 871 q 399 876 428 876 q 334 859 354 876 q 314 802 315 841 l 314 747 l 454 747 l 454 597 l 318 597 l 318 0 l 120 0 z "},"g":{"ha":844,"x_min":39,"x_max":777,"o":"m 287 216 q 310 187 287 216 q 410 158 332 158 q 533 216 487 158 q 579 374 579 275 q 533 535 579 475 q 410 595 487 595 q 288 536 333 595 q 242 375 242 476 q 287 216 242 274 m 408 -273 q 165 -213 260 -273 q 64 -53 71 -153 l 259 -53 q 311 -112 269 -90 q 412 -134 353 -134 q 533 -97 488 -134 q 578 2 578 -60 l 578 136 l 574 136 q 486 40 547 75 q 343 5 424 5 q 122 105 205 5 q 39 376 39 205 q 122 653 39 551 q 347 755 205 755 q 487 719 426 755 q 578 619 548 682 l 581 619 l 581 747 l 777 747 l 777 17 q 676 -195 777 -116 q 408 -273 576 -273 z "},"h":{"ha":846,"x_min":73,"x_max":782,"o":"m 73 0 l 73 1025 l 267 1025 l 267 613 l 271 613 q 365 721 302 684 q 513 758 427 758 q 709 682 637 758 q 782 477 782 607 l 782 0 l 584 0 l 584 436 q 544 551 584 509 q 433 593 503 593 q 315 546 360 593 q 271 424 271 499 l 271 0 l 73 0 z "},"i":{"ha":339,"x_min":63,"x_max":277,"o":"m 71 0 l 71 747 l 269 747 l 269 0 l 71 0 m 170 828 q 94 858 125 828 q 63 932 63 888 q 94 1005 63 976 q 170 1035 125 1035 q 245 1005 214 1035 q 277 932 277 976 q 245 858 277 888 q 170 828 214 828 z "},"j":{"ha":339,"x_min":-50,"x_max":277,"o":"m 269 747 l 269 -25 q 201 -197 269 -139 q 3 -255 134 -255 q -50 -253 -37 -255 l -50 -106 q -24 -107 -45 -107 q 49 -87 27 -107 q 71 -20 71 -67 l 71 747 l 269 747 m 170 828 q 94 858 125 828 q 63 932 63 888 q 94 1005 63 976 q 170 1035 125 1035 q 245 1005 214 1035 q 277 932 277 976 q 245 858 277 888 q 170 828 214 828 z "},"k":{"ha":764,"x_min":73,"x_max":770,"o":"m 273 445 l 532 747 l 757 747 l 469 426 l 770 0 l 543 0 l 324 307 l 271 249 l 271 0 l 73 0 l 73 1025 l 271 1025 l 271 445 l 273 445 z "},"l":{"ha":342,"x_min":73,"x_max":271,"o":"m 73 0 l 73 1025 l 271 1025 l 271 0 l 73 0 z "},"m":{"ha":1228,"x_min":67,"x_max":1164,"o":"m 67 0 l 67 747 l 258 747 l 258 611 l 262 611 q 343 718 286 679 q 475 758 401 758 q 610 718 556 758 q 684 605 665 678 l 688 605 q 776 716 713 675 q 920 758 838 758 q 1097 689 1029 758 q 1164 507 1164 620 l 1164 0 l 966 0 l 966 458 q 934 558 966 524 q 842 593 902 593 q 747 554 783 593 q 711 452 711 515 l 711 0 l 520 0 l 520 465 q 488 559 520 525 q 397 593 455 593 q 302 553 339 593 q 265 449 265 513 l 265 0 l 67 0 z "},"n":{"ha":832,"x_min":67,"x_max":768,"o":"m 67 0 l 67 747 l 258 747 l 258 613 l 262 613 q 503 758 328 758 q 697 684 627 758 q 768 479 768 610 l 768 0 l 570 0 l 570 437 q 532 552 570 512 q 424 593 494 593 q 309 547 353 593 q 265 426 265 500 l 265 0 l 67 0 z "},"o":{"ha":814,"x_min":39,"x_max":776,"o":"m 408 -13 q 138 90 237 -13 q 39 374 39 193 q 139 656 39 552 q 408 760 239 760 q 676 656 577 760 q 776 374 776 553 q 677 90 776 193 q 408 -13 578 -13 m 284 201 q 307 170 284 201 q 408 140 329 140 q 530 201 486 140 q 574 374 574 262 q 530 546 574 484 q 408 608 486 608 q 284 546 329 608 q 240 374 240 484 q 284 201 240 262 z "},"p":{"ha":844,"x_min":67,"x_max":805,"o":"m 498 755 q 723 653 641 755 q 805 374 805 551 q 723 94 805 196 q 501 -9 642 -9 q 360 26 420 -9 q 269 125 300 62 l 265 125 l 265 -235 l 67 -235 l 67 747 l 262 747 l 262 619 l 267 619 q 358 719 296 682 q 498 755 420 755 m 433 151 q 556 212 510 151 q 602 374 602 272 q 556 535 602 474 q 433 595 509 595 q 311 534 357 595 q 264 373 264 473 q 311 212 264 273 q 433 151 357 151 z "},"q":{"ha":844,"x_min":39,"x_max":777,"o":"m 347 755 q 488 719 427 755 q 578 619 549 682 l 581 619 l 581 747 l 777 747 l 777 -235 l 578 -235 l 578 125 l 574 125 q 485 28 547 64 q 343 -9 423 -9 q 121 95 203 -9 q 39 374 39 198 q 122 653 39 550 q 347 755 205 755 m 287 211 q 310 181 287 211 q 410 151 332 151 q 533 212 487 151 q 579 373 579 272 q 533 535 579 474 q 410 595 486 595 q 288 535 333 595 q 242 374 242 475 q 287 211 242 271 z "},"r":{"ha":515,"x_min":67,"x_max":496,"o":"m 67 0 l 67 747 l 258 747 l 258 613 l 262 613 q 328 719 281 682 q 440 755 374 755 q 496 748 473 755 l 496 572 q 425 585 469 585 q 307 541 349 585 q 265 418 265 496 l 265 0 l 67 0 z "},"s":{"ha":731,"x_min":36,"x_max":695,"o":"m 54 527 q 140 696 54 632 q 367 760 225 760 q 590 695 505 760 q 677 523 675 630 l 494 523 q 456 593 490 567 q 364 619 421 619 q 278 597 311 619 q 245 539 245 575 q 345 461 245 484 l 486 431 q 647 358 598 405 q 695 228 695 311 q 604 53 695 119 q 366 -13 513 -13 q 132 52 220 -13 q 36 226 43 117 l 229 226 q 273 153 237 178 q 372 127 310 127 q 465 149 431 127 q 498 207 498 170 q 477 253 498 236 q 405 282 456 270 l 267 313 q 54 527 54 361 z "},"t":{"ha":503,"x_min":19,"x_max":456,"o":"m 120 913 l 318 913 l 318 747 l 456 747 l 456 597 l 318 597 l 318 234 q 407 149 318 149 q 456 152 436 149 l 456 5 q 361 -3 416 -3 q 176 45 231 -3 q 120 201 120 92 l 120 597 l 19 597 l 19 747 l 120 747 l 120 913 z "},"u":{"ha":832,"x_min":64,"x_max":765,"o":"m 765 747 l 765 0 l 574 0 l 574 135 l 570 135 q 480 27 541 64 q 335 -11 420 -11 q 138 64 212 -11 q 64 268 64 139 l 64 747 l 262 747 l 262 309 q 301 194 262 235 q 410 154 340 154 q 524 200 480 154 q 567 321 567 246 l 567 747 l 765 747 z "},"v":{"ha":750,"x_min":5,"x_max":745,"o":"m 745 747 l 487 0 l 264 0 l 5 747 l 217 747 l 376 177 l 380 177 l 538 747 l 745 747 z "},"w":{"ha":1122,"x_min":14,"x_max":1108,"o":"m 1108 747 l 909 0 l 699 0 l 562 532 l 557 532 l 421 0 l 213 0 l 14 747 l 213 747 l 328 189 l 332 189 l 467 747 l 657 747 l 793 189 l 797 189 l 913 747 l 1108 747 z "},"x":{"ha":749,"x_min":16,"x_max":733,"o":"m 372 261 l 368 261 l 224 0 l 16 0 l 252 372 l 18 747 l 241 747 l 378 492 l 382 492 l 518 747 l 733 747 l 498 377 l 732 0 l 515 0 l 372 261 z "},"y":{"ha":770,"x_min":9,"x_max":762,"o":"m 162 -273 q 87 -270 102 -273 l 87 -117 q 132 -119 97 -119 q 220 -98 188 -119 q 264 -33 252 -77 l 271 -5 l 9 747 l 226 747 l 387 161 l 391 161 l 553 747 l 762 747 l 504 -15 q 379 -215 456 -157 q 162 -273 302 -273 z "},"z":{"ha":718,"x_min":53,"x_max":666,"o":"m 53 0 l 53 114 l 428 591 l 428 595 l 58 595 l 58 747 l 657 747 l 657 621 l 304 156 l 304 152 l 666 152 l 666 0 l 53 0 z "},"{":{"ha":568,"x_min":83,"x_max":561,"o":"m 245 404 q 385 235 385 391 l 385 55 q 417 -55 385 -25 q 531 -85 448 -85 l 561 -85 l 561 -229 l 490 -229 q 266 -168 336 -229 q 197 30 197 -107 l 197 182 q 172 292 197 262 q 83 323 147 323 l 83 505 q 172 536 147 505 q 197 647 197 567 l 197 777 q 266 970 197 910 q 490 1029 335 1029 l 561 1029 l 561 886 l 531 886 q 416 856 448 886 q 385 745 385 825 l 385 581 q 351 469 385 507 q 245 424 317 431 l 245 404 z "},"|":{"ha":409,"x_min":112,"x_max":297,"o":"m 297 -199 l 112 -199 l 112 979 l 297 979 l 297 -199 z "},"}":{"ha":568,"x_min":7,"x_max":486,"o":"m 324 404 l 324 424 q 217 469 251 431 q 182 581 182 507 l 182 745 q 151 856 182 825 q 37 886 120 886 l 7 886 l 7 1029 l 78 1029 q 302 970 233 1029 q 371 777 371 911 l 371 647 q 396 536 371 567 q 486 505 421 505 l 486 323 q 396 292 421 323 q 371 182 371 262 l 371 30 q 302 -168 371 -107 q 78 -229 233 -229 l 7 -229 l 7 -85 l 37 -85 q 151 -55 120 -85 q 182 55 182 -25 l 182 235 q 324 404 182 391 z "},"~":{"ha":813,"x_min":47,"x_max":767,"o":"m 375 423 q 323 467 344 454 q 280 479 302 479 q 201 358 205 479 l 47 358 q 99 568 41 490 q 264 646 158 646 q 441 557 353 646 q 491 515 470 527 q 534 503 511 503 q 612 623 609 503 l 767 623 q 714 413 773 491 q 549 336 656 336 q 462 356 503 336 q 375 423 421 377 z "}," ":{"ha":298,"x_min":0,"x_max":0,"o":""},"¡":{"ha":439,"x_min":109,"x_max":330,"o":"m 118 -220 l 134 437 l 305 437 l 321 -220 l 118 -220 m 298 596 q 282 580 298 596 q 220 565 266 565 q 141 596 174 565 q 109 671 109 627 q 141 747 109 716 q 220 777 174 777 q 298 747 266 777 q 330 671 330 716 q 298 596 330 627 z "},"¢":{"ha":899,"x_min":78,"x_max":822,"o":"m 822 368 q 735 183 812 258 q 540 92 659 109 l 540 -32 l 376 -32 l 376 95 q 158 222 239 121 q 78 477 78 324 q 159 729 78 627 q 376 855 239 830 l 376 982 l 540 982 l 540 858 q 736 763 658 840 q 822 578 814 686 l 637 578 q 579 672 626 636 q 467 707 533 707 q 330 644 383 707 q 277 477 277 581 q 330 307 277 371 q 467 243 383 243 q 581 274 536 243 q 637 368 625 306 l 822 368 z "},"£":{"ha":899,"x_min":72,"x_max":834,"o":"m 350 168 l 834 168 l 834 0 l 72 0 l 72 157 q 220 233 163 171 q 277 378 277 294 q 273 430 277 400 l 75 430 l 75 570 l 227 570 q 186 736 186 671 q 286 933 186 863 q 565 1004 385 1004 q 690 994 626 1004 q 789 970 753 984 l 789 810 q 700 834 755 825 q 591 844 644 844 q 444 808 496 844 q 392 706 392 772 q 422 570 392 654 l 703 570 l 703 430 l 467 430 q 469 391 469 404 q 435 264 469 322 q 350 174 401 205 l 350 168 z "},"¤":{"ha":916,"x_min":92,"x_max":824,"o":"m 347 553 q 323 529 347 553 q 300 440 300 505 q 347 328 300 375 q 458 281 393 281 q 570 328 524 281 q 617 440 617 375 q 570 553 617 505 q 458 600 524 600 q 347 553 393 600 m 824 694 l 723 593 q 764 440 764 522 q 723 288 764 358 l 824 186 l 711 74 l 610 176 q 458 135 540 135 q 307 176 377 135 l 205 74 l 92 186 l 194 288 q 153 440 153 359 q 194 592 153 522 l 92 694 l 205 806 l 306 705 q 458 746 378 746 q 610 705 540 746 l 711 806 l 824 694 z "},"¥":{"ha":899,"x_min":7,"x_max":892,"o":"m 736 144 l 553 144 l 553 0 l 348 0 l 348 144 l 164 144 l 164 256 l 348 256 l 348 349 l 164 349 l 164 461 l 296 461 l 7 979 l 229 979 l 448 563 l 454 563 l 671 979 l 892 979 l 604 461 l 736 461 l 736 349 l 553 349 l 553 256 l 736 256 l 736 144 z "},"¦":{"ha":410,"x_min":113,"x_max":298,"o":"m 298 525 l 113 525 l 113 979 l 298 979 l 298 525 m 298 -199 l 113 -199 l 113 256 l 298 256 l 298 -199 z "},"§":{"ha":674,"x_min":33,"x_max":642,"o":"m 302 304 l 376 280 q 443 313 416 286 q 470 377 470 341 q 445 435 470 410 q 374 473 420 460 l 300 498 q 233 464 261 492 q 205 401 205 435 q 231 343 205 368 q 302 304 256 317 m 336 -193 q 127 -130 210 -193 q 41 33 45 -68 l 212 33 q 253 -30 217 -6 q 339 -54 288 -54 q 425 -29 392 -54 q 457 35 457 -5 q 433 84 457 64 q 356 121 410 104 l 237 160 q 82 243 130 195 q 33 363 33 291 q 72 475 33 427 q 179 545 111 524 l 179 557 q 73 634 106 590 q 40 743 40 679 q 121 907 40 845 q 337 970 203 970 q 542 909 462 970 q 629 749 621 849 l 458 749 q 420 809 454 786 q 336 831 386 831 q 252 807 283 831 q 220 744 220 783 q 243 695 220 715 q 319 657 266 675 l 435 618 q 593 534 544 582 q 642 417 642 487 q 598 299 642 351 q 485 229 555 248 l 485 216 q 600 144 564 187 q 636 36 636 101 q 553 -130 636 -66 q 336 -193 471 -193 z "},"¨":{"ha":685,"x_min":109,"x_max":576,"o":"m 266 880 q 253 867 266 880 q 201 854 239 854 q 136 880 162 854 q 109 943 109 906 q 136 1005 109 979 q 201 1031 162 1031 q 266 1005 239 1031 q 292 943 292 979 q 266 880 292 906 m 550 880 q 537 867 550 880 q 485 854 524 854 q 420 880 446 854 q 393 943 393 906 q 420 1005 393 979 q 485 1031 446 1031 q 550 1005 524 1031 q 576 943 576 979 q 550 880 576 906 z "},"©":{"ha":1151,"x_min":41,"x_max":1110,"o":"m 785 -53 q 735 -73 785 -53 q 576 -94 686 -94 q 367 -52 466 -94 q 196 61 268 -10 q 83 232 125 132 q 41 441 41 331 q 83 651 41 551 q 196 821 125 750 q 367 934 268 892 q 576 976 466 976 q 845 905 722 976 q 1039 712 968 835 q 1110 441 1110 589 q 1068 231 1110 330 q 955 61 1026 132 q 785 -53 884 -11 m 362 73 q 411 45 362 73 q 576 17 460 17 q 789 73 692 17 q 943 226 886 129 q 999 441 999 323 q 966 608 999 529 q 876 743 932 687 q 741 832 819 800 q 576 865 663 865 q 362 810 460 865 q 209 656 265 754 q 152 441 152 558 q 209 226 152 323 q 362 73 265 129 m 825 515 l 697 515 q 660 579 689 555 q 587 603 631 603 q 497 560 530 603 q 464 442 464 517 q 497 322 464 366 q 587 279 530 279 q 660 301 631 279 q 697 362 689 323 l 825 362 q 752 223 815 275 q 587 171 688 171 q 397 243 467 171 q 327 442 327 316 q 397 639 327 566 q 585 711 467 711 q 750 657 686 711 q 825 515 814 603 z "},"ª":{"ha":654,"x_min":57,"x_max":597,"o":"m 230 565 q 253 514 230 533 q 316 496 276 496 q 394 524 363 496 q 425 596 425 553 l 425 642 l 319 633 q 230 565 230 627 m 250 370 q 110 420 162 370 q 57 554 57 471 q 117 682 57 635 q 292 736 177 728 l 423 743 l 423 791 q 400 841 424 823 q 334 860 376 860 q 245 807 256 860 l 79 807 q 155 943 85 894 q 340 993 224 993 q 528 938 460 993 q 597 787 597 883 l 597 382 l 427 382 l 427 454 l 417 454 q 350 393 394 415 q 250 370 305 370 z "},"«":{"ha":920,"x_min":77,"x_max":843,"o":"m 608 388 l 608 381 l 843 102 l 656 102 l 423 381 l 423 387 l 659 665 l 843 665 l 608 388 m 262 388 l 262 381 l 496 102 l 310 102 l 77 381 l 77 387 l 313 665 l 496 665 l 262 388 z "},"¬":{"ha":899,"x_min":96,"x_max":804,"o":"m 804 480 l 804 45 l 631 45 l 631 312 l 96 312 l 96 480 l 804 480 z "},"®":{"ha":768,"x_min":54,"x_max":714,"o":"m 550 402 q 512 381 550 402 q 385 359 474 359 q 219 402 295 359 q 98 522 142 446 q 54 686 54 597 q 151 917 54 821 q 385 1013 248 1013 q 550 969 474 1013 q 670 850 626 926 q 714 686 714 775 q 670 522 714 597 q 550 402 626 446 m 214 515 q 249 480 214 515 q 385 445 284 445 q 555 515 485 445 q 625 686 625 585 q 555 857 625 787 q 385 927 485 927 q 213 857 283 927 q 143 686 143 787 q 214 515 143 585 m 333 542 l 252 542 l 252 842 l 410 842 q 491 816 460 842 q 522 746 522 789 q 505 688 522 712 q 458 656 488 663 l 537 542 l 440 542 l 375 644 l 333 644 l 333 542 m 333 779 l 333 703 l 391 703 q 436 741 436 703 q 393 779 436 779 l 333 779 z "},"¯":{"ha":678,"x_min":113,"x_max":566,"o":"m 566 977 l 566 880 l 113 880 l 113 977 l 566 977 z "},"°":{"ha":488,"x_min":39,"x_max":448,"o":"m 389 612 q 359 582 389 612 q 243 553 330 553 q 98 612 157 553 q 39 758 39 671 q 98 903 39 844 q 243 962 157 962 q 389 903 330 962 q 448 758 448 844 q 389 612 448 671 m 244 666 q 308 693 282 666 q 334 758 334 720 q 308 822 334 795 q 244 848 281 848 q 181 822 208 848 q 154 758 154 795 q 181 693 154 720 q 244 666 208 666 z "},"±":{"ha":899,"x_min":111,"x_max":788,"o":"m 787 51 l 111 51 l 111 199 l 787 199 l 787 51 m 534 441 l 534 279 l 366 279 l 366 441 l 111 441 l 111 588 l 366 588 l 366 751 l 534 751 l 534 588 l 788 588 l 788 441 l 534 441 z "},"²":{"ha":453,"x_min":21,"x_max":422,"o":"m 21 1067 q 76 1188 21 1143 q 223 1234 131 1234 q 364 1194 311 1234 q 417 1090 417 1154 q 398 1019 417 1051 q 330 947 378 987 l 231 862 l 231 859 l 422 859 l 422 743 l 31 743 l 31 846 l 227 1015 q 266 1077 266 1050 q 252 1108 266 1096 q 216 1120 238 1120 q 178 1105 193 1120 q 163 1067 163 1090 l 163 1064 l 21 1064 l 21 1067 z "},"³":{"ha":472,"x_min":25,"x_max":444,"o":"m 173 935 l 173 1036 l 232 1036 q 270 1047 255 1036 q 284 1078 284 1059 q 270 1109 284 1098 q 230 1121 255 1121 q 190 1107 205 1121 q 173 1069 174 1093 l 34 1069 q 87 1189 33 1144 q 233 1234 142 1234 q 374 1197 321 1234 q 428 1101 428 1160 q 400 1029 428 1059 q 328 992 373 1000 l 328 989 q 413 952 382 983 q 444 876 444 922 q 386 768 444 808 q 232 728 329 728 q 85 774 142 728 q 25 894 28 819 l 174 894 q 190 861 174 873 q 231 849 205 849 q 272 861 256 849 q 287 892 287 873 q 272 924 287 912 q 230 935 256 935 l 173 935 z "},"´":{"ha":685,"x_min":176,"x_max":511,"o":"m 332 857 l 176 857 l 326 1067 l 511 1067 l 332 857 z "},"¶":{"ha":999,"x_min":61,"x_max":924,"o":"m 620 -173 l 430 -173 l 430 309 l 416 309 q 162 405 264 309 q 61 641 61 500 q 161 883 61 787 q 417 979 260 979 l 620 979 l 620 -173 m 734 -173 l 734 979 l 924 979 l 924 -173 l 734 -173 z "},"·":{"ha":429,"x_min":106,"x_max":324,"o":"m 292 349 q 276 333 292 349 q 215 317 260 317 q 138 349 170 317 q 106 427 106 381 q 138 504 106 472 q 215 536 170 536 q 292 504 260 536 q 324 427 324 472 q 292 349 324 381 z "},"¸":{"ha":685,"x_min":228,"x_max":486,"o":"m 253 -155 l 253 -86 l 296 8 l 394 0 l 361 -79 q 453 -107 420 -79 q 486 -186 486 -135 q 443 -278 486 -245 q 323 -313 399 -312 q 228 -302 263 -313 l 228 -220 q 303 -230 255 -230 q 376 -193 376 -230 q 356 -163 376 -172 q 291 -155 337 -155 l 253 -155 z "},"¹":{"ha":374,"x_min":37,"x_max":311,"o":"m 156 743 l 156 1089 l 153 1089 l 37 1013 l 37 1142 l 155 1219 l 311 1219 l 311 743 l 156 743 z "},"º":{"ha":705,"x_min":52,"x_max":652,"o":"m 235 677 q 265 548 235 593 q 352 502 296 502 q 439 548 408 502 q 470 678 470 594 q 439 808 470 762 q 352 854 408 854 q 266 807 296 854 q 235 677 235 761 m 352 363 q 132 447 211 363 q 52 678 52 530 q 133 908 52 824 q 352 993 213 993 q 572 909 492 993 q 652 678 652 825 q 573 447 652 530 q 352 363 494 363 z "},"»":{"ha":920,"x_min":77,"x_max":843,"o":"m 311 388 l 77 665 l 260 665 l 496 387 l 496 381 l 263 102 l 77 102 l 311 381 l 311 388 m 658 388 l 423 665 l 607 665 l 843 387 l 843 381 l 610 102 l 423 102 l 658 381 l 658 388 z "},"¼":{"ha":1102,"x_min":43,"x_max":1076,"o":"m 874 0 l 874 65 l 641 65 l 641 194 q 806 477 701 311 l 1022 477 l 1022 184 l 1076 184 l 1076 65 l 1022 65 l 1022 0 l 874 0 m 768 180 l 768 177 l 879 177 l 879 376 l 876 376 q 768 180 806 257 m 163 504 l 163 850 l 160 850 l 43 774 l 43 903 l 161 981 l 317 981 l 317 504 l 163 504 m 251 0 l 77 0 l 791 979 l 965 979 l 251 0 z "},"½":{"ha":1100,"x_min":43,"x_max":1076,"o":"m 674 325 q 729 446 674 401 q 876 491 784 491 q 1017 451 964 491 q 1070 347 1070 412 q 1051 277 1070 309 q 983 204 1031 245 l 884 119 l 884 117 l 1076 117 l 1076 0 l 684 0 l 684 104 l 880 272 q 919 334 919 308 q 905 365 919 353 q 869 377 891 377 q 831 362 846 377 q 817 325 817 347 l 817 321 l 674 321 l 674 325 m 163 504 l 163 850 l 160 850 l 43 774 l 43 903 l 161 981 l 317 981 l 317 504 l 163 504 m 251 0 l 77 0 l 791 979 l 965 979 l 251 0 z "},"¾":{"ha":1163,"x_min":25,"x_max":1137,"o":"m 173 696 l 173 797 l 232 797 q 270 809 255 797 q 284 840 284 821 q 270 871 284 859 q 230 882 255 882 q 190 868 205 882 q 173 831 174 854 l 34 831 q 87 950 33 905 q 233 995 142 995 q 374 958 321 995 q 428 862 428 922 q 400 791 428 821 q 328 753 373 761 l 328 750 q 413 714 382 744 q 444 637 444 684 q 386 529 444 569 q 232 490 329 490 q 85 535 142 490 q 25 655 28 581 l 174 655 q 190 622 174 634 q 231 610 205 610 q 272 622 256 610 q 287 653 287 634 q 272 685 287 673 q 230 696 256 696 l 173 696 m 935 0 l 935 65 l 702 65 l 702 194 q 867 477 762 311 l 1083 477 l 1083 184 l 1137 184 l 1137 65 l 1083 65 l 1083 0 l 935 0 m 829 180 l 829 177 l 940 177 l 940 376 l 937 376 q 829 180 867 257 m 322 0 l 148 0 l 863 979 l 1036 979 l 322 0 z "},"¿":{"ha":741,"x_min":54,"x_max":705,"o":"m 705 54 q 616 -152 703 -74 q 376 -229 529 -229 q 142 -156 231 -229 q 54 34 54 -83 q 90 164 54 109 q 199 263 126 220 q 290 334 267 303 q 314 415 314 366 l 314 451 l 493 451 l 494 412 q 473 282 501 333 q 372 189 444 231 q 282 119 307 150 q 258 40 258 87 q 294 -41 258 -9 q 388 -72 330 -72 q 481 -38 446 -72 q 521 54 517 -3 l 705 54 m 475 596 q 459 580 475 596 q 397 565 443 565 q 318 596 351 565 q 286 671 286 627 q 318 746 286 715 q 397 777 350 777 q 475 746 443 777 q 507 671 507 715 q 475 596 507 627 z "},"À":{"ha":958,"x_min":19,"x_max":940,"o":"m 722 0 l 648 237 l 304 237 l 229 0 l 19 0 l 359 979 l 600 979 l 940 0 l 722 0 m 473 791 l 348 391 l 604 391 l 478 791 l 473 791 m 405 1057 l 216 1267 l 401 1267 l 559 1057 l 405 1057 z "},"Á":{"ha":958,"x_min":19,"x_max":940,"o":"m 722 0 l 648 237 l 304 237 l 229 0 l 19 0 l 359 979 l 600 979 l 940 0 l 722 0 m 473 791 l 348 391 l 604 391 l 478 791 l 473 791 m 553 1053 l 399 1053 l 556 1263 l 741 1263 l 553 1053 z "},"Â":{"ha":958,"x_min":19,"x_max":940,"o":"m 722 0 l 648 237 l 304 237 l 229 0 l 19 0 l 359 979 l 600 979 l 940 0 l 722 0 m 473 791 l 348 391 l 604 391 l 478 791 l 473 791 m 402 1262 l 557 1262 l 743 1046 l 592 1046 l 481 1180 l 477 1180 l 367 1046 l 216 1046 l 402 1262 z "},"Ã":{"ha":958,"x_min":19,"x_max":940,"o":"m 722 0 l 648 237 l 304 237 l 229 0 l 19 0 l 359 979 l 600 979 l 940 0 l 722 0 m 473 791 l 348 391 l 604 391 l 478 791 l 473 791 m 574 1045 q 515 1060 543 1045 q 471 1091 487 1074 q 435 1123 454 1108 q 399 1137 416 1137 q 365 1115 377 1137 q 353 1057 353 1093 l 245 1057 q 286 1191 245 1142 q 391 1240 327 1240 q 441 1231 418 1240 q 481 1208 465 1221 q 512 1181 498 1195 q 541 1158 526 1168 q 568 1149 555 1149 q 612 1232 611 1149 l 720 1232 q 679 1096 720 1147 q 574 1045 637 1045 z "},"Ä":{"ha":958,"x_min":19,"x_max":940,"o":"m 722 0 l 648 237 l 304 237 l 229 0 l 19 0 l 359 979 l 600 979 l 940 0 l 722 0 m 473 791 l 348 391 l 604 391 l 478 791 l 473 791 m 403 1085 q 390 1072 403 1085 q 338 1059 376 1059 q 273 1085 299 1059 q 246 1147 246 1111 q 273 1210 246 1184 q 338 1236 299 1236 q 403 1210 376 1236 q 429 1147 429 1184 q 403 1085 429 1111 m 687 1085 q 674 1072 687 1085 q 622 1059 661 1059 q 557 1085 583 1059 q 530 1147 530 1111 q 557 1210 530 1184 q 622 1236 583 1236 q 687 1210 661 1236 q 713 1147 713 1184 q 687 1085 713 1111 z "},"Å":{"ha":958,"x_min":19,"x_max":940,"o":"m 722 0 l 648 237 l 304 237 l 229 0 l 19 0 l 359 979 l 600 979 l 940 0 l 722 0 m 473 791 l 348 391 l 604 391 l 478 791 l 473 791 m 479 1026 q 374 1069 418 1026 q 330 1173 330 1113 q 374 1277 330 1234 q 479 1320 418 1320 q 585 1277 541 1320 q 629 1173 629 1234 q 585 1069 629 1113 q 479 1026 541 1026 m 479 1105 q 528 1125 508 1105 q 549 1173 549 1145 q 528 1221 549 1201 q 479 1242 508 1242 q 431 1221 452 1242 q 410 1173 410 1201 q 431 1125 410 1145 q 479 1105 452 1105 z "},"Æ":{"ha":1383,"x_min":19,"x_max":1296,"o":"m 563 821 l 390 406 l 655 406 l 655 821 l 563 821 m 655 0 l 655 253 l 330 253 l 223 0 l 19 0 l 435 979 l 1296 979 l 1296 810 l 842 810 l 842 570 l 1271 570 l 1271 413 l 842 413 l 842 169 l 1296 169 l 1296 0 l 655 0 z "},"Ç":{"ha":989,"x_min":51,"x_max":945,"o":"m 745 340 l 945 340 q 826 93 928 188 q 562 -15 723 -2 l 534 -79 q 627 -107 594 -79 q 660 -186 660 -135 q 616 -278 660 -245 q 496 -313 573 -312 q 401 -302 437 -313 l 401 -220 q 477 -230 429 -230 q 549 -193 549 -230 q 530 -163 549 -172 q 465 -155 511 -155 l 427 -155 l 427 -86 l 459 -14 q 160 136 269 3 q 51 490 51 269 q 176 860 51 725 q 514 996 300 996 q 726 949 631 996 q 879 819 821 903 q 944 627 937 735 l 745 627 q 667 772 730 718 q 514 826 604 826 q 329 735 398 826 q 260 490 260 644 q 328 243 260 334 q 515 153 397 153 q 667 203 606 153 q 745 340 729 253 z "},"È":{"ha":796,"x_min":81,"x_max":730,"o":"m 331 1057 l 142 1267 l 328 1267 l 485 1057 l 331 1057 m 730 170 l 730 0 l 81 0 l 81 979 l 730 979 l 730 810 l 286 810 l 286 574 l 705 574 l 705 416 l 286 416 l 286 170 l 730 170 z "},"É":{"ha":796,"x_min":81,"x_max":730,"o":"m 479 1053 l 325 1053 l 482 1263 l 667 1263 l 479 1053 m 730 170 l 730 0 l 81 0 l 81 979 l 730 979 l 730 810 l 286 810 l 286 574 l 705 574 l 705 416 l 286 416 l 286 170 l 730 170 z "},"Ê":{"ha":796,"x_min":81,"x_max":730,"o":"m 328 1262 l 483 1262 l 669 1046 l 518 1046 l 408 1180 l 404 1180 l 293 1046 l 142 1046 l 328 1262 m 730 170 l 730 0 l 81 0 l 81 979 l 730 979 l 730 810 l 286 810 l 286 574 l 705 574 l 705 416 l 286 416 l 286 170 l 730 170 z "},"Ë":{"ha":796,"x_min":81,"x_max":730,"o":"m 329 1085 q 316 1072 329 1085 q 264 1059 302 1059 q 199 1085 225 1059 q 172 1147 172 1111 q 199 1210 172 1184 q 264 1236 225 1236 q 329 1210 302 1236 q 355 1147 355 1184 q 329 1085 355 1111 m 613 1085 q 600 1072 613 1085 q 548 1059 587 1059 q 483 1085 509 1059 q 456 1147 456 1111 q 483 1210 456 1184 q 548 1236 509 1236 q 613 1210 587 1236 q 640 1147 640 1184 q 613 1085 640 1111 m 730 170 l 730 0 l 81 0 l 81 979 l 730 979 l 730 810 l 286 810 l 286 574 l 705 574 l 705 416 l 286 416 l 286 170 l 730 170 z "},"Ì":{"ha":368,"x_min":-79,"x_max":286,"o":"m 286 0 l 81 0 l 81 979 l 286 979 l 286 0 m 109 1057 l -79 1267 l 106 1267 l 263 1057 l 109 1057 z "},"Í":{"ha":368,"x_min":81,"x_max":446,"o":"m 286 0 l 81 0 l 81 979 l 286 979 l 286 0 m 258 1053 l 103 1053 l 260 1263 l 446 1263 l 258 1053 z "},"Î":{"ha":368,"x_min":-79,"x_max":447,"o":"m 286 0 l 81 0 l 81 979 l 286 979 l 286 0 m 106 1262 l 261 1262 l 447 1046 l 296 1046 l 186 1180 l 182 1180 l 71 1046 l -79 1046 l 106 1262 z "},"Ï":{"ha":368,"x_min":-50,"x_max":418,"o":"m 286 0 l 81 0 l 81 979 l 286 979 l 286 0 m 107 1085 q 94 1072 107 1085 q 42 1059 81 1059 q -23 1085 3 1059 q -50 1147 -50 1111 q -23 1210 -50 1184 q 42 1236 3 1236 q 107 1210 81 1236 q 134 1147 134 1184 q 107 1085 134 1111 m 391 1085 q 378 1072 391 1085 q 326 1059 365 1059 q 261 1085 288 1059 q 235 1147 235 1111 q 261 1210 235 1184 q 326 1236 288 1236 q 391 1210 365 1236 q 418 1147 418 1184 q 391 1085 418 1111 z "},"Ð":{"ha":1003,"x_min":22,"x_max":925,"o":"m 286 170 l 434 170 q 644 252 572 170 q 716 492 716 334 q 643 728 716 646 q 434 810 570 810 l 286 810 l 286 572 l 466 572 l 466 422 l 286 422 l 286 170 m 81 979 l 458 979 q 802 852 680 979 q 925 493 925 725 q 802 130 925 260 q 458 0 679 0 l 81 0 l 81 422 l 22 422 l 22 572 l 81 572 l 81 979 z "},"Ñ":{"ha":992,"x_min":81,"x_max":911,"o":"m 591 1045 q 532 1060 560 1045 q 488 1091 504 1074 q 452 1123 471 1108 q 416 1137 433 1137 q 382 1115 394 1137 q 370 1057 370 1093 l 262 1057 q 303 1191 262 1142 q 408 1240 344 1240 q 458 1231 435 1240 q 498 1208 482 1221 q 529 1181 515 1195 q 558 1158 543 1168 q 585 1149 572 1149 q 629 1232 628 1149 l 736 1232 q 695 1096 736 1147 q 591 1045 654 1045 m 277 0 l 81 0 l 81 979 l 252 979 l 709 341 l 715 341 l 715 979 l 911 979 l 911 0 l 741 0 l 283 641 l 277 641 l 277 0 z "},"Ò":{"ha":1045,"x_min":51,"x_max":995,"o":"m 448 1057 l 260 1267 l 445 1267 l 602 1057 l 448 1057 m 178 859 q 242 927 178 859 q 523 996 305 996 q 868 859 741 996 q 995 489 995 723 q 867 119 995 256 q 523 -17 740 -17 q 178 119 305 -17 q 51 489 51 256 q 178 859 51 723 m 714 734 q 679 779 714 734 q 523 825 643 825 q 331 734 403 825 q 260 489 260 643 q 331 245 260 336 q 523 155 402 155 q 714 245 643 155 q 785 489 785 336 q 714 734 785 643 z "},"Ó":{"ha":1045,"x_min":51,"x_max":995,"o":"m 597 1053 l 442 1053 l 600 1263 l 785 1263 l 597 1053 m 178 859 q 242 927 178 859 q 523 996 305 996 q 868 859 741 996 q 995 489 995 723 q 867 119 995 256 q 523 -17 740 -17 q 178 119 305 -17 q 51 489 51 256 q 178 859 51 723 m 714 734 q 679 779 714 734 q 523 825 643 825 q 331 734 403 825 q 260 489 260 643 q 331 245 260 336 q 523 155 402 155 q 714 245 643 155 q 785 489 785 336 q 714 734 785 643 z "},"Ô":{"ha":1045,"x_min":51,"x_max":995,"o":"m 446 1262 l 600 1262 l 786 1046 l 635 1046 l 525 1180 l 521 1180 l 410 1046 l 260 1046 l 446 1262 m 178 859 q 242 927 178 859 q 523 996 305 996 q 868 859 741 996 q 995 489 995 723 q 867 119 995 256 q 523 -17 740 -17 q 178 119 305 -17 q 51 489 51 256 q 178 859 51 723 m 714 734 q 679 779 714 734 q 523 825 643 825 q 331 734 403 825 q 260 489 260 643 q 331 245 260 336 q 523 155 402 155 q 714 245 643 155 q 785 489 785 336 q 714 734 785 643 z "},"Õ":{"ha":1045,"x_min":51,"x_max":995,"o":"m 178 859 q 242 927 178 859 q 523 996 305 996 q 868 859 741 996 q 995 489 995 723 q 867 119 995 256 q 523 -17 740 -17 q 178 119 305 -17 q 51 489 51 256 q 178 859 51 723 m 714 734 q 679 779 714 734 q 523 825 643 825 q 331 734 403 825 q 260 489 260 643 q 331 245 260 336 q 523 155 402 155 q 714 245 643 155 q 785 489 785 336 q 714 734 785 643 m 618 1045 q 558 1060 587 1045 q 514 1091 530 1074 q 478 1123 498 1108 q 443 1137 459 1137 q 409 1115 420 1137 q 396 1057 397 1093 l 289 1057 q 330 1191 289 1142 q 435 1240 370 1240 q 485 1231 461 1240 q 525 1208 509 1221 q 555 1181 541 1195 q 584 1158 570 1168 q 612 1149 599 1149 q 656 1232 654 1149 l 763 1232 q 722 1096 763 1147 q 618 1045 681 1045 z "},"Ö":{"ha":1045,"x_min":51,"x_max":995,"o":"m 446 1085 q 433 1072 446 1085 q 381 1059 420 1059 q 316 1085 342 1059 q 290 1147 290 1111 q 316 1210 290 1184 q 381 1236 342 1236 q 446 1210 420 1236 q 473 1147 473 1184 q 446 1085 473 1111 m 730 1085 q 717 1072 730 1085 q 665 1059 704 1059 q 600 1085 627 1059 q 574 1147 574 1111 q 600 1210 574 1184 q 665 1236 627 1236 q 730 1210 704 1236 q 757 1147 757 1184 q 730 1085 757 1111 m 178 859 q 242 927 178 859 q 523 996 305 996 q 868 859 741 996 q 995 489 995 723 q 867 119 995 256 q 523 -17 740 -17 q 178 119 305 -17 q 51 489 51 256 q 178 859 51 723 m 714 734 q 679 779 714 734 q 523 825 643 825 q 331 734 403 825 q 260 489 260 643 q 331 245 260 336 q 523 155 402 155 q 714 245 643 155 q 785 489 785 336 q 714 734 785 643 z "},"×":{"ha":900,"x_min":125,"x_max":775,"o":"m 450 277 l 243 71 l 125 190 l 331 396 l 125 603 l 243 722 l 450 515 l 656 722 l 775 603 l 569 396 l 775 190 l 656 71 l 450 277 z "},"Ø":{"ha":1045,"x_min":51,"x_max":995,"o":"m 733 706 l 391 191 q 523 155 448 155 q 714 245 643 155 q 785 489 785 336 q 733 706 785 621 m 328 248 l 677 772 q 523 825 613 825 q 331 734 403 825 q 260 489 260 643 q 328 248 260 338 m 916 981 l 848 879 q 995 489 995 741 q 867 119 995 256 q 523 -17 740 -17 q 288 36 389 -17 l 233 -45 l 164 1 l 218 82 q 94 252 137 148 q 51 489 51 355 q 178 859 51 723 q 523 996 305 996 q 781 929 672 996 l 842 1021 l 916 981 z "},"Ù":{"ha":983,"x_min":81,"x_max":901,"o":"m 417 1057 l 229 1267 l 414 1267 l 571 1057 l 417 1057 m 286 979 l 286 366 q 340 215 286 271 q 492 159 394 159 q 643 215 589 159 q 696 366 696 271 l 696 979 l 901 979 l 901 346 q 790 83 901 183 q 492 -17 678 -17 q 193 83 304 -17 q 81 346 81 183 l 81 979 l 286 979 z "},"Ú":{"ha":983,"x_min":81,"x_max":901,"o":"m 566 1053 l 411 1053 l 568 1263 l 753 1263 l 566 1053 m 286 979 l 286 366 q 340 215 286 271 q 492 159 394 159 q 643 215 589 159 q 696 366 696 271 l 696 979 l 901 979 l 901 346 q 790 83 901 183 q 492 -17 678 -17 q 193 83 304 -17 q 81 346 81 183 l 81 979 l 286 979 z "},"Û":{"ha":983,"x_min":81,"x_max":901,"o":"m 414 1262 l 569 1262 l 755 1046 l 604 1046 l 494 1180 l 490 1180 l 379 1046 l 229 1046 l 414 1262 m 286 979 l 286 366 q 340 215 286 271 q 492 159 394 159 q 643 215 589 159 q 696 366 696 271 l 696 979 l 901 979 l 901 346 q 790 83 901 183 q 492 -17 678 -17 q 193 83 304 -17 q 81 346 81 183 l 81 979 l 286 979 z "},"Ü":{"ha":983,"x_min":81,"x_max":901,"o":"m 415 1085 q 402 1072 415 1085 q 350 1059 389 1059 q 285 1085 311 1059 q 258 1147 258 1111 q 285 1210 258 1184 q 350 1236 311 1236 q 415 1210 389 1236 q 441 1147 441 1184 q 415 1085 441 1111 m 699 1085 q 686 1072 699 1085 q 634 1059 673 1059 q 569 1085 595 1059 q 543 1147 543 1111 q 569 1210 543 1184 q 634 1236 595 1236 q 699 1210 673 1236 q 726 1147 726 1184 q 699 1085 726 1111 m 286 979 l 286 366 q 340 215 286 271 q 492 159 394 159 q 643 215 589 159 q 696 366 696 271 l 696 979 l 901 979 l 901 346 q 790 83 901 183 q 492 -17 678 -17 q 193 83 304 -17 q 81 346 81 183 l 81 979 l 286 979 z "},"Ý":{"ha":924,"x_min":19,"x_max":905,"o":"m 564 0 l 359 0 l 359 366 l 19 979 l 242 979 l 461 561 l 466 561 l 686 979 l 905 979 l 564 366 l 564 0 m 536 1053 l 381 1053 l 538 1263 l 724 1263 l 536 1053 z "},"Þ":{"ha":902,"x_min":102,"x_max":839,"o":"m 102 979 l 309 979 l 309 819 l 517 819 q 749 735 659 819 q 839 509 839 652 q 795 344 839 415 q 676 236 751 273 q 507 199 602 199 l 307 199 l 307 0 l 102 0 l 102 979 m 307 656 l 307 360 l 460 360 q 585 398 540 360 q 631 509 631 436 q 586 619 631 581 q 461 656 541 656 l 307 656 z "},"ß":{"ha":922,"x_min":100,"x_max":854,"o":"m 298 0 l 100 0 l 100 733 q 192 932 100 859 q 439 1006 283 1006 q 681 935 588 1006 q 774 750 774 863 q 734 607 774 667 q 627 527 694 547 l 627 519 q 792 442 731 509 q 854 271 854 375 q 765 65 854 141 q 526 -10 677 -10 q 403 1 448 -10 l 403 159 q 490 147 437 147 q 610 183 566 147 q 653 282 653 219 q 604 385 653 348 q 467 421 555 421 l 418 421 l 418 583 l 452 583 q 548 619 513 583 q 583 718 583 655 q 545 811 583 776 q 443 846 507 846 q 335 807 372 846 q 298 694 298 768 l 298 0 z "},"à":{"ha":778,"x_min":37,"x_max":712,"o":"m 353 136 q 470 175 422 136 q 517 274 517 214 l 517 329 l 361 318 q 267 290 299 314 q 234 225 234 267 q 266 160 234 184 q 353 136 298 136 m 288 -9 q 108 54 179 -9 q 37 215 37 116 q 112 373 37 316 q 331 439 187 430 l 517 450 l 517 500 q 483 582 517 553 q 387 611 448 611 q 298 586 334 611 q 255 519 262 560 l 74 519 q 166 693 78 626 q 395 760 255 760 q 625 692 538 760 q 712 512 712 624 l 712 0 l 521 0 l 521 115 l 517 115 q 424 24 487 58 q 288 -9 361 -9 m 473 857 l 316 857 l 138 1067 l 323 1067 l 473 857 z "},"á":{"ha":778,"x_min":37,"x_max":712,"o":"m 353 136 q 470 175 422 136 q 517 274 517 214 l 517 329 l 361 318 q 267 290 299 314 q 234 225 234 267 q 266 160 234 184 q 353 136 298 136 m 288 -9 q 108 54 179 -9 q 37 215 37 116 q 112 373 37 316 q 331 439 187 430 l 517 450 l 517 500 q 483 582 517 553 q 387 611 448 611 q 298 586 334 611 q 255 519 262 560 l 74 519 q 166 693 78 626 q 395 760 255 760 q 625 692 538 760 q 712 512 712 624 l 712 0 l 521 0 l 521 115 l 517 115 q 424 24 487 58 q 288 -9 361 -9 m 468 857 l 311 857 l 461 1067 l 646 1067 l 468 857 z "},"â":{"ha":778,"x_min":37,"x_max":712,"o":"m 353 136 q 470 175 422 136 q 517 274 517 214 l 517 329 l 361 318 q 267 290 299 314 q 234 225 234 267 q 266 160 234 184 q 353 136 298 136 m 288 -9 q 108 54 179 -9 q 37 215 37 116 q 112 373 37 316 q 331 439 187 430 l 517 450 l 517 500 q 483 582 517 553 q 387 611 448 611 q 298 586 334 611 q 255 519 262 560 l 74 519 q 166 693 78 626 q 395 760 255 760 q 625 692 538 760 q 712 512 712 624 l 712 0 l 521 0 l 521 115 l 517 115 q 424 24 487 58 q 288 -9 361 -9 m 466 1065 l 646 850 l 495 850 l 394 978 l 389 978 l 289 850 l 137 850 l 317 1065 l 466 1065 z "},"ã":{"ha":778,"x_min":37,"x_max":712,"o":"m 353 136 q 470 175 422 136 q 517 274 517 214 l 517 329 l 361 318 q 267 290 299 314 q 234 225 234 267 q 266 160 234 184 q 353 136 298 136 m 288 -9 q 108 54 179 -9 q 37 215 37 116 q 112 373 37 316 q 331 439 187 430 l 517 450 l 517 500 q 483 582 517 553 q 387 611 448 611 q 298 586 334 611 q 255 519 262 560 l 74 519 q 166 693 78 626 q 395 760 255 760 q 625 692 538 760 q 712 512 712 624 l 712 0 l 521 0 l 521 115 l 517 115 q 424 24 487 58 q 288 -9 361 -9 m 488 853 q 440 863 463 853 q 401 886 417 872 q 370 913 385 899 q 341 936 356 926 q 313 945 327 945 q 279 923 291 945 q 267 865 267 901 l 159 865 q 200 999 159 950 q 305 1048 241 1048 q 355 1039 332 1048 q 395 1016 379 1029 q 426 989 412 1002 q 455 966 440 976 q 482 957 469 957 q 526 1040 525 957 l 633 1040 q 592 904 633 955 q 488 853 551 853 z "},"ä":{"ha":778,"x_min":37,"x_max":712,"o":"m 353 136 q 470 175 422 136 q 517 274 517 214 l 517 329 l 361 318 q 267 290 299 314 q 234 225 234 267 q 266 160 234 184 q 353 136 298 136 m 288 -9 q 108 54 179 -9 q 37 215 37 116 q 112 373 37 316 q 331 439 187 430 l 517 450 l 517 500 q 483 582 517 553 q 387 611 448 611 q 298 586 334 611 q 255 519 262 560 l 74 519 q 166 693 78 626 q 395 760 255 760 q 625 692 538 760 q 712 512 712 624 l 712 0 l 521 0 l 521 115 l 517 115 q 424 24 487 58 q 288 -9 361 -9 m 315 880 q 302 867 315 880 q 250 854 289 854 q 185 880 212 854 q 159 943 159 906 q 185 1005 159 979 q 250 1031 212 1031 q 315 1005 289 1031 q 342 943 342 979 q 315 880 342 906 m 600 880 q 586 867 600 880 q 534 854 573 854 q 469 880 496 854 q 443 943 443 906 q 469 1005 443 979 q 534 1031 496 1031 q 600 1005 573 1031 q 626 943 626 979 q 600 880 626 906 z "},"å":{"ha":778,"x_min":37,"x_max":712,"o":"m 353 136 q 470 175 422 136 q 517 274 517 214 l 517 329 l 361 318 q 267 290 299 314 q 234 225 234 267 q 266 160 234 184 q 353 136 298 136 m 288 -9 q 108 54 179 -9 q 37 215 37 116 q 112 373 37 316 q 331 439 187 430 l 517 450 l 517 500 q 483 582 517 553 q 387 611 448 611 q 298 586 334 611 q 255 519 262 560 l 74 519 q 166 693 78 626 q 395 760 255 760 q 625 692 538 760 q 712 512 712 624 l 712 0 l 521 0 l 521 115 l 517 115 q 424 24 487 58 q 288 -9 361 -9 m 392 821 q 287 864 331 821 q 242 968 242 907 q 287 1072 242 1028 q 392 1115 331 1115 q 498 1072 454 1115 q 542 968 542 1028 q 498 864 542 907 q 392 821 454 821 m 392 900 q 441 920 420 900 q 461 968 461 940 q 441 1016 461 996 q 392 1036 420 1036 q 343 1016 364 1036 q 323 968 323 996 q 343 920 323 940 q 392 900 364 900 z "},"æ":{"ha":1251,"x_min":37,"x_max":1211,"o":"m 872 -13 q 707 24 779 -13 q 598 127 634 62 l 592 127 q 317 -9 510 -9 q 114 53 191 -9 q 37 214 37 114 q 112 372 37 315 q 330 438 187 430 l 517 448 l 517 494 q 481 578 517 546 q 385 611 444 611 q 293 586 328 611 q 252 519 257 561 l 71 519 q 161 693 76 627 q 380 760 246 760 q 531 729 468 760 q 625 646 595 699 l 631 646 q 730 730 669 701 q 870 760 791 760 q 1119 659 1026 760 q 1211 389 1211 558 l 1211 328 l 702 328 l 702 315 q 749 184 702 234 q 875 135 797 135 q 969 159 930 135 q 1023 228 1008 184 l 1205 228 q 1098 53 1188 119 q 872 -13 1007 -13 m 976 568 q 955 590 976 568 q 866 612 934 612 q 754 567 798 612 q 704 450 709 523 l 1020 450 q 976 568 1017 524 m 349 136 q 469 176 420 136 q 517 274 517 216 l 517 327 l 359 317 q 267 290 299 314 q 234 225 234 266 q 265 160 234 184 q 349 136 296 136 z "},"ç":{"ha":774,"x_min":39,"x_max":743,"o":"m 558 271 l 743 271 q 657 77 734 153 q 453 -11 580 2 l 425 -79 q 517 -107 484 -79 q 550 -186 550 -135 q 507 -278 550 -245 q 387 -313 463 -312 q 292 -302 327 -313 l 292 -220 q 367 -230 319 -230 q 439 -193 439 -230 q 420 -163 439 -172 q 355 -155 401 -155 l 317 -155 l 317 -86 l 351 -10 q 123 108 206 7 q 39 374 39 210 q 138 655 39 551 q 404 760 237 760 q 643 679 551 760 q 742 471 734 598 l 557 471 q 509 567 549 531 q 406 604 469 604 q 285 542 330 604 q 240 374 240 481 q 285 204 240 265 q 407 144 330 144 q 509 177 470 144 q 558 271 549 210 z "},"è":{"ha":789,"x_min":39,"x_max":750,"o":"m 478 857 l 321 857 l 143 1067 l 328 1067 l 478 857 m 400 612 q 287 567 332 612 q 237 450 242 522 l 559 450 q 513 568 556 524 q 400 612 469 612 m 562 228 l 744 228 q 635 53 728 119 q 406 -13 542 -13 q 137 90 235 -13 q 39 370 39 192 q 137 654 39 549 q 398 760 234 760 q 655 659 559 760 q 750 389 750 559 l 750 328 l 235 328 l 235 315 q 283 185 235 235 q 409 135 331 135 q 506 160 465 135 q 562 228 547 184 z "},"é":{"ha":789,"x_min":39,"x_max":750,"o":"m 473 857 l 317 857 l 467 1067 l 652 1067 l 473 857 m 400 612 q 287 567 332 612 q 237 450 242 522 l 559 450 q 513 568 556 524 q 400 612 469 612 m 562 228 l 744 228 q 635 53 728 119 q 406 -13 542 -13 q 137 90 235 -13 q 39 370 39 192 q 137 654 39 549 q 398 760 234 760 q 655 659 559 760 q 750 389 750 559 l 750 328 l 235 328 l 235 315 q 283 185 235 235 q 409 135 331 135 q 506 160 465 135 q 562 228 547 184 z "},"ê":{"ha":789,"x_min":39,"x_max":750,"o":"m 471 1065 l 652 850 l 500 850 l 399 978 l 395 978 l 294 850 l 142 850 l 323 1065 l 471 1065 m 400 612 q 287 567 332 612 q 237 450 242 522 l 559 450 q 513 568 556 524 q 400 612 469 612 m 562 228 l 744 228 q 635 53 728 119 q 406 -13 542 -13 q 137 90 235 -13 q 39 370 39 192 q 137 654 39 549 q 398 760 234 760 q 655 659 559 760 q 750 389 750 559 l 750 328 l 235 328 l 235 315 q 283 185 235 235 q 409 135 331 135 q 506 160 465 135 q 562 228 547 184 z "},"ë":{"ha":789,"x_min":39,"x_max":750,"o":"m 400 612 q 287 567 332 612 q 237 450 242 522 l 559 450 q 513 568 556 524 q 400 612 469 612 m 562 228 l 744 228 q 635 53 728 119 q 406 -13 542 -13 q 137 90 235 -13 q 39 370 39 192 q 137 654 39 549 q 398 760 234 760 q 655 659 559 760 q 750 389 750 559 l 750 328 l 235 328 l 235 315 q 283 185 235 235 q 409 135 331 135 q 506 160 465 135 q 562 228 547 184 m 321 880 q 308 867 321 880 q 256 854 294 854 q 191 880 217 854 q 164 943 164 906 q 191 1005 164 979 q 256 1031 217 1031 q 321 1005 294 1031 q 347 943 347 979 q 321 880 347 906 m 605 880 q 592 867 605 880 q 540 854 578 854 q 475 880 501 854 q 448 943 448 906 q 475 1005 448 979 q 540 1031 501 1031 q 605 1005 578 1031 q 631 943 631 979 q 605 880 631 906 z "},"ì":{"ha":339,"x_min":-85,"x_max":269,"o":"m 250 857 l 94 857 l -85 1067 l 100 1067 l 250 857 m 71 0 l 71 747 l 269 747 l 269 0 l 71 0 z "},"í":{"ha":339,"x_min":71,"x_max":424,"o":"m 245 857 l 89 857 l 239 1067 l 424 1067 l 245 857 m 71 0 l 71 747 l 269 747 l 269 0 l 71 0 z "},"î":{"ha":339,"x_min":-85,"x_max":424,"o":"m 243 1065 l 424 850 l 273 850 l 172 978 l 167 978 l 66 850 l -85 850 l 95 1065 l 243 1065 m 71 0 l 71 747 l 269 747 l 269 0 l 71 0 z "},"ï":{"ha":339,"x_min":-64,"x_max":404,"o":"m 71 0 l 71 747 l 269 747 l 269 0 l 71 0 m 93 880 q 80 867 93 880 q 28 854 66 854 q -37 880 -11 854 q -64 943 -64 906 q -37 1005 -64 979 q 28 1031 -11 1031 q 93 1005 66 1031 q 119 943 119 979 q 93 880 119 906 m 377 880 q 364 867 377 880 q 312 854 351 854 q 247 880 273 854 q 220 943 220 906 q 247 1005 220 979 q 312 1031 273 1031 q 377 1005 351 1031 q 404 943 404 979 q 377 880 404 906 z "},"ð":{"ha":850,"x_min":54,"x_max":790,"o":"m 421 -12 q 155 90 256 -12 q 54 363 54 193 q 142 618 54 522 q 371 715 231 715 q 479 691 428 715 q 557 627 530 667 l 568 627 q 521 727 554 673 q 452 822 488 781 l 259 758 l 222 852 l 376 904 q 212 1029 323 953 l 458 1029 q 539 958 501 996 l 719 1019 l 758 923 l 621 878 q 790 408 790 676 q 689 101 790 215 q 421 -12 588 -12 m 426 575 q 302 517 348 575 q 257 361 257 460 q 302 205 257 263 q 426 148 348 148 q 550 205 504 148 q 595 361 595 262 q 549 517 595 459 q 426 575 503 575 z "},"ñ":{"ha":832,"x_min":67,"x_max":768,"o":"m 513 853 q 465 863 488 853 q 426 886 442 872 q 395 913 410 899 q 367 936 381 926 q 338 945 352 945 q 304 923 316 945 q 292 865 292 901 l 184 865 q 225 999 184 950 q 330 1048 266 1048 q 380 1039 357 1048 q 420 1016 404 1029 q 451 989 437 1002 q 480 966 465 976 q 507 957 494 957 q 551 1040 550 957 l 659 1040 q 617 904 659 955 q 513 853 576 853 m 67 0 l 67 747 l 258 747 l 258 613 l 262 613 q 503 758 328 758 q 697 684 627 758 q 768 479 768 610 l 768 0 l 570 0 l 570 437 q 532 552 570 512 q 424 593 494 593 q 309 547 353 593 q 265 426 265 500 l 265 0 l 67 0 z "},"ò":{"ha":814,"x_min":39,"x_max":776,"o":"m 488 857 l 332 857 l 153 1067 l 338 1067 l 488 857 m 408 -13 q 138 90 237 -13 q 39 374 39 193 q 139 656 39 552 q 408 760 239 760 q 676 656 577 760 q 776 374 776 553 q 677 90 776 193 q 408 -13 578 -13 m 284 201 q 307 170 284 201 q 408 140 329 140 q 530 201 486 140 q 574 374 574 262 q 530 546 574 484 q 408 608 486 608 q 284 546 329 608 q 240 374 240 484 q 284 201 240 262 z "},"ó":{"ha":814,"x_min":39,"x_max":776,"o":"m 484 857 l 327 857 l 477 1067 l 662 1067 l 484 857 m 408 -13 q 138 90 237 -13 q 39 374 39 193 q 139 656 39 552 q 408 760 239 760 q 676 656 577 760 q 776 374 776 553 q 677 90 776 193 q 408 -13 578 -13 m 284 201 q 307 170 284 201 q 408 140 329 140 q 530 201 486 140 q 574 374 574 262 q 530 546 574 484 q 408 608 486 608 q 284 546 329 608 q 240 374 240 484 q 284 201 240 262 z "},"ô":{"ha":814,"x_min":39,"x_max":776,"o":"m 481 1065 l 662 850 l 511 850 l 410 978 l 405 978 l 304 850 l 153 850 l 333 1065 l 481 1065 m 408 -13 q 138 90 237 -13 q 39 374 39 193 q 139 656 39 552 q 408 760 239 760 q 676 656 577 760 q 776 374 776 553 q 677 90 776 193 q 408 -13 578 -13 m 284 201 q 307 170 284 201 q 408 140 329 140 q 530 201 486 140 q 574 374 574 262 q 530 546 574 484 q 408 608 486 608 q 284 546 329 608 q 240 374 240 484 q 284 201 240 262 z "},"õ":{"ha":814,"x_min":39,"x_max":776,"o":"m 504 853 q 455 863 478 853 q 416 886 433 872 q 386 913 400 899 q 357 936 372 926 q 329 945 342 945 q 295 923 307 945 q 282 865 283 901 l 175 865 q 216 999 175 950 q 321 1048 256 1048 q 371 1039 347 1048 q 411 1016 395 1029 q 441 989 427 1002 q 470 966 456 976 q 498 957 485 957 q 542 1040 541 957 l 649 1040 q 608 904 649 955 q 504 853 567 853 m 408 -13 q 138 90 237 -13 q 39 374 39 193 q 139 656 39 552 q 408 760 239 760 q 676 656 577 760 q 776 374 776 553 q 677 90 776 193 q 408 -13 578 -13 m 284 201 q 307 170 284 201 q 408 140 329 140 q 530 201 486 140 q 574 374 574 262 q 530 546 574 484 q 408 608 486 608 q 284 546 329 608 q 240 374 240 484 q 284 201 240 262 z "},"ö":{"ha":814,"x_min":39,"x_max":776,"o":"m 331 880 q 318 867 331 880 q 266 854 304 854 q 201 880 227 854 q 174 943 174 906 q 201 1005 174 979 q 266 1031 227 1031 q 331 1005 304 1031 q 357 943 357 979 q 331 880 357 906 m 615 880 q 602 867 615 880 q 550 854 589 854 q 485 880 511 854 q 458 943 458 906 q 485 1005 458 979 q 550 1031 511 1031 q 615 1005 589 1031 q 642 943 642 979 q 615 880 642 906 m 408 -13 q 138 90 237 -13 q 39 374 39 193 q 139 656 39 552 q 408 760 239 760 q 676 656 577 760 q 776 374 776 553 q 677 90 776 193 q 408 -13 578 -13 m 284 201 q 307 170 284 201 q 408 140 329 140 q 530 201 486 140 q 574 374 574 262 q 530 546 574 484 q 408 608 486 608 q 284 546 329 608 q 240 374 240 484 q 284 201 240 262 z "},"÷":{"ha":899,"x_min":84,"x_max":816,"o":"m 532 579 q 516 564 532 579 q 450 549 500 549 q 369 579 400 549 q 337 656 337 609 q 369 734 337 705 q 450 764 400 764 q 532 734 500 764 q 564 656 564 705 q 532 579 564 609 m 532 52 q 516 37 532 52 q 450 22 500 22 q 369 52 400 22 q 337 129 337 81 q 369 207 337 177 q 450 237 400 237 q 532 207 500 237 q 564 129 564 177 q 532 52 564 81 m 816 319 l 84 319 l 84 467 l 816 467 l 816 319 z "},"ø":{"ha":814,"x_min":39,"x_max":776,"o":"m 549 513 l 328 161 q 408 140 363 140 q 530 201 486 140 q 574 374 574 262 q 549 513 574 456 m 271 224 l 494 581 q 408 608 458 608 q 284 546 329 608 q 240 374 240 484 q 271 224 240 283 m 699 752 l 652 679 q 776 374 776 574 q 677 90 776 193 q 408 -13 578 -13 q 239 20 315 -13 l 197 -47 l 127 -4 l 169 62 q 39 374 39 165 q 139 656 39 552 q 408 760 239 760 q 583 723 506 760 l 627 792 l 699 752 z "},"ù":{"ha":832,"x_min":64,"x_max":765,"o":"m 496 857 l 339 857 l 161 1067 l 346 1067 l 496 857 m 765 747 l 765 0 l 574 0 l 574 135 l 570 135 q 480 27 541 64 q 335 -11 420 -11 q 138 64 212 -11 q 64 268 64 139 l 64 747 l 262 747 l 262 309 q 301 194 262 235 q 410 154 340 154 q 524 200 480 154 q 567 321 567 246 l 567 747 l 765 747 z "},"ú":{"ha":832,"x_min":64,"x_max":765,"o":"m 491 857 l 334 857 l 484 1067 l 669 1067 l 491 857 m 765 747 l 765 0 l 574 0 l 574 135 l 570 135 q 480 27 541 64 q 335 -11 420 -11 q 138 64 212 -11 q 64 268 64 139 l 64 747 l 262 747 l 262 309 q 301 194 262 235 q 410 154 340 154 q 524 200 480 154 q 567 321 567 246 l 567 747 l 765 747 z "},"û":{"ha":832,"x_min":64,"x_max":765,"o":"m 489 1065 l 669 850 l 518 850 l 417 978 l 412 978 l 312 850 l 160 850 l 340 1065 l 489 1065 m 765 747 l 765 0 l 574 0 l 574 135 l 570 135 q 480 27 541 64 q 335 -11 420 -11 q 138 64 212 -11 q 64 268 64 139 l 64 747 l 262 747 l 262 309 q 301 194 262 235 q 410 154 340 154 q 524 200 480 154 q 567 321 567 246 l 567 747 l 765 747 z "},"ü":{"ha":832,"x_min":64,"x_max":765,"o":"m 765 747 l 765 0 l 574 0 l 574 135 l 570 135 q 480 27 541 64 q 335 -11 420 -11 q 138 64 212 -11 q 64 268 64 139 l 64 747 l 262 747 l 262 309 q 301 194 262 235 q 410 154 340 154 q 524 200 480 154 q 567 321 567 246 l 567 747 l 765 747 m 338 880 q 325 867 338 880 q 273 854 312 854 q 208 880 235 854 q 182 943 182 906 q 208 1005 182 979 q 273 1031 235 1031 q 338 1005 312 1031 q 365 943 365 979 q 338 880 365 906 m 623 880 q 609 867 623 880 q 557 854 596 854 q 492 880 519 854 q 466 943 466 906 q 492 1005 466 979 q 557 1031 519 1031 q 623 1005 596 1031 q 649 943 649 979 q 623 880 649 906 z "},"ý":{"ha":770,"x_min":9,"x_max":762,"o":"m 162 -273 q 87 -270 102 -273 l 87 -117 q 132 -119 97 -119 q 220 -98 188 -119 q 264 -33 252 -77 l 271 -5 l 9 747 l 226 747 l 387 161 l 391 161 l 553 747 l 762 747 l 504 -15 q 379 -215 456 -157 q 162 -273 302 -273 m 462 857 l 305 857 l 455 1067 l 640 1067 l 462 857 z "},"þ":{"ha":850,"x_min":73,"x_max":809,"o":"m 506 759 q 728 656 648 759 q 809 374 809 554 q 729 91 809 193 q 507 -12 648 -12 q 368 21 427 -12 q 281 114 309 54 l 270 114 l 270 -235 l 73 -235 l 73 1022 l 267 1022 l 267 624 l 279 624 q 370 723 310 688 q 506 759 429 759 m 437 148 q 562 208 517 148 q 606 374 606 268 q 562 539 606 479 q 437 599 517 599 q 313 538 359 599 q 267 373 268 477 q 313 208 268 268 q 437 148 359 148 z "},"ÿ":{"ha":770,"x_min":9,"x_max":762,"o":"m 162 -273 q 87 -270 102 -273 l 87 -117 q 132 -119 97 -119 q 220 -98 188 -119 q 264 -33 252 -77 l 271 -5 l 9 747 l 226 747 l 387 161 l 391 161 l 553 747 l 762 747 l 504 -15 q 379 -215 456 -157 q 162 -273 302 -273 m 309 880 q 296 867 309 880 q 244 854 283 854 q 179 880 205 854 q 153 943 153 906 q 179 1005 153 979 q 244 1031 205 1031 q 309 1005 283 1031 q 336 943 336 979 q 309 880 336 906 m 593 880 q 580 867 593 880 q 528 854 567 854 q 463 880 490 854 q 437 943 437 906 q 463 1005 437 979 q 528 1031 490 1031 q 593 1005 567 1031 q 620 943 620 979 q 593 880 620 906 z "},"Ā":{"ha":958,"x_min":19,"x_max":940,"o":"m 722 0 l 648 237 l 304 237 l 229 0 l 19 0 l 359 979 l 600 979 l 940 0 l 722 0 m 473 791 l 348 391 l 604 391 l 478 791 l 473 791 m 714 1198 l 714 1101 l 245 1101 l 245 1198 l 714 1198 z "},"ā":{"ha":778,"x_min":37,"x_max":712,"o":"m 353 136 q 470 175 422 136 q 517 274 517 214 l 517 329 l 361 318 q 267 290 299 314 q 234 225 234 267 q 266 160 234 184 q 353 136 298 136 m 288 -9 q 108 54 179 -9 q 37 215 37 116 q 112 373 37 316 q 331 439 187 430 l 517 450 l 517 500 q 483 582 517 553 q 387 611 448 611 q 298 586 334 611 q 255 519 262 560 l 74 519 q 166 693 78 626 q 395 760 255 760 q 625 692 538 760 q 712 512 712 624 l 712 0 l 521 0 l 521 115 l 517 115 q 424 24 487 58 q 288 -9 361 -9 m 619 977 l 619 880 l 165 880 l 165 977 l 619 977 z "},"Ă":{"ha":958,"x_min":19,"x_max":940,"o":"m 722 0 l 648 237 l 304 237 l 229 0 l 19 0 l 359 979 l 600 979 l 940 0 l 722 0 m 473 791 l 348 391 l 604 391 l 478 791 l 473 791 m 240 1261 l 361 1261 q 395 1178 362 1211 q 479 1145 427 1145 q 564 1178 532 1145 q 598 1261 597 1211 l 719 1261 q 653 1107 718 1168 q 479 1046 588 1046 q 306 1107 371 1046 q 240 1261 241 1168 z "},"ă":{"ha":778,"x_min":37,"x_max":712,"o":"m 353 136 q 470 175 422 136 q 517 274 517 214 l 517 329 l 361 318 q 267 290 299 314 q 234 225 234 267 q 266 160 234 184 q 353 136 298 136 m 288 -9 q 108 54 179 -9 q 37 215 37 116 q 112 373 37 316 q 331 439 187 430 l 517 450 l 517 500 q 483 582 517 553 q 387 611 448 611 q 298 586 334 611 q 255 519 262 560 l 74 519 q 166 693 78 626 q 395 760 255 760 q 625 692 538 760 q 712 512 712 624 l 712 0 l 521 0 l 521 115 l 517 115 q 424 24 487 58 q 288 -9 361 -9 m 149 1065 l 270 1065 q 304 980 271 1013 q 391 946 338 946 q 478 980 445 946 q 513 1065 511 1013 l 635 1065 q 568 908 633 970 q 391 846 502 846 q 216 908 281 846 q 149 1065 150 970 z "},"Ą":{"ha":958,"x_min":19,"x_max":938,"o":"m 838 -307 q 715 -264 763 -307 q 668 -154 668 -222 q 770 7 668 -55 l 720 7 l 648 237 l 304 237 l 229 0 l 19 0 l 359 979 l 600 979 l 938 5 l 902 5 q 804 -120 804 -44 q 826 -174 804 -153 q 882 -194 848 -194 q 924 -191 901 -194 l 924 -296 q 838 -307 891 -307 m 472 787 l 348 391 l 604 391 l 480 787 l 472 787 z "},"ą":{"ha":778,"x_min":37,"x_max":712,"o":"m 629 -307 q 507 -266 554 -307 q 460 -157 460 -224 q 569 8 460 -56 l 521 8 l 521 115 l 517 115 q 425 25 487 59 q 288 -9 363 -9 q 107 54 178 -9 q 37 215 37 117 q 112 373 37 316 q 331 439 187 430 l 517 450 l 517 500 q 483 582 517 553 q 387 611 449 611 q 298 586 334 611 q 255 519 262 561 l 74 519 q 167 693 78 626 q 395 760 256 760 q 625 692 538 760 q 712 512 712 624 l 712 7 l 692 7 q 594 -120 594 -42 q 616 -174 594 -153 q 673 -194 637 -194 q 712 -191 692 -194 l 712 -296 q 629 -307 679 -307 m 353 136 q 470 175 423 136 q 517 274 517 214 l 517 329 l 361 318 q 267 290 299 314 q 234 225 234 267 q 266 160 234 184 q 353 136 298 136 z "},"Ć":{"ha":989,"x_min":51,"x_max":945,"o":"m 579 1054 l 425 1054 l 582 1264 l 767 1264 l 579 1054 m 514 -17 q 175 118 300 -17 q 51 490 51 254 q 176 860 51 725 q 514 996 300 996 q 726 949 631 996 q 879 819 821 903 q 944 627 937 735 l 745 627 q 667 772 730 718 q 514 826 604 826 q 329 735 398 826 q 260 490 260 644 q 328 243 260 334 q 515 153 397 153 q 667 203 606 153 q 745 340 729 253 l 945 340 q 811 80 928 176 q 514 -17 694 -17 z "},"ć":{"ha":774,"x_min":39,"x_max":743,"o":"m 742 471 l 557 471 q 509 567 549 531 q 406 604 469 604 q 285 542 330 604 q 240 374 240 481 q 285 204 240 265 q 407 144 330 144 q 509 177 470 144 q 558 271 549 210 l 743 271 q 643 64 734 141 q 405 -13 551 -13 q 138 91 237 -13 q 39 374 39 195 q 138 655 39 551 q 404 760 237 760 q 643 679 551 760 q 742 471 734 598 m 471 857 l 314 857 l 464 1067 l 649 1067 l 471 857 z "},"Ĉ":{"ha":989,"x_min":51,"x_max":945,"o":"m 514 -17 q 175 118 300 -17 q 51 490 51 254 q 176 860 51 725 q 514 996 300 996 q 726 949 631 996 q 879 819 821 903 q 944 627 937 735 l 745 627 q 667 772 730 718 q 514 826 604 826 q 329 735 398 826 q 260 490 260 644 q 328 243 260 334 q 515 153 397 153 q 667 203 606 153 q 745 340 729 253 l 945 340 q 811 80 928 176 q 514 -17 694 -17 m 428 1263 l 583 1263 l 768 1047 l 618 1047 l 507 1181 l 503 1181 l 393 1047 l 242 1047 l 428 1263 z "},"ĉ":{"ha":774,"x_min":39,"x_max":743,"o":"m 469 1065 l 649 850 l 498 850 l 397 978 l 392 978 l 292 850 l 140 850 l 320 1065 l 469 1065 m 742 471 l 557 471 q 509 567 549 531 q 406 604 469 604 q 285 542 330 604 q 240 374 240 481 q 285 204 240 265 q 407 144 330 144 q 509 177 470 144 q 558 271 549 210 l 743 271 q 643 64 734 141 q 405 -13 551 -13 q 138 91 237 -13 q 39 374 39 195 q 138 655 39 551 q 404 760 237 760 q 643 679 551 760 q 742 471 734 598 z "},"Ċ":{"ha":989,"x_min":51,"x_max":945,"o":"m 577 1089 q 563 1074 577 1089 q 505 1059 548 1059 q 433 1089 463 1059 q 404 1160 404 1118 q 433 1232 404 1202 q 505 1261 463 1261 q 577 1232 548 1261 q 606 1160 606 1202 q 577 1089 606 1118 m 514 -17 q 175 118 300 -17 q 51 490 51 254 q 176 860 51 725 q 514 996 300 996 q 726 949 631 996 q 879 819 821 903 q 944 627 937 735 l 745 627 q 667 772 730 718 q 514 826 604 826 q 329 735 398 826 q 260 490 260 644 q 328 243 260 334 q 515 153 397 153 q 667 203 606 153 q 745 340 729 253 l 945 340 q 811 80 928 176 q 514 -17 694 -17 z "},"ċ":{"ha":774,"x_min":39,"x_max":743,"o":"m 742 471 l 557 471 q 509 567 549 531 q 406 604 469 604 q 285 542 330 604 q 240 374 240 481 q 285 204 240 265 q 407 144 330 144 q 509 177 470 144 q 558 271 549 210 l 743 271 q 643 64 734 141 q 405 -13 551 -13 q 138 91 237 -13 q 39 374 39 195 q 138 655 39 551 q 404 760 237 760 q 643 679 551 760 q 742 471 734 598 m 466 886 q 451 871 466 886 q 394 857 437 857 q 321 886 351 857 q 292 957 292 916 q 321 1028 292 999 q 394 1058 351 1058 q 466 1028 437 1058 q 496 957 496 999 q 466 886 496 916 z "},"Č":{"ha":989,"x_min":51,"x_max":945,"o":"m 514 -17 q 175 118 300 -17 q 51 490 51 254 q 176 860 51 725 q 514 996 300 996 q 726 949 631 996 q 879 819 821 903 q 944 627 937 735 l 745 627 q 667 772 730 718 q 514 826 604 826 q 329 735 398 826 q 260 490 260 644 q 328 243 260 334 q 515 153 397 153 q 667 203 606 153 q 745 340 729 253 l 945 340 q 811 80 928 176 q 514 -17 694 -17 m 428 1047 l 242 1263 l 393 1263 l 503 1129 l 507 1129 l 618 1263 l 768 1263 l 583 1047 l 428 1047 z "},"č":{"ha":774,"x_min":39,"x_max":743,"o":"m 469 850 l 320 850 l 140 1065 l 292 1065 l 392 938 l 397 938 l 498 1065 l 649 1065 l 469 850 m 742 471 l 557 471 q 509 567 549 531 q 406 604 469 604 q 285 542 330 604 q 240 374 240 481 q 285 204 240 265 q 407 144 330 144 q 509 177 470 144 q 558 271 549 210 l 743 271 q 643 64 734 141 q 405 -13 551 -13 q 138 91 237 -13 q 39 374 39 195 q 138 655 39 551 q 404 760 237 760 q 643 679 551 760 q 742 471 734 598 z "},"Ď":{"ha":975,"x_min":81,"x_max":925,"o":"m 359 1046 l 174 1262 l 324 1262 l 435 1128 l 439 1128 l 549 1262 l 700 1262 l 514 1046 l 359 1046 m 81 979 l 458 979 q 802 852 680 979 q 925 493 925 725 q 802 130 925 260 q 458 0 679 0 l 81 0 l 81 979 m 286 810 l 286 170 l 434 170 q 644 252 572 170 q 716 492 716 334 q 643 728 716 646 q 434 810 570 810 l 286 810 z "},"ď":{"ha":983,"x_min":39,"x_max":1027,"o":"m 880 1022 l 1027 1022 l 1000 681 l 880 681 l 880 1022 m 345 -9 q 122 95 205 -9 q 39 374 39 198 q 123 652 39 549 q 346 755 206 755 q 486 719 426 755 q 574 619 546 682 l 578 619 l 578 1025 l 777 1025 l 777 0 l 581 0 l 581 127 l 578 127 q 488 28 550 65 q 345 -9 427 -9 m 411 595 q 288 535 334 595 q 242 374 242 475 q 288 211 242 271 q 411 151 334 151 q 534 212 488 151 q 580 373 580 272 q 534 535 580 474 q 411 595 488 595 z "},"Đ":{"ha":1029,"x_min":58,"x_max":961,"o":"m 322 170 l 470 170 q 680 252 608 170 q 752 492 752 334 q 679 728 752 646 q 470 810 606 810 l 322 810 l 322 572 l 502 572 l 502 422 l 322 422 l 322 170 m 117 979 l 494 979 q 838 852 715 979 q 961 493 961 725 q 838 130 961 260 q 494 0 715 0 l 117 0 l 117 422 l 58 422 l 58 572 l 117 572 l 117 979 z "},"đ":{"ha":878,"x_min":54,"x_max":854,"o":"m 302 208 q 324 178 302 208 q 426 148 347 148 q 550 208 505 148 q 595 373 595 268 q 550 538 595 477 q 426 599 505 599 q 302 539 347 599 q 257 374 257 479 q 302 208 257 267 m 854 958 l 854 856 l 791 856 l 791 0 l 596 0 l 596 117 l 584 117 q 494 22 553 56 q 357 -12 435 -12 q 135 91 216 -12 q 54 374 54 195 q 136 656 54 553 q 359 759 218 759 q 494 724 435 759 q 582 627 553 689 l 593 627 l 593 856 l 442 856 l 442 958 l 593 958 l 593 1055 l 791 1055 l 791 958 l 854 958 z "},"Ē":{"ha":796,"x_min":81,"x_max":730,"o":"m 730 170 l 730 0 l 81 0 l 81 979 l 730 979 l 730 810 l 286 810 l 286 574 l 705 574 l 705 416 l 286 416 l 286 170 l 730 170 m 640 1198 l 640 1101 l 171 1101 l 171 1198 l 640 1198 z "},"ē":{"ha":789,"x_min":39,"x_max":750,"o":"m 400 612 q 287 567 332 612 q 237 450 242 522 l 559 450 q 513 568 556 524 q 400 612 469 612 m 562 228 l 744 228 q 635 53 728 119 q 406 -13 542 -13 q 137 90 235 -13 q 39 370 39 192 q 137 654 39 549 q 398 760 234 760 q 655 659 559 760 q 750 389 750 559 l 750 328 l 235 328 l 235 315 q 283 185 235 235 q 409 135 331 135 q 506 160 465 135 q 562 228 547 184 m 625 977 l 625 880 l 171 880 l 171 977 l 625 977 z "},"Ĕ":{"ha":796,"x_min":81,"x_max":730,"o":"m 730 170 l 730 0 l 81 0 l 81 979 l 730 979 l 730 810 l 286 810 l 286 574 l 705 574 l 705 416 l 286 416 l 286 170 l 730 170 m 166 1261 l 287 1261 q 321 1178 288 1211 q 406 1145 353 1145 q 490 1178 458 1145 q 524 1261 523 1211 l 645 1261 q 579 1107 644 1168 q 406 1046 514 1046 q 232 1107 297 1046 q 166 1261 168 1168 z "},"ĕ":{"ha":789,"x_min":39,"x_max":750,"o":"m 400 612 q 287 567 332 612 q 237 450 242 522 l 559 450 q 513 568 556 524 q 400 612 469 612 m 562 228 l 744 228 q 635 53 728 119 q 406 -13 542 -13 q 137 90 235 -13 q 39 370 39 192 q 137 654 39 549 q 398 760 234 760 q 655 659 559 760 q 750 389 750 559 l 750 328 l 235 328 l 235 315 q 283 185 235 235 q 409 135 331 135 q 506 160 465 135 q 562 228 547 184 m 154 1065 l 275 1065 q 310 980 277 1013 q 397 946 343 946 q 484 980 450 946 q 518 1065 517 1013 l 640 1065 q 573 908 639 970 q 397 846 507 846 q 221 908 287 846 q 154 1065 155 970 z "},"Ė":{"ha":796,"x_min":81,"x_max":730,"o":"m 477 1088 q 463 1073 477 1088 q 406 1059 448 1059 q 334 1088 363 1059 q 304 1160 304 1118 q 334 1231 304 1202 q 406 1260 363 1260 q 477 1231 448 1260 q 507 1160 507 1202 q 477 1088 507 1118 m 730 170 l 730 0 l 81 0 l 81 979 l 730 979 l 730 810 l 286 810 l 286 574 l 705 574 l 705 416 l 286 416 l 286 170 l 730 170 z "},"ė":{"ha":789,"x_min":39,"x_max":750,"o":"m 469 886 q 454 871 469 886 q 397 857 439 857 q 324 886 354 857 q 294 957 294 916 q 324 1028 294 999 q 397 1058 354 1058 q 469 1028 439 1058 q 498 957 498 999 q 469 886 498 916 m 400 612 q 287 567 332 612 q 237 450 242 522 l 559 450 q 513 568 556 524 q 400 612 469 612 m 562 228 l 744 228 q 635 53 728 119 q 406 -13 542 -13 q 137 90 235 -13 q 39 370 39 192 q 137 654 39 549 q 398 760 234 760 q 655 659 559 760 q 750 389 750 559 l 750 328 l 235 328 l 235 315 q 283 185 235 235 q 409 135 331 135 q 506 160 465 135 q 562 228 547 184 z "},"Ę":{"ha":796,"x_min":81,"x_max":730,"o":"m 563 0 l 81 0 l 81 979 l 730 979 l 730 810 l 286 810 l 286 574 l 705 574 l 705 416 l 286 416 l 286 170 l 730 170 l 730 20 q 602 -125 602 -39 q 623 -175 602 -156 q 681 -194 645 -194 q 730 -189 711 -194 l 730 -293 q 637 -307 698 -307 q 511 -267 558 -307 q 465 -161 465 -227 q 563 0 465 -62 z "},"ę":{"ha":789,"x_min":39,"x_max":750,"o":"m 515 -309 q 395 -269 441 -309 q 349 -165 349 -229 q 431 -13 349 -77 l 431 -12 q 406 -13 425 -13 q 137 90 235 -13 q 39 370 39 192 q 137 654 39 549 q 398 760 234 760 q 655 659 559 760 q 750 389 750 559 l 750 328 l 235 328 l 235 315 q 283 185 235 235 q 409 135 331 135 q 506 160 465 135 q 562 228 547 185 l 744 228 q 700 122 736 169 q 601 25 664 75 q 510 -56 538 -24 q 482 -125 482 -88 q 504 -174 482 -155 q 559 -193 525 -193 q 609 -187 587 -193 l 609 -294 q 515 -309 577 -309 m 400 612 q 287 567 332 612 q 237 450 242 522 l 559 450 q 513 568 556 524 q 400 612 469 612 z "},"Ě":{"ha":796,"x_min":81,"x_max":730,"o":"m 328 1046 l 142 1262 l 293 1262 l 404 1128 l 408 1128 l 518 1262 l 669 1262 l 483 1046 l 328 1046 m 730 170 l 730 0 l 81 0 l 81 979 l 730 979 l 730 810 l 286 810 l 286 574 l 705 574 l 705 416 l 286 416 l 286 170 l 730 170 z "},"ě":{"ha":789,"x_min":39,"x_max":750,"o":"m 471 850 l 323 850 l 142 1065 l 294 1065 l 395 938 l 399 938 l 500 1065 l 652 1065 l 471 850 m 400 612 q 287 567 332 612 q 237 450 242 522 l 559 450 q 513 568 556 524 q 400 612 469 612 m 562 228 l 744 228 q 635 53 728 119 q 406 -13 542 -13 q 137 90 235 -13 q 39 370 39 192 q 137 654 39 549 q 398 760 234 760 q 655 659 559 760 q 750 389 750 559 l 750 328 l 235 328 l 235 315 q 283 185 235 235 q 409 135 331 135 q 506 160 465 135 q 562 228 547 184 z "},"Ĝ":{"ha":1010,"x_min":51,"x_max":956,"o":"m 432 1262 l 587 1262 l 772 1046 l 622 1046 l 511 1180 l 507 1180 l 397 1046 l 246 1046 l 432 1262 m 956 411 q 841 97 956 211 q 522 -17 726 -17 q 177 119 302 -17 q 51 492 51 254 q 176 861 51 727 q 517 996 301 996 q 807 903 688 996 q 947 663 926 811 l 742 663 q 660 783 720 739 q 518 826 601 826 q 328 739 397 826 q 260 495 260 651 q 331 245 260 336 q 526 153 403 153 q 689 210 626 153 q 756 357 753 266 l 757 372 l 544 372 l 544 522 l 956 522 l 956 411 z "},"ĝ":{"ha":844,"x_min":39,"x_max":777,"o":"m 487 1065 l 667 850 l 516 850 l 415 978 l 410 978 l 310 850 l 158 850 l 338 1065 l 487 1065 m 287 216 q 310 187 287 216 q 410 158 332 158 q 533 216 487 158 q 579 374 579 275 q 533 535 579 475 q 410 595 487 595 q 288 536 333 595 q 242 375 242 476 q 287 216 242 274 m 408 -273 q 165 -213 260 -273 q 64 -53 71 -153 l 259 -53 q 311 -112 269 -90 q 412 -134 353 -134 q 533 -97 488 -134 q 578 2 578 -60 l 578 136 l 574 136 q 486 40 547 75 q 343 5 424 5 q 122 105 205 5 q 39 376 39 205 q 122 653 39 551 q 347 755 205 755 q 487 719 426 755 q 578 619 548 682 l 581 619 l 581 747 l 777 747 l 777 17 q 676 -195 777 -116 q 408 -273 576 -273 z "},"Ğ":{"ha":1010,"x_min":51,"x_max":956,"o":"m 956 411 q 841 97 956 211 q 522 -17 726 -17 q 177 119 302 -17 q 51 492 51 254 q 176 861 51 727 q 517 996 301 996 q 807 903 688 996 q 947 663 926 811 l 742 663 q 660 783 720 739 q 518 826 601 826 q 328 739 397 826 q 260 495 260 651 q 331 245 260 336 q 526 153 403 153 q 689 210 626 153 q 756 357 753 266 l 757 372 l 544 372 l 544 522 l 956 522 l 956 411 m 270 1261 l 391 1261 q 425 1178 392 1211 q 509 1145 457 1145 q 594 1178 562 1145 q 628 1261 627 1211 l 749 1261 q 683 1107 747 1168 q 509 1046 618 1046 q 336 1107 401 1046 q 270 1261 271 1168 z "},"ğ":{"ha":844,"x_min":39,"x_max":777,"o":"m 170 1065 l 291 1065 q 326 980 292 1013 q 412 946 359 946 q 499 980 465 946 q 534 1065 532 1013 l 656 1065 q 589 908 654 970 q 412 846 523 846 q 237 908 302 846 q 170 1065 171 970 m 287 216 q 310 187 287 216 q 410 158 332 158 q 533 216 487 158 q 579 374 579 275 q 533 535 579 475 q 410 595 487 595 q 288 536 333 595 q 242 375 242 476 q 287 216 242 274 m 408 -273 q 165 -213 260 -273 q 64 -53 71 -153 l 259 -53 q 311 -112 269 -90 q 412 -134 353 -134 q 533 -97 488 -134 q 578 2 578 -60 l 578 136 l 574 136 q 486 40 547 75 q 343 5 424 5 q 122 105 205 5 q 39 376 39 205 q 122 653 39 551 q 347 755 205 755 q 487 719 426 755 q 578 619 548 682 l 581 619 l 581 747 l 777 747 l 777 17 q 676 -195 777 -116 q 408 -273 576 -273 z "},"Ġ":{"ha":1010,"x_min":51,"x_max":956,"o":"m 581 1088 q 567 1073 581 1088 q 509 1059 552 1059 q 437 1088 467 1059 q 408 1160 408 1118 q 437 1231 408 1202 q 509 1260 467 1260 q 581 1231 552 1260 q 610 1160 610 1202 q 581 1088 610 1118 m 956 411 q 841 97 956 211 q 522 -17 726 -17 q 177 119 302 -17 q 51 492 51 254 q 176 861 51 727 q 517 996 301 996 q 807 903 688 996 q 947 663 926 811 l 742 663 q 660 783 720 739 q 518 826 601 826 q 328 739 397 826 q 260 495 260 651 q 331 245 260 336 q 526 153 403 153 q 689 210 626 153 q 756 357 753 266 l 757 372 l 544 372 l 544 522 l 956 522 l 956 411 z "},"ġ":{"ha":844,"x_min":39,"x_max":777,"o":"m 485 886 q 470 871 485 886 q 412 857 455 857 q 340 886 370 857 q 310 957 310 916 q 340 1028 310 999 q 412 1058 370 1058 q 485 1028 455 1058 q 514 957 514 999 q 485 886 514 916 m 287 216 q 310 187 287 216 q 410 158 332 158 q 533 216 487 158 q 579 374 579 275 q 533 535 579 475 q 410 595 487 595 q 288 536 333 595 q 242 375 242 476 q 287 216 242 274 m 408 -273 q 165 -213 260 -273 q 64 -53 71 -153 l 259 -53 q 311 -112 269 -90 q 412 -134 353 -134 q 533 -97 488 -134 q 578 2 578 -60 l 578 136 l 574 136 q 486 40 547 75 q 343 5 424 5 q 122 105 205 5 q 39 376 39 205 q 122 653 39 551 q 347 755 205 755 q 487 719 426 755 q 578 619 548 682 l 581 619 l 581 747 l 777 747 l 777 17 q 676 -195 777 -116 q 408 -273 576 -273 z "},"Ģ":{"ha":1010,"x_min":51,"x_max":956,"o":"m 494 -339 l 347 -339 l 429 -105 l 603 -105 l 494 -339 m 956 411 q 841 97 956 211 q 522 -17 726 -17 q 177 119 302 -17 q 51 492 51 254 q 176 861 51 727 q 517 996 301 996 q 807 903 688 996 q 947 663 926 811 l 742 663 q 660 783 720 739 q 518 826 601 826 q 328 739 397 826 q 260 495 260 651 q 331 245 260 336 q 526 153 403 153 q 689 210 626 153 q 756 357 753 266 l 757 372 l 544 372 l 544 522 l 956 522 l 956 411 z "},"ģ":{"ha":844,"x_min":39,"x_max":777,"o":"m 399 -598 l 252 -598 l 334 -364 l 507 -364 l 399 -598 m 287 216 q 310 187 287 216 q 410 158 332 158 q 533 216 487 158 q 579 374 579 275 q 533 535 579 475 q 410 595 487 595 q 288 536 333 595 q 242 375 242 476 q 287 216 242 274 m 408 -273 q 165 -213 260 -273 q 64 -53 71 -153 l 259 -53 q 311 -112 269 -90 q 412 -134 353 -134 q 533 -97 488 -134 q 578 2 578 -60 l 578 136 l 574 136 q 486 40 547 75 q 343 5 424 5 q 122 105 205 5 q 39 376 39 205 q 122 653 39 551 q 347 755 205 755 q 487 719 426 755 q 578 619 548 682 l 581 619 l 581 747 l 777 747 l 777 17 q 676 -195 777 -116 q 408 -273 576 -273 z "},"Ĥ":{"ha":1013,"x_min":81,"x_max":932,"o":"m 932 0 l 727 0 l 727 412 l 286 412 l 286 0 l 81 0 l 81 979 l 286 979 l 286 581 l 727 581 l 727 979 l 932 979 l 932 0 m 429 1262 l 584 1262 l 770 1046 l 619 1046 l 509 1180 l 505 1180 l 394 1046 l 243 1046 l 429 1262 z "},"ĥ":{"ha":846,"x_min":-92,"x_max":782,"o":"m 73 0 l 73 1025 l 267 1025 l 267 613 l 271 613 q 365 721 302 684 q 513 758 427 758 q 709 682 637 758 q 782 477 782 607 l 782 0 l 584 0 l 584 436 q 544 551 584 509 q 433 593 503 593 q 315 546 360 593 q 271 424 271 499 l 271 0 l 73 0 m 94 1309 l 248 1309 l 434 1093 l 283 1093 l 173 1227 l 169 1227 l 58 1093 l -92 1093 l 94 1309 z "},"Ħ":{"ha":1042,"x_min":24,"x_max":1018,"o":"m 741 581 l 741 713 l 300 713 l 300 581 l 741 581 m 1018 857 l 1018 713 l 946 713 l 946 0 l 741 0 l 741 412 l 300 412 l 300 0 l 96 0 l 96 713 l 24 713 l 24 857 l 96 857 l 96 979 l 300 979 l 300 857 l 741 857 l 741 979 l 946 979 l 946 857 l 1018 857 z "},"ħ":{"ha":876,"x_min":26,"x_max":797,"o":"m 281 623 l 290 623 q 382 722 319 687 q 528 758 445 758 q 724 683 651 758 q 797 477 797 608 l 797 0 l 599 0 l 599 436 q 558 552 599 510 q 448 593 517 593 q 330 547 376 593 q 285 424 285 500 l 285 0 l 87 0 l 87 842 l 26 842 l 26 944 l 87 944 l 87 1056 l 281 1056 l 281 944 l 438 944 l 438 842 l 281 842 l 281 623 z "},"Ĩ":{"ha":368,"x_min":-50,"x_max":424,"o":"m 286 0 l 81 0 l 81 979 l 286 979 l 286 0 m 279 1045 q 219 1060 248 1045 q 175 1091 191 1074 q 139 1123 159 1108 q 104 1137 120 1137 q 70 1115 81 1137 q 57 1057 58 1093 l -50 1057 q -9 1191 -50 1142 q 96 1240 31 1240 q 146 1231 122 1240 q 186 1208 170 1221 q 216 1181 202 1195 q 245 1158 231 1168 q 273 1149 260 1149 q 317 1232 315 1149 l 424 1232 q 383 1096 424 1147 q 279 1045 342 1045 z "},"ĩ":{"ha":339,"x_min":-63,"x_max":411,"o":"m 71 0 l 71 747 l 269 747 l 269 0 l 71 0 m 266 853 q 217 863 240 853 q 178 886 195 872 q 148 913 162 899 q 119 936 134 926 q 91 945 104 945 q 57 923 68 945 q 44 865 45 901 l -63 865 q -22 999 -63 950 q 83 1048 18 1048 q 133 1039 109 1048 q 173 1016 157 1029 q 203 989 189 1002 q 232 966 218 976 q 260 957 247 957 q 304 1040 302 957 l 411 1040 q 370 904 411 955 q 266 853 329 853 z "},"Ī":{"ha":368,"x_min":-51,"x_max":418,"o":"m 286 0 l 81 0 l 81 979 l 286 979 l 286 0 m 418 1198 l 418 1101 l -51 1101 l -51 1198 l 418 1198 z "},"ī":{"ha":339,"x_min":-57,"x_max":397,"o":"m 71 0 l 71 747 l 269 747 l 269 0 l 71 0 m 397 977 l 397 880 l -57 880 l -57 977 l 397 977 z "},"Ĭ":{"ha":368,"x_min":-56,"x_max":423,"o":"m 286 0 l 81 0 l 81 979 l 286 979 l 286 0 m -56 1261 l 65 1261 q 99 1178 66 1211 q 184 1145 132 1145 q 269 1178 236 1145 q 302 1261 301 1211 l 423 1261 q 357 1107 422 1168 q 184 1046 292 1046 q 11 1107 75 1046 q -56 1261 -54 1168 z "},"ĭ":{"ha":339,"x_min":-74,"x_max":412,"o":"m 71 0 l 71 747 l 269 747 l 269 0 l 71 0 m -74 1065 l 47 1065 q 82 980 49 1013 q 169 946 115 946 q 256 980 222 946 q 290 1065 289 1013 l 412 1065 q 345 908 411 970 q 169 846 279 846 q -7 908 59 846 q -74 1065 -73 970 z "},"Į":{"ha":368,"x_min":17,"x_max":286,"o":"m 185 -307 q 64 -266 111 -307 q 17 -157 17 -224 q 42 -65 17 -104 q 121 8 66 -26 l 81 8 l 81 979 l 286 979 l 286 5 l 250 5 q 151 -120 151 -45 q 172 -174 151 -153 q 229 -194 194 -194 q 268 -191 248 -194 l 268 -296 q 185 -307 233 -307 z "},"į":{"ha":339,"x_min":17,"x_max":277,"o":"m 170 828 q 94 858 125 828 q 63 932 63 888 q 94 1005 63 976 q 170 1035 125 1035 q 245 1005 214 1035 q 277 932 277 976 q 245 858 277 888 q 170 828 214 828 m 185 -307 q 64 -266 111 -307 q 17 -157 17 -224 q 123 8 17 -53 l 71 8 l 71 747 l 269 747 l 269 7 l 249 7 q 151 -120 151 -42 q 172 -174 151 -153 q 229 -194 194 -194 q 268 -191 252 -194 l 268 -296 q 185 -307 235 -307 z "},"İ":{"ha":368,"x_min":81,"x_max":286,"o":"m 286 0 l 81 0 l 81 979 l 286 979 l 286 0 m 256 1088 q 241 1073 256 1088 q 184 1059 227 1059 q 112 1088 141 1059 q 83 1160 83 1118 q 112 1231 83 1202 q 184 1260 141 1260 q 256 1231 227 1260 q 285 1160 285 1202 q 256 1088 285 1118 z "},"ı":{"ha":339,"x_min":71,"x_max":269,"o":"m 71 0 l 71 747 l 269 747 l 269 0 l 71 0 z "},"Ĳ":{"ha":1143,"x_min":81,"x_max":1054,"o":"m 286 0 l 81 0 l 81 979 l 286 979 l 286 0 m 389 288 l 587 288 q 624 193 589 229 q 718 157 660 157 q 815 195 782 157 q 849 308 849 234 l 849 979 l 1054 979 l 1054 307 q 966 65 1054 151 q 720 -20 878 -20 q 479 64 570 -20 q 389 288 389 148 z "},"ĳ":{"ha":678,"x_min":63,"x_max":616,"o":"m 71 0 l 71 747 l 269 747 l 269 0 l 71 0 m 170 828 q 94 858 125 828 q 63 932 63 888 q 94 1005 63 976 q 170 1035 125 1035 q 245 1005 214 1035 q 277 932 277 976 q 245 858 277 888 q 170 828 214 828 m 608 747 l 608 -25 q 541 -197 608 -139 q 342 -255 473 -255 q 290 -253 302 -255 l 290 -106 q 315 -107 294 -107 q 388 -87 366 -107 q 410 -20 410 -67 l 410 747 l 608 747 m 509 828 q 433 858 465 828 q 402 932 402 888 q 433 1005 402 976 q 509 1035 465 1035 q 585 1005 553 1035 q 616 932 616 976 q 585 858 616 888 q 509 828 553 828 z "},"Ĵ":{"ha":775,"x_min":21,"x_max":850,"o":"m 21 288 l 220 288 q 257 193 221 229 q 350 157 292 157 q 448 195 414 157 q 481 308 481 234 l 481 979 l 686 979 l 686 307 q 598 65 686 151 q 352 -20 510 -20 q 112 64 202 -20 q 21 288 21 148 m 509 1262 l 664 1262 l 850 1046 l 699 1046 l 589 1180 l 585 1180 l 474 1046 l 323 1046 l 509 1262 z "},"ĵ":{"ha":338,"x_min":-85,"x_max":424,"o":"m 268 747 l 268 -25 q 201 -197 268 -139 q 3 -255 134 -255 q -50 -253 -37 -255 l -50 -106 q -25 -107 -45 -107 q 48 -87 26 -107 q 71 -20 71 -67 l 71 747 l 268 747 m 243 1065 l 424 850 l 273 850 l 172 978 l 167 978 l 66 850 l -85 850 l 95 1065 l 243 1065 z "},"Ķ":{"ha":918,"x_min":81,"x_max":913,"o":"m 286 0 l 81 0 l 81 979 l 286 979 l 286 532 l 292 532 l 660 979 l 888 979 l 526 545 l 913 0 l 668 0 l 378 409 l 286 299 l 286 0 m 437 -339 l 290 -339 l 372 -105 l 545 -105 l 437 -339 z "},"ķ":{"ha":764,"x_min":73,"x_max":770,"o":"m 273 445 l 532 747 l 757 747 l 469 426 l 770 0 l 543 0 l 324 307 l 271 249 l 271 0 l 73 0 l 73 1025 l 271 1025 l 271 445 l 273 445 m 382 -339 l 235 -339 l 317 -105 l 490 -105 l 382 -339 z "},"Ĺ":{"ha":754,"x_min":81,"x_max":714,"o":"m 258 1053 l 103 1053 l 260 1263 l 446 1263 l 258 1053 m 714 170 l 714 0 l 81 0 l 81 979 l 286 979 l 286 170 l 714 170 z "},"ĺ":{"ha":342,"x_min":73,"x_max":433,"o":"m 245 1100 l 91 1100 l 248 1310 l 433 1310 l 245 1100 m 73 0 l 73 1025 l 271 1025 l 271 0 l 73 0 z "},"Ļ":{"ha":754,"x_min":81,"x_max":714,"o":"m 376 -339 l 229 -339 l 311 -105 l 485 -105 l 376 -339 m 714 170 l 714 0 l 81 0 l 81 979 l 286 979 l 286 170 l 714 170 z "},"ļ":{"ha":342,"x_min":9,"x_max":271,"o":"m 157 -339 l 9 -339 l 92 -105 l 265 -105 l 157 -339 m 73 0 l 73 1025 l 271 1025 l 271 0 l 73 0 z "},"Ľ":{"ha":754,"x_min":81,"x_max":714,"o":"m 458 979 l 625 979 l 591 637 l 458 637 l 458 979 m 714 170 l 714 0 l 81 0 l 81 979 l 286 979 l 286 170 l 714 170 z "},"ľ":{"ha":484,"x_min":73,"x_max":521,"o":"m 374 1022 l 521 1022 l 494 681 l 374 681 l 374 1022 m 73 0 l 73 1025 l 271 1025 l 271 0 l 73 0 z "},"Ł":{"ha":765,"x_min":26,"x_max":725,"o":"m 297 170 l 725 170 l 725 0 l 92 0 l 92 433 l 26 399 l 26 534 l 92 568 l 92 979 l 297 979 l 297 671 l 496 771 l 496 635 l 297 536 l 297 170 z "},"ł":{"ha":372,"x_min":5,"x_max":364,"o":"m 364 733 l 364 598 l 271 549 l 271 0 l 73 0 l 73 446 l 5 411 l 5 547 l 73 581 l 73 1025 l 271 1025 l 271 684 l 364 733 z "},"Ń":{"ha":992,"x_min":81,"x_max":911,"o":"m 570 1053 l 416 1053 l 573 1263 l 758 1263 l 570 1053 m 277 0 l 81 0 l 81 979 l 252 979 l 709 341 l 715 341 l 715 979 l 911 979 l 911 0 l 741 0 l 283 641 l 277 641 l 277 0 z "},"ń":{"ha":832,"x_min":67,"x_max":768,"o":"m 493 857 l 336 857 l 486 1067 l 671 1067 l 493 857 m 67 0 l 67 747 l 258 747 l 258 613 l 262 613 q 503 758 328 758 q 697 684 627 758 q 768 479 768 610 l 768 0 l 570 0 l 570 437 q 532 552 570 512 q 424 593 494 593 q 309 547 353 593 q 265 426 265 500 l 265 0 l 67 0 z "},"Ņ":{"ha":992,"x_min":81,"x_max":911,"o":"m 481 -339 l 334 -339 l 416 -105 l 590 -105 l 481 -339 m 277 0 l 81 0 l 81 979 l 252 979 l 709 341 l 715 341 l 715 979 l 911 979 l 911 0 l 741 0 l 283 641 l 277 641 l 277 0 z "},"ņ":{"ha":832,"x_min":67,"x_max":768,"o":"m 402 -339 l 255 -339 l 337 -105 l 511 -105 l 402 -339 m 67 0 l 67 747 l 258 747 l 258 613 l 262 613 q 503 758 328 758 q 697 684 627 758 q 768 479 768 610 l 768 0 l 570 0 l 570 437 q 532 552 570 512 q 424 593 494 593 q 309 547 353 593 q 265 426 265 500 l 265 0 l 67 0 z "},"Ň":{"ha":992,"x_min":81,"x_max":911,"o":"m 419 1046 l 233 1262 l 384 1262 l 494 1128 l 498 1128 l 609 1262 l 760 1262 l 574 1046 l 419 1046 m 277 0 l 81 0 l 81 979 l 252 979 l 709 341 l 715 341 l 715 979 l 911 979 l 911 0 l 741 0 l 283 641 l 277 641 l 277 0 z "},"ň":{"ha":832,"x_min":67,"x_max":768,"o":"m 491 850 l 342 850 l 162 1065 l 314 1065 l 414 938 l 419 938 l 520 1065 l 671 1065 l 491 850 m 67 0 l 67 747 l 258 747 l 258 613 l 262 613 q 503 758 328 758 q 697 684 627 758 q 768 479 768 610 l 768 0 l 570 0 l 570 437 q 532 552 570 512 q 424 593 494 593 q 309 547 353 593 q 265 426 265 500 l 265 0 l 67 0 z "},"Ō":{"ha":1045,"x_min":51,"x_max":995,"o":"m 178 859 q 242 927 178 859 q 523 996 305 996 q 868 859 741 996 q 995 489 995 723 q 867 119 995 256 q 523 -17 740 -17 q 178 119 305 -17 q 51 489 51 256 q 178 859 51 723 m 714 734 q 679 779 714 734 q 523 825 643 825 q 331 734 403 825 q 260 489 260 643 q 331 245 260 336 q 523 155 402 155 q 714 245 643 155 q 785 489 785 336 q 714 734 785 643 m 758 1198 l 758 1101 l 288 1101 l 288 1198 l 758 1198 z "},"ō":{"ha":814,"x_min":39,"x_max":776,"o":"m 635 977 l 635 880 l 181 880 l 181 977 l 635 977 m 408 -13 q 138 90 237 -13 q 39 374 39 193 q 139 656 39 552 q 408 760 239 760 q 676 656 577 760 q 776 374 776 553 q 677 90 776 193 q 408 -13 578 -13 m 284 201 q 307 170 284 201 q 408 140 329 140 q 530 201 486 140 q 574 374 574 262 q 530 546 574 484 q 408 608 486 608 q 284 546 329 608 q 240 374 240 484 q 284 201 240 262 z "},"Ŏ":{"ha":1045,"x_min":51,"x_max":995,"o":"m 178 859 q 242 927 178 859 q 523 996 305 996 q 868 859 741 996 q 995 489 995 723 q 867 119 995 256 q 523 -17 740 -17 q 178 119 305 -17 q 51 489 51 256 q 178 859 51 723 m 714 734 q 679 779 714 734 q 523 825 643 825 q 331 734 403 825 q 260 489 260 643 q 331 245 260 336 q 523 155 402 155 q 714 245 643 155 q 785 489 785 336 q 714 734 785 643 m 283 1261 l 404 1261 q 438 1178 406 1211 q 523 1145 471 1145 q 608 1178 575 1145 q 642 1261 640 1211 l 762 1261 q 696 1107 761 1168 q 523 1046 631 1046 q 350 1107 414 1046 q 283 1261 285 1168 z "},"ŏ":{"ha":814,"x_min":39,"x_max":776,"o":"m 164 1065 l 286 1065 q 320 980 287 1013 q 407 946 354 946 q 493 980 460 946 q 528 1065 527 1013 l 650 1065 q 583 908 649 970 q 407 846 517 846 q 231 908 297 846 q 164 1065 165 970 m 408 -13 q 138 90 237 -13 q 39 374 39 193 q 139 656 39 552 q 408 760 239 760 q 676 656 577 760 q 776 374 776 553 q 677 90 776 193 q 408 -13 578 -13 m 284 201 q 307 170 284 201 q 408 140 329 140 q 530 201 486 140 q 574 374 574 262 q 530 546 574 484 q 408 608 486 608 q 284 546 329 608 q 240 374 240 484 q 284 201 240 262 z "},"Ő":{"ha":1045,"x_min":51,"x_max":995,"o":"m 730 1053 l 579 1053 l 736 1263 l 918 1263 l 730 1053 m 462 1053 l 311 1053 l 468 1263 l 650 1263 l 462 1053 m 178 859 q 242 927 178 859 q 523 996 305 996 q 868 859 741 996 q 995 489 995 723 q 867 119 995 256 q 523 -17 740 -17 q 178 119 305 -17 q 51 489 51 256 q 178 859 51 723 m 714 734 q 679 779 714 734 q 523 825 643 825 q 331 734 403 825 q 260 489 260 643 q 331 245 260 336 q 523 155 402 155 q 714 245 643 155 q 785 489 785 336 q 714 734 785 643 z "},"ő":{"ha":814,"x_min":39,"x_max":776,"o":"m 458 857 l 587 1067 l 758 1067 l 600 857 l 458 857 m 207 857 l 336 1067 l 506 1067 l 348 857 l 207 857 m 408 -13 q 138 90 237 -13 q 39 374 39 193 q 139 656 39 552 q 408 760 239 760 q 676 656 577 760 q 776 374 776 553 q 677 90 776 193 q 408 -13 578 -13 m 284 201 q 307 170 284 201 q 408 140 329 140 q 530 201 486 140 q 574 374 574 262 q 530 546 574 484 q 408 608 486 608 q 284 546 329 608 q 240 374 240 484 q 284 201 240 262 z "},"Œ":{"ha":1503,"x_min":54,"x_max":1437,"o":"m 721 735 q 685 781 721 735 q 528 827 649 827 q 335 735 408 827 q 263 489 263 643 q 335 244 263 336 q 528 153 407 153 q 722 244 650 153 q 793 489 793 336 q 721 735 793 643 m 816 0 l 816 160 q 691 28 779 78 q 496 -22 604 -22 q 317 15 399 -22 q 177 119 235 52 q 87 280 119 185 q 54 489 54 376 q 110 757 54 641 q 267 937 166 873 q 498 1000 368 1000 q 690 952 606 1000 q 816 817 773 904 l 816 979 l 1437 979 l 1437 810 l 1000 810 l 1000 574 l 1411 574 l 1411 416 l 1000 416 l 1000 170 l 1437 170 l 1437 0 l 816 0 z "},"œ":{"ha":1318,"x_min":39,"x_max":1280,"o":"m 950 -13 q 788 22 860 -13 q 678 120 716 58 l 669 120 q 401 -13 578 -13 q 137 92 235 -13 q 39 372 39 196 q 137 654 39 548 q 399 760 235 760 q 669 626 578 760 l 678 626 q 787 724 716 688 q 942 760 857 760 q 1187 658 1095 760 q 1280 389 1280 556 l 1280 328 l 771 328 l 771 309 q 819 183 771 231 q 945 135 867 135 q 1040 158 1000 135 q 1091 221 1079 182 l 1274 221 q 1167 53 1258 119 q 950 -13 1076 -13 m 1086 450 q 1042 568 1084 524 q 932 612 1000 612 q 820 567 865 612 q 771 450 775 522 l 1086 450 m 235 372 q 279 204 235 264 q 401 144 323 144 q 523 204 479 144 q 567 373 567 264 q 523 543 567 481 q 401 604 479 604 q 279 542 323 604 q 235 372 235 481 z "},"Ŕ":{"ha":892,"x_min":81,"x_max":868,"o":"m 492 1053 l 337 1053 l 494 1263 l 680 1263 l 492 1053 m 286 819 l 286 507 l 466 507 q 586 548 543 507 q 629 663 629 589 q 585 776 629 734 q 464 819 540 819 l 286 819 m 286 358 l 286 0 l 81 0 l 81 979 l 486 979 q 746 896 653 979 q 840 667 840 812 q 792 496 840 571 q 662 389 745 421 l 868 0 l 636 0 l 454 358 l 286 358 z "},"ŕ":{"ha":515,"x_min":67,"x_max":528,"o":"m 349 857 l 193 857 l 342 1067 l 528 1067 l 349 857 m 67 0 l 67 747 l 258 747 l 258 613 l 262 613 q 328 719 281 682 q 440 755 374 755 q 496 748 473 755 l 496 572 q 425 585 469 585 q 307 541 349 585 q 265 418 265 496 l 265 0 l 67 0 z "},"Ŗ":{"ha":892,"x_min":81,"x_max":868,"o":"m 286 819 l 286 507 l 466 507 q 586 548 543 507 q 629 663 629 589 q 585 776 629 734 q 464 819 540 819 l 286 819 m 286 358 l 286 0 l 81 0 l 81 979 l 486 979 q 746 896 653 979 q 840 667 840 812 q 792 496 840 571 q 662 389 745 421 l 868 0 l 636 0 l 454 358 l 286 358 m 403 -339 l 256 -339 l 338 -105 l 511 -105 l 403 -339 z "},"ŗ":{"ha":515,"x_min":5,"x_max":496,"o":"m 67 0 l 67 747 l 258 747 l 258 613 l 262 613 q 328 719 281 682 q 440 755 374 755 q 496 748 473 755 l 496 572 q 425 585 469 585 q 307 541 349 585 q 265 418 265 496 l 265 0 l 67 0 m 153 -339 l 5 -339 l 87 -105 l 261 -105 l 153 -339 z "},"Ř":{"ha":892,"x_min":81,"x_max":868,"o":"m 286 819 l 286 507 l 466 507 q 586 548 543 507 q 629 663 629 589 q 585 776 629 734 q 464 819 540 819 l 286 819 m 286 358 l 286 0 l 81 0 l 81 979 l 486 979 q 746 896 653 979 q 840 667 840 812 q 792 496 840 571 q 662 389 745 421 l 868 0 l 636 0 l 454 358 l 286 358 m 340 1046 l 155 1262 l 305 1262 l 416 1128 l 420 1128 l 530 1262 l 681 1262 l 495 1046 l 340 1046 z "},"ř":{"ha":515,"x_min":18,"x_max":528,"o":"m 347 850 l 199 850 l 18 1065 l 170 1065 l 271 938 l 275 938 l 376 1065 l 528 1065 l 347 850 m 67 0 l 67 747 l 258 747 l 258 613 l 262 613 q 328 719 281 682 q 440 755 374 755 q 496 748 473 755 l 496 572 q 425 585 469 585 q 307 541 349 585 q 265 418 265 496 l 265 0 l 67 0 z "},"Ś":{"ha":877,"x_min":45,"x_max":833,"o":"m 517 1053 l 363 1053 l 520 1263 l 705 1263 l 517 1053 m 45 279 l 242 279 q 306 182 249 219 q 444 145 362 145 q 577 180 526 145 q 628 269 628 215 q 590 346 628 317 q 463 395 552 375 l 336 422 q 66 696 66 480 q 171 913 66 830 q 441 996 276 996 q 711 915 610 996 q 815 701 812 835 l 623 701 q 569 799 618 763 q 441 834 519 834 q 319 801 366 834 q 273 713 273 768 q 310 641 273 669 q 433 593 348 613 l 551 568 q 766 471 699 537 q 833 293 833 405 q 726 67 833 151 q 436 -17 618 -17 q 154 62 259 -17 q 45 279 50 141 z "},"ś":{"ha":731,"x_min":36,"x_max":695,"o":"m 54 527 q 140 696 54 632 q 367 760 225 760 q 590 695 505 760 q 677 523 675 630 l 494 523 q 456 593 490 567 q 364 619 421 619 q 278 597 311 619 q 245 539 245 575 q 345 461 245 484 l 486 431 q 647 358 598 405 q 695 228 695 311 q 604 53 695 119 q 366 -13 513 -13 q 132 52 220 -13 q 36 226 43 117 l 229 226 q 273 153 237 178 q 372 127 310 127 q 465 149 431 127 q 498 207 498 170 q 477 253 498 236 q 405 282 456 270 l 267 313 q 54 527 54 361 m 444 857 l 288 857 l 437 1067 l 623 1067 l 444 857 z "},"Ŝ":{"ha":877,"x_min":45,"x_max":833,"o":"m 45 279 l 242 279 q 306 182 249 219 q 444 145 362 145 q 577 180 526 145 q 628 269 628 215 q 590 346 628 317 q 463 395 552 375 l 336 422 q 66 696 66 480 q 171 913 66 830 q 441 996 276 996 q 711 915 610 996 q 815 701 812 835 l 623 701 q 569 799 618 763 q 441 834 519 834 q 319 801 366 834 q 273 713 273 768 q 310 641 273 669 q 433 593 348 613 l 551 568 q 766 471 699 537 q 833 293 833 405 q 726 67 833 151 q 436 -17 618 -17 q 154 62 259 -17 q 45 279 50 141 m 366 1262 l 521 1262 l 707 1046 l 556 1046 l 446 1180 l 441 1180 l 331 1046 l 180 1046 l 366 1262 z "},"ŝ":{"ha":731,"x_min":36,"x_max":695,"o":"m 442 1065 l 623 850 l 471 850 l 370 978 l 366 978 l 265 850 l 113 850 l 294 1065 l 442 1065 m 54 527 q 140 696 54 632 q 367 760 225 760 q 590 695 505 760 q 677 523 675 630 l 494 523 q 456 593 490 567 q 364 619 421 619 q 278 597 311 619 q 245 539 245 575 q 345 461 245 484 l 486 431 q 647 358 598 405 q 695 228 695 311 q 604 53 695 119 q 366 -13 513 -13 q 132 52 220 -13 q 36 226 43 117 l 229 226 q 273 153 237 178 q 372 127 310 127 q 465 149 431 127 q 498 207 498 170 q 477 253 498 236 q 405 282 456 270 l 267 313 q 54 527 54 361 z "},"Ş":{"ha":877,"x_min":45,"x_max":833,"o":"m 433 593 l 551 568 q 766 471 699 537 q 833 293 833 405 q 742 81 833 163 q 494 -14 652 -1 l 467 -79 q 560 -107 527 -79 q 593 -186 593 -135 q 549 -278 593 -245 q 429 -313 506 -312 q 334 -302 370 -313 l 334 -220 q 410 -230 361 -230 q 482 -193 482 -230 q 463 -163 482 -172 q 397 -155 444 -155 l 359 -155 l 359 -86 l 391 -16 q 141 73 233 -5 q 45 279 49 151 l 242 279 q 306 182 249 219 q 444 145 362 145 q 577 180 526 145 q 628 269 628 215 q 590 346 628 317 q 463 395 552 375 l 336 422 q 66 696 66 480 q 171 913 66 830 q 441 996 276 996 q 711 915 610 996 q 815 701 812 835 l 623 701 q 569 799 618 763 q 441 834 519 834 q 319 801 366 834 q 273 713 273 768 q 310 641 273 669 q 433 593 348 613 z "},"ş":{"ha":731,"x_min":36,"x_max":695,"o":"m 345 461 l 486 431 q 647 358 598 405 q 695 228 695 311 q 621 66 695 130 q 422 -10 547 3 l 393 -79 q 486 -107 453 -79 q 519 -186 519 -135 q 475 -278 519 -245 q 355 -313 432 -312 q 260 -302 296 -313 l 260 -220 q 336 -230 288 -230 q 408 -193 408 -230 q 389 -163 408 -172 q 323 -155 370 -155 l 286 -155 l 286 -86 l 319 -11 q 118 63 193 -1 q 36 226 43 126 l 229 226 q 273 153 237 178 q 372 127 310 127 q 465 149 431 127 q 498 207 498 170 q 477 253 498 236 q 405 282 456 270 l 267 313 q 54 527 54 361 q 140 696 54 632 q 367 760 225 760 q 590 695 505 760 q 677 523 675 630 l 494 523 q 456 593 490 567 q 364 619 421 619 q 278 597 311 619 q 245 539 245 575 q 345 461 245 484 z "},"Š":{"ha":877,"x_min":45,"x_max":833,"o":"m 45 279 l 242 279 q 306 182 249 219 q 444 145 362 145 q 577 180 526 145 q 628 269 628 215 q 590 346 628 317 q 463 395 552 375 l 336 422 q 66 696 66 480 q 171 913 66 830 q 441 996 276 996 q 711 915 610 996 q 815 701 812 835 l 623 701 q 569 799 618 763 q 441 834 519 834 q 319 801 366 834 q 273 713 273 768 q 310 641 273 669 q 433 593 348 613 l 551 568 q 766 471 699 537 q 833 293 833 405 q 726 67 833 151 q 436 -17 618 -17 q 154 62 259 -17 q 45 279 50 141 m 366 1046 l 180 1262 l 331 1262 l 441 1128 l 446 1128 l 556 1262 l 707 1262 l 521 1046 l 366 1046 z "},"š":{"ha":731,"x_min":36,"x_max":695,"o":"m 442 850 l 294 850 l 113 1065 l 265 1065 l 366 938 l 370 938 l 471 1065 l 623 1065 l 442 850 m 54 527 q 140 696 54 632 q 367 760 225 760 q 590 695 505 760 q 677 523 675 630 l 494 523 q 456 593 490 567 q 364 619 421 619 q 278 597 311 619 q 245 539 245 575 q 345 461 245 484 l 486 431 q 647 358 598 405 q 695 228 695 311 q 604 53 695 119 q 366 -13 513 -13 q 132 52 220 -13 q 36 226 43 117 l 229 226 q 273 153 237 178 q 372 127 310 127 q 465 149 431 127 q 498 207 498 170 q 477 253 498 236 q 405 282 456 270 l 267 313 q 54 527 54 361 z "},"Ţ":{"ha":842,"x_min":33,"x_max":810,"o":"m 524 0 l 484 0 l 450 -79 q 543 -107 510 -79 q 576 -186 576 -135 q 532 -278 576 -245 q 412 -313 489 -312 q 317 -302 353 -313 l 317 -220 q 393 -230 345 -230 q 465 -193 465 -230 q 446 -163 465 -172 q 380 -155 427 -155 l 342 -155 l 342 -86 l 382 0 l 319 0 l 319 810 l 33 810 l 33 979 l 810 979 l 810 810 l 524 810 l 524 0 z "},"ţ":{"ha":503,"x_min":19,"x_max":456,"o":"m 456 597 l 318 597 l 318 234 q 407 149 318 149 q 456 152 436 149 l 456 5 q 361 -3 416 -3 l 355 -3 l 323 -79 q 416 -107 383 -79 q 449 -186 449 -135 q 406 -278 449 -245 q 286 -313 362 -312 q 191 -302 226 -313 l 191 -220 q 266 -230 218 -230 q 338 -193 338 -230 q 319 -163 338 -172 q 254 -155 300 -155 l 216 -155 l 216 -86 l 258 7 q 153 70 185 23 q 120 201 120 116 l 120 597 l 19 597 l 19 747 l 120 747 l 120 913 l 318 913 l 318 747 l 456 747 l 456 597 z "},"Ť":{"ha":842,"x_min":33,"x_max":810,"o":"m 344 1046 l 158 1262 l 309 1262 l 419 1128 l 423 1128 l 534 1262 l 684 1262 l 498 1046 l 344 1046 m 524 0 l 319 0 l 319 810 l 33 810 l 33 979 l 810 979 l 810 810 l 524 810 l 524 0 z "},"ť":{"ha":566,"x_min":19,"x_max":566,"o":"m 419 1183 l 566 1183 l 539 842 l 419 842 l 419 1183 m 120 913 l 318 913 l 318 747 l 456 747 l 456 597 l 318 597 l 318 234 q 407 149 318 149 q 456 152 436 149 l 456 5 q 361 -3 416 -3 q 176 45 231 -3 q 120 201 120 92 l 120 597 l 19 597 l 19 747 l 120 747 l 120 913 z "},"Ŧ":{"ha":880,"x_min":39,"x_max":817,"o":"m 817 810 l 530 810 l 530 543 l 734 543 l 734 399 l 530 399 l 530 0 l 326 0 l 326 399 l 146 399 l 146 543 l 326 543 l 326 810 l 39 810 l 39 979 l 817 979 l 817 810 z "},"ŧ":{"ha":537,"x_min":19,"x_max":475,"o":"m 475 334 l 318 334 l 318 234 q 407 149 318 149 q 456 152 436 149 l 456 5 q 361 -3 416 -3 q 176 45 231 -3 q 120 201 120 92 l 120 334 l 26 334 l 26 443 l 120 443 l 120 597 l 19 597 l 19 747 l 120 747 l 120 913 l 318 913 l 318 747 l 456 747 l 456 597 l 318 597 l 318 443 l 475 443 l 475 334 z "},"Ũ":{"ha":983,"x_min":81,"x_max":901,"o":"m 286 979 l 286 366 q 340 215 286 271 q 492 159 394 159 q 643 215 589 159 q 696 366 696 271 l 696 979 l 901 979 l 901 346 q 790 83 901 183 q 492 -17 678 -17 q 193 83 304 -17 q 81 346 81 183 l 81 979 l 286 979 m 587 1045 q 527 1060 555 1045 q 483 1091 499 1074 q 447 1123 467 1108 q 412 1137 428 1137 q 377 1115 389 1137 q 365 1057 366 1093 l 258 1057 q 298 1191 258 1142 q 404 1240 339 1240 q 454 1231 430 1240 q 494 1208 477 1221 q 524 1181 510 1195 q 553 1158 538 1168 q 581 1149 568 1149 q 625 1232 623 1149 l 732 1232 q 691 1096 732 1147 q 587 1045 650 1045 z "},"ũ":{"ha":832,"x_min":64,"x_max":765,"o":"m 765 747 l 765 0 l 574 0 l 574 135 l 570 135 q 480 27 541 64 q 335 -11 420 -11 q 138 64 212 -11 q 64 268 64 139 l 64 747 l 262 747 l 262 309 q 301 194 262 235 q 410 154 340 154 q 524 200 480 154 q 567 321 567 246 l 567 747 l 765 747 m 511 853 q 463 863 486 853 q 424 886 440 872 q 393 913 408 899 q 365 936 379 926 q 336 945 350 945 q 302 923 314 945 q 290 865 290 901 l 182 865 q 223 999 182 950 q 328 1048 264 1048 q 378 1039 355 1048 q 418 1016 402 1029 q 449 989 435 1002 q 478 966 463 976 q 505 957 492 957 q 549 1040 548 957 l 656 1040 q 615 904 656 955 q 511 853 574 853 z "},"Ū":{"ha":983,"x_min":81,"x_max":901,"o":"m 286 979 l 286 366 q 340 215 286 271 q 492 159 394 159 q 643 215 589 159 q 696 366 696 271 l 696 979 l 901 979 l 901 346 q 790 83 901 183 q 492 -17 678 -17 q 193 83 304 -17 q 81 346 81 183 l 81 979 l 286 979 m 726 1198 l 726 1101 l 257 1101 l 257 1198 l 726 1198 z "},"ū":{"ha":832,"x_min":64,"x_max":765,"o":"m 765 747 l 765 0 l 574 0 l 574 135 l 570 135 q 480 27 541 64 q 335 -11 420 -11 q 138 64 212 -11 q 64 268 64 139 l 64 747 l 262 747 l 262 309 q 301 194 262 235 q 410 154 340 154 q 524 200 480 154 q 567 321 567 246 l 567 747 l 765 747 m 642 977 l 642 880 l 189 880 l 189 977 l 642 977 z "},"Ŭ":{"ha":983,"x_min":81,"x_max":901,"o":"m 286 979 l 286 366 q 340 215 286 271 q 492 159 394 159 q 643 215 589 159 q 696 366 696 271 l 696 979 l 901 979 l 901 346 q 790 83 901 183 q 492 -17 678 -17 q 193 83 304 -17 q 81 346 81 183 l 81 979 l 286 979 m 252 1261 l 373 1261 q 407 1178 374 1211 q 492 1145 439 1145 q 576 1178 544 1145 q 610 1261 609 1211 l 731 1261 q 665 1107 730 1168 q 492 1046 600 1046 q 318 1107 383 1046 q 252 1261 254 1168 z "},"ŭ":{"ha":832,"x_min":64,"x_max":765,"o":"m 765 747 l 765 0 l 574 0 l 574 135 l 570 135 q 480 27 541 64 q 335 -11 420 -11 q 138 64 212 -11 q 64 268 64 139 l 64 747 l 262 747 l 262 309 q 301 194 262 235 q 410 154 340 154 q 524 200 480 154 q 567 321 567 246 l 567 747 l 765 747 m 172 1065 l 293 1065 q 328 980 294 1013 q 414 946 361 946 q 501 980 468 946 q 536 1065 534 1013 l 658 1065 q 591 908 656 970 q 414 846 525 846 q 239 908 304 846 q 172 1065 173 970 z "},"Ů":{"ha":983,"x_min":81,"x_max":901,"o":"m 492 1026 q 386 1069 431 1026 q 342 1173 342 1113 q 386 1277 342 1234 q 492 1320 431 1320 q 597 1277 553 1320 q 642 1173 642 1234 q 597 1069 642 1113 q 492 1026 553 1026 m 492 1105 q 541 1125 520 1105 q 561 1173 561 1145 q 541 1221 561 1201 q 492 1242 520 1242 q 443 1221 464 1242 q 422 1173 422 1201 q 443 1125 422 1145 q 492 1105 464 1105 m 286 979 l 286 366 q 340 215 286 271 q 492 159 394 159 q 643 215 589 159 q 696 366 696 271 l 696 979 l 901 979 l 901 346 q 790 83 901 183 q 492 -17 678 -17 q 193 83 304 -17 q 81 346 81 183 l 81 979 l 286 979 z "},"ů":{"ha":832,"x_min":64,"x_max":765,"o":"m 765 747 l 765 0 l 574 0 l 574 135 l 570 135 q 480 27 541 64 q 335 -11 420 -11 q 138 64 212 -11 q 64 268 64 139 l 64 747 l 262 747 l 262 309 q 301 194 262 235 q 410 154 340 154 q 524 200 480 154 q 567 321 567 246 l 567 747 l 765 747 m 415 821 q 310 864 354 821 q 265 968 265 907 q 310 1072 265 1028 q 415 1115 354 1115 q 521 1072 477 1115 q 565 968 565 1028 q 521 864 565 907 q 415 821 477 821 m 415 900 q 464 920 444 900 q 484 968 484 940 q 464 1016 484 996 q 415 1036 444 1036 q 367 1016 387 1036 q 346 968 346 996 q 367 920 346 940 q 415 900 387 900 z "},"Ű":{"ha":983,"x_min":81,"x_max":901,"o":"m 286 979 l 286 366 q 340 215 286 271 q 492 159 394 159 q 643 215 589 159 q 696 366 696 271 l 696 979 l 901 979 l 901 346 q 790 83 901 183 q 492 -17 678 -17 q 193 83 304 -17 q 81 346 81 183 l 81 979 l 286 979 m 699 1053 l 548 1053 l 705 1263 l 887 1263 l 699 1053 m 431 1053 l 280 1053 l 437 1263 l 619 1263 l 431 1053 z "},"ű":{"ha":832,"x_min":64,"x_max":765,"o":"m 466 857 l 594 1067 l 765 1067 l 607 857 l 466 857 m 214 857 l 343 1067 l 513 1067 l 355 857 l 214 857 m 765 747 l 765 0 l 574 0 l 574 135 l 570 135 q 480 27 541 64 q 335 -11 420 -11 q 138 64 212 -11 q 64 268 64 139 l 64 747 l 262 747 l 262 309 q 301 194 262 235 q 410 154 340 154 q 524 200 480 154 q 567 321 567 246 l 567 747 l 765 747 z "},"Ų":{"ha":983,"x_min":81,"x_max":901,"o":"m 643 -309 q 520 -270 567 -309 q 473 -168 473 -231 q 557 -11 473 -77 l 557 -9 q 492 -17 532 -17 q 194 82 306 -17 q 81 346 81 182 l 81 979 l 286 979 l 286 366 q 341 214 286 269 q 492 159 396 159 q 642 214 587 159 q 696 366 696 269 l 696 979 l 901 979 l 901 346 q 889 244 901 291 q 854 162 878 198 q 809 102 831 127 q 754 51 786 77 q 718 23 741 41 q 683 -5 695 5 q 653 -31 670 -15 q 628 -60 637 -47 q 613 -90 620 -73 q 607 -125 607 -107 q 629 -176 607 -156 q 687 -195 652 -195 q 734 -191 710 -195 l 734 -296 q 643 -309 696 -309 z "},"ų":{"ha":832,"x_min":64,"x_max":765,"o":"m 765 -296 q 682 -307 732 -307 q 561 -266 608 -307 q 514 -157 514 -224 q 623 8 514 -56 l 574 8 l 574 135 l 570 135 q 480 27 541 64 q 335 -11 420 -11 q 138 65 212 -11 q 64 268 64 141 l 64 747 l 262 747 l 262 309 q 301 195 262 235 q 410 154 340 154 q 524 200 480 154 q 567 321 567 247 l 567 747 l 765 747 l 765 7 l 745 7 q 648 -120 648 -43 q 669 -174 648 -153 q 726 -194 691 -194 q 765 -191 745 -194 l 765 -296 z "},"Ŵ":{"ha":1341,"x_min":29,"x_max":1312,"o":"m 593 1262 l 748 1262 l 934 1046 l 783 1046 l 673 1180 l 669 1180 l 558 1046 l 408 1046 l 593 1262 m 667 669 l 481 0 l 288 0 l 29 979 l 241 979 l 395 270 l 401 270 l 584 979 l 757 979 l 940 270 l 945 270 l 1100 979 l 1312 979 l 1053 0 l 859 0 l 673 669 l 667 669 z "},"ŵ":{"ha":1122,"x_min":14,"x_max":1108,"o":"m 635 1065 l 815 850 l 664 850 l 563 978 l 558 978 l 458 850 l 306 850 l 486 1065 l 635 1065 m 1108 747 l 909 0 l 699 0 l 562 532 l 557 532 l 421 0 l 213 0 l 14 747 l 213 747 l 328 189 l 332 189 l 467 747 l 657 747 l 793 189 l 797 189 l 913 747 l 1108 747 z "},"Ŷ":{"ha":924,"x_min":19,"x_max":905,"o":"m 564 0 l 359 0 l 359 366 l 19 979 l 242 979 l 461 561 l 466 561 l 686 979 l 905 979 l 564 366 l 564 0 m 385 1262 l 539 1262 l 725 1046 l 574 1046 l 464 1180 l 460 1180 l 349 1046 l 199 1046 l 385 1262 z "},"ŷ":{"ha":770,"x_min":9,"x_max":762,"o":"m 162 -273 q 87 -270 102 -273 l 87 -117 q 132 -119 97 -119 q 220 -98 188 -119 q 264 -33 252 -77 l 271 -5 l 9 747 l 226 747 l 387 161 l 391 161 l 553 747 l 762 747 l 504 -15 q 379 -215 456 -157 q 162 -273 302 -273 m 460 1065 l 640 850 l 489 850 l 388 978 l 383 978 l 283 850 l 131 850 l 311 1065 l 460 1065 z "},"Ÿ":{"ha":924,"x_min":19,"x_max":905,"o":"m 564 0 l 359 0 l 359 366 l 19 979 l 242 979 l 461 561 l 466 561 l 686 979 l 905 979 l 564 366 l 564 0 m 385 1085 q 372 1072 385 1085 q 320 1059 359 1059 q 255 1085 281 1059 q 229 1147 229 1111 q 255 1210 229 1184 q 320 1236 281 1236 q 385 1210 359 1236 q 412 1147 412 1184 q 385 1085 412 1111 m 669 1085 q 656 1072 669 1085 q 604 1059 643 1059 q 539 1085 566 1059 q 513 1147 513 1111 q 539 1210 513 1184 q 604 1236 566 1236 q 669 1210 643 1236 q 696 1147 696 1184 q 669 1085 696 1111 z "},"Ź":{"ha":876,"x_min":60,"x_max":816,"o":"m 512 1053 l 357 1053 l 515 1263 l 700 1263 l 512 1053 m 60 0 l 60 134 l 557 804 l 557 810 l 72 810 l 72 979 l 802 979 l 802 846 l 307 174 l 307 170 l 816 170 l 816 0 l 60 0 z "},"ź":{"ha":718,"x_min":53,"x_max":666,"o":"m 435 857 l 279 857 l 429 1067 l 614 1067 l 435 857 m 53 0 l 53 114 l 428 591 l 428 595 l 58 595 l 58 747 l 657 747 l 657 621 l 304 156 l 304 152 l 666 152 l 666 0 l 53 0 z "},"Ż":{"ha":876,"x_min":60,"x_max":816,"o":"m 510 1088 q 495 1073 510 1088 q 438 1059 481 1059 q 366 1088 395 1059 q 337 1160 337 1118 q 366 1231 337 1202 q 438 1260 395 1260 q 510 1231 481 1260 q 539 1160 539 1202 q 510 1088 539 1118 m 60 0 l 60 134 l 557 804 l 557 810 l 72 810 l 72 979 l 802 979 l 802 846 l 307 174 l 307 170 l 816 170 l 816 0 l 60 0 z "},"ż":{"ha":718,"x_min":53,"x_max":666,"o":"m 431 886 q 416 871 431 886 q 359 857 401 857 q 286 886 316 857 q 256 957 256 916 q 286 1028 256 999 q 359 1058 316 1058 q 431 1028 401 1058 q 460 957 460 999 q 431 886 460 916 m 53 0 l 53 114 l 428 591 l 428 595 l 58 595 l 58 747 l 657 747 l 657 621 l 304 156 l 304 152 l 666 152 l 666 0 l 53 0 z "},"Ž":{"ha":876,"x_min":60,"x_max":816,"o":"m 60 0 l 60 134 l 557 804 l 557 810 l 72 810 l 72 979 l 802 979 l 802 846 l 307 174 l 307 170 l 816 170 l 816 0 l 60 0 m 361 1046 l 175 1262 l 326 1262 l 436 1128 l 440 1128 l 551 1262 l 701 1262 l 515 1046 l 361 1046 z "},"ž":{"ha":718,"x_min":53,"x_max":666,"o":"m 433 850 l 285 850 l 104 1065 l 256 1065 l 357 938 l 361 938 l 463 1065 l 614 1065 l 433 850 m 53 0 l 53 114 l 428 591 l 428 595 l 58 595 l 58 747 l 657 747 l 657 621 l 304 156 l 304 152 l 666 152 l 666 0 l 53 0 z "},"ƒ":{"ha":899,"x_min":45,"x_max":854,"o":"m 854 966 l 854 807 q 740 831 804 831 q 633 799 671 831 q 584 697 595 766 l 568 591 l 805 591 l 805 449 l 546 449 l 517 260 q 414 51 494 119 q 192 -16 334 -16 q 45 11 101 -16 l 45 173 q 167 144 99 144 q 269 176 235 144 q 315 283 304 209 l 341 449 l 125 449 l 125 591 l 363 591 l 382 718 q 486 924 404 857 q 717 990 568 990 q 792 983 753 990 q 854 966 831 977 z "},"Ơ":{"ha":1080,"x_min":51,"x_max":1086,"o":"m 714 734 q 679 779 714 734 q 523 825 643 825 q 331 734 403 825 q 260 489 260 643 q 331 245 260 336 q 523 155 402 155 q 714 245 643 155 q 785 489 785 336 q 714 734 785 643 m 995 486 q 867 119 995 256 q 522 -17 739 -17 q 178 120 305 -17 q 51 490 51 257 q 177 859 51 722 q 518 996 303 996 q 620 986 572 996 q 700 962 667 976 q 761 933 733 947 q 816 909 789 919 q 866 899 843 899 q 929 986 929 899 l 929 1109 l 1086 1109 l 1086 926 q 1055 816 1086 857 q 971 775 1023 775 q 930 782 943 775 l 927 779 q 995 486 995 654 z "},"ơ":{"ha":899,"x_min":39,"x_max":920,"o":"m 284 201 q 307 171 284 201 q 408 140 329 140 q 530 201 486 140 q 574 374 574 263 q 530 546 574 484 q 408 608 486 608 q 285 545 330 608 q 240 374 240 483 q 284 201 240 263 m 776 370 q 677 90 776 192 q 406 -13 578 -13 q 138 90 237 -13 q 39 370 39 193 q 137 654 39 548 q 399 760 235 760 q 512 744 460 760 q 595 709 565 728 q 655 674 625 690 q 708 659 686 659 q 755 680 740 659 q 770 746 770 701 l 770 844 l 920 844 l 920 707 q 878 575 920 625 q 764 526 836 526 q 752 528 760 526 q 750 526 751 528 q 748 524 749 524 q 776 370 776 453 z "},"Ư":{"ha":1124,"x_min":81,"x_max":1156,"o":"m 903 942 q 957 931 931 927 q 994 952 983 933 q 1004 1015 1004 972 l 1004 1114 l 1156 1114 l 1156 976 q 1107 838 1156 888 q 975 788 1059 788 q 934 792 958 788 q 901 803 909 797 l 901 346 q 789 82 901 182 q 492 -17 677 -17 q 194 82 306 -17 q 81 346 81 182 l 81 979 l 286 979 l 286 366 q 341 215 286 270 q 492 159 396 159 q 642 214 587 159 q 696 366 696 269 l 696 979 l 903 979 l 903 942 z "},"ư":{"ha":994,"x_min":64,"x_max":1015,"o":"m 570 135 q 480 27 541 64 q 335 -11 420 -11 q 138 65 212 -11 q 64 268 64 141 l 64 747 l 262 747 l 262 309 q 301 195 262 235 q 410 154 340 154 q 524 200 480 154 q 567 321 567 247 l 567 747 l 765 747 l 765 713 q 818 707 795 701 q 853 728 843 709 q 864 788 864 746 l 864 888 l 1015 888 l 1015 752 q 970 612 1015 661 q 842 563 925 563 q 800 567 827 563 q 765 576 773 570 l 765 0 l 574 0 l 574 135 l 570 135 z "},"Ǆ":{"ha":1851,"x_min":81,"x_max":1791,"o":"m 81 979 l 458 979 q 802 852 680 979 q 925 493 925 725 q 802 130 925 260 q 458 0 679 0 l 81 0 l 81 979 m 286 810 l 286 170 l 434 170 q 644 252 572 170 q 716 492 716 334 q 643 728 716 646 q 434 810 570 810 l 286 810 m 1036 0 l 1036 134 l 1533 804 l 1533 810 l 1047 810 l 1047 979 l 1777 979 l 1777 846 l 1282 174 l 1282 170 l 1791 170 l 1791 0 l 1036 0 m 1336 1046 l 1150 1262 l 1301 1262 l 1411 1128 l 1415 1128 l 1526 1262 l 1676 1262 l 1491 1046 l 1336 1046 z "},"ǅ":{"ha":1693,"x_min":81,"x_max":1641,"o":"m 81 979 l 458 979 q 802 852 680 979 q 925 493 925 725 q 802 130 925 260 q 458 0 679 0 l 81 0 l 81 979 m 286 810 l 286 170 l 434 170 q 644 252 572 170 q 716 492 716 334 q 643 728 716 646 q 434 810 570 810 l 286 810 m 1409 850 l 1260 850 l 1080 1065 l 1232 1065 l 1332 938 l 1337 938 l 1438 1065 l 1589 1065 l 1409 850 m 1028 0 l 1028 114 l 1403 591 l 1403 595 l 1034 595 l 1034 747 l 1632 747 l 1632 621 l 1279 156 l 1279 152 l 1641 152 l 1641 0 l 1028 0 z "},"ǆ":{"ha":1565,"x_min":39,"x_max":1513,"o":"m 345 -9 q 122 95 205 -9 q 39 374 39 198 q 123 652 39 549 q 346 755 206 755 q 486 719 426 755 q 574 619 546 682 l 578 619 l 578 1025 l 777 1025 l 777 0 l 581 0 l 581 127 l 578 127 q 488 28 550 65 q 345 -9 427 -9 m 411 595 q 288 535 334 595 q 242 374 242 475 q 288 211 242 271 q 411 151 334 151 q 534 212 488 151 q 580 373 580 272 q 534 535 580 474 q 411 595 488 595 m 1280 850 l 1132 850 l 951 1065 l 1103 1065 l 1204 938 l 1208 938 l 1310 1065 l 1461 1065 l 1280 850 m 900 0 l 900 114 l 1275 591 l 1275 595 l 905 595 l 905 747 l 1504 747 l 1504 621 l 1151 156 l 1151 152 l 1513 152 l 1513 0 l 900 0 z "},"Ǉ":{"ha":1529,"x_min":81,"x_max":1440,"o":"m 775 288 l 974 288 q 1011 193 975 229 q 1104 157 1046 157 q 1202 195 1168 157 q 1236 308 1236 234 l 1236 979 l 1440 979 l 1440 307 q 1352 65 1440 151 q 1106 -20 1264 -20 q 866 64 956 -20 q 775 288 775 148 m 714 170 l 714 0 l 81 0 l 81 979 l 286 979 l 286 170 l 714 170 z "},"ǈ":{"ha":1093,"x_min":81,"x_max":1031,"o":"m 1023 747 l 1023 -25 q 956 -197 1023 -139 q 758 -255 888 -255 q 705 -253 717 -255 l 705 -106 q 730 -107 709 -107 q 803 -87 781 -107 q 825 -20 825 -67 l 825 747 l 1023 747 m 924 828 q 848 858 880 828 q 817 932 817 888 q 848 1005 817 976 q 924 1035 880 1035 q 1000 1005 968 1035 q 1031 932 1031 976 q 1000 858 1031 888 q 924 828 968 828 m 714 170 l 714 0 l 81 0 l 81 979 l 286 979 l 286 170 l 714 170 z "},"ǉ":{"ha":682,"x_min":73,"x_max":619,"o":"m 611 747 l 611 -25 q 544 -197 611 -139 q 346 -255 477 -255 q 293 -253 305 -255 l 293 -106 q 318 -107 297 -107 q 391 -87 370 -107 q 413 -20 413 -67 l 413 747 l 611 747 m 512 828 q 437 858 468 828 q 406 932 406 888 q 437 1005 406 976 q 512 1035 468 1035 q 588 1005 557 1035 q 619 932 619 976 q 588 858 619 888 q 512 828 557 828 m 73 0 l 73 1025 l 271 1025 l 271 0 l 73 0 z "},"Ǌ":{"ha":1767,"x_min":81,"x_max":1678,"o":"m 1013 288 l 1212 288 q 1249 193 1213 229 q 1342 157 1284 157 q 1440 195 1407 157 q 1474 308 1474 234 l 1474 979 l 1678 979 l 1678 307 q 1590 65 1678 151 q 1344 -20 1502 -20 q 1104 64 1194 -20 q 1013 288 1013 148 m 277 0 l 81 0 l 81 979 l 252 979 l 709 341 l 715 341 l 715 979 l 911 979 l 911 0 l 741 0 l 283 641 l 277 641 l 277 0 z "},"ǋ":{"ha":1331,"x_min":81,"x_max":1269,"o":"m 1261 747 l 1261 -25 q 1194 -197 1261 -139 q 996 -255 1126 -255 q 943 -253 955 -255 l 943 -106 q 968 -107 947 -107 q 1041 -87 1019 -107 q 1063 -20 1063 -67 l 1063 747 l 1261 747 m 1162 828 q 1086 858 1118 828 q 1055 932 1055 888 q 1086 1005 1055 976 q 1162 1035 1118 1035 q 1238 1005 1206 1035 q 1269 932 1269 976 q 1238 858 1269 888 q 1162 828 1206 828 m 277 0 l 81 0 l 81 979 l 252 979 l 709 341 l 715 341 l 715 979 l 911 979 l 911 0 l 741 0 l 283 641 l 277 641 l 277 0 z "},"ǌ":{"ha":1171,"x_min":67,"x_max":1109,"o":"m 1101 747 l 1101 -25 q 1034 -197 1101 -139 q 836 -255 966 -255 q 783 -253 795 -255 l 783 -106 q 808 -107 787 -107 q 881 -87 859 -107 q 903 -20 903 -67 l 903 747 l 1101 747 m 1002 828 q 926 858 958 828 q 895 932 895 888 q 926 1005 895 976 q 1002 1035 958 1035 q 1078 1005 1046 1035 q 1109 932 1109 976 q 1078 858 1109 888 q 1002 828 1046 828 m 67 0 l 67 747 l 258 747 l 258 613 l 262 613 q 503 758 328 758 q 697 684 627 758 q 768 479 768 610 l 768 0 l 570 0 l 570 437 q 532 552 570 512 q 424 593 494 593 q 309 547 353 593 q 265 426 265 500 l 265 0 l 67 0 z "},"Ǎ":{"ha":958,"x_min":19,"x_max":940,"o":"m 722 0 l 648 237 l 304 237 l 229 0 l 19 0 l 359 979 l 600 979 l 940 0 l 722 0 m 473 791 l 348 391 l 604 391 l 478 791 l 473 791 m 402 1046 l 216 1262 l 367 1262 l 477 1128 l 481 1128 l 592 1262 l 743 1262 l 557 1046 l 402 1046 z "},"ǎ":{"ha":778,"x_min":37,"x_max":712,"o":"m 353 136 q 470 175 422 136 q 517 274 517 214 l 517 329 l 361 318 q 267 290 299 314 q 234 225 234 267 q 266 160 234 184 q 353 136 298 136 m 288 -9 q 108 54 179 -9 q 37 215 37 116 q 112 373 37 316 q 331 439 187 430 l 517 450 l 517 500 q 483 582 517 553 q 387 611 448 611 q 298 586 334 611 q 255 519 262 560 l 74 519 q 166 693 78 626 q 395 760 255 760 q 625 692 538 760 q 712 512 712 624 l 712 0 l 521 0 l 521 115 l 517 115 q 424 24 487 58 q 288 -9 361 -9 m 466 850 l 317 850 l 137 1065 l 289 1065 l 389 938 l 394 938 l 495 1065 l 646 1065 l 466 850 z "},"Ǐ":{"ha":368,"x_min":-79,"x_max":447,"o":"m 286 0 l 81 0 l 81 979 l 286 979 l 286 0 m 106 1046 l -79 1262 l 71 1262 l 182 1128 l 186 1128 l 296 1262 l 447 1262 l 261 1046 l 106 1046 z "},"ǐ":{"ha":339,"x_min":-85,"x_max":424,"o":"m 243 850 l 95 850 l -85 1065 l 66 1065 l 167 938 l 172 938 l 273 1065 l 424 1065 l 243 850 m 71 0 l 71 747 l 269 747 l 269 0 l 71 0 z "},"Ǒ":{"ha":1045,"x_min":51,"x_max":995,"o":"m 446 1046 l 260 1262 l 410 1262 l 521 1128 l 525 1128 l 635 1262 l 786 1262 l 600 1046 l 446 1046 m 178 859 q 242 927 178 859 q 523 996 305 996 q 868 859 741 996 q 995 489 995 723 q 867 119 995 256 q 523 -17 740 -17 q 178 119 305 -17 q 51 489 51 256 q 178 859 51 723 m 714 734 q 679 779 714 734 q 523 825 643 825 q 331 734 403 825 q 260 489 260 643 q 331 245 260 336 q 523 155 402 155 q 714 245 643 155 q 785 489 785 336 q 714 734 785 643 z "},"ǒ":{"ha":814,"x_min":39,"x_max":776,"o":"m 481 850 l 333 850 l 153 1065 l 304 1065 l 405 938 l 410 938 l 511 1065 l 662 1065 l 481 850 m 408 -13 q 138 90 237 -13 q 39 374 39 193 q 139 656 39 552 q 408 760 239 760 q 676 656 577 760 q 776 374 776 553 q 677 90 776 193 q 408 -13 578 -13 m 284 201 q 307 170 284 201 q 408 140 329 140 q 530 201 486 140 q 574 374 574 262 q 530 546 574 484 q 408 608 486 608 q 284 546 329 608 q 240 374 240 484 q 284 201 240 262 z "},"Ǔ":{"ha":983,"x_min":81,"x_max":901,"o":"m 414 1046 l 229 1262 l 379 1262 l 490 1128 l 494 1128 l 604 1262 l 755 1262 l 569 1046 l 414 1046 m 286 979 l 286 366 q 340 215 286 271 q 492 159 394 159 q 643 215 589 159 q 696 366 696 271 l 696 979 l 901 979 l 901 346 q 790 83 901 183 q 492 -17 678 -17 q 193 83 304 -17 q 81 346 81 183 l 81 979 l 286 979 z "},"ǔ":{"ha":832,"x_min":64,"x_max":765,"o":"m 489 850 l 340 850 l 160 1065 l 312 1065 l 412 938 l 417 938 l 518 1065 l 669 1065 l 489 850 m 765 747 l 765 0 l 574 0 l 574 135 l 570 135 q 480 27 541 64 q 335 -11 420 -11 q 138 64 212 -11 q 64 268 64 139 l 64 747 l 262 747 l 262 309 q 301 194 262 235 q 410 154 340 154 q 524 200 480 154 q 567 321 567 246 l 567 747 l 765 747 z "},"Ǖ":{"ha":983,"x_min":81,"x_max":901,"o":"m 286 979 l 286 366 q 340 215 286 271 q 492 159 394 159 q 643 215 589 159 q 696 366 696 271 l 696 979 l 901 979 l 901 346 q 790 83 901 183 q 492 -17 678 -17 q 193 83 304 -17 q 81 346 81 183 l 81 979 l 286 979 m 353 1230 q 415 1205 390 1230 q 440 1145 440 1180 q 415 1085 440 1110 q 353 1061 390 1061 q 291 1085 316 1061 q 266 1145 266 1110 q 291 1205 266 1181 q 353 1230 316 1230 m 257 1406 l 726 1406 l 726 1309 l 257 1309 l 257 1406 m 630 1230 q 692 1205 667 1230 q 718 1145 718 1181 q 692 1085 718 1110 q 630 1061 667 1061 q 568 1085 593 1061 q 543 1145 543 1110 q 568 1205 543 1180 q 630 1230 593 1230 z "},"ǖ":{"ha":832,"x_min":64,"x_max":765,"o":"m 765 747 l 765 0 l 574 0 l 574 135 l 570 135 q 480 27 541 64 q 335 -11 420 -11 q 138 64 212 -11 q 64 268 64 139 l 64 747 l 262 747 l 262 309 q 301 194 262 235 q 410 154 340 154 q 524 200 480 154 q 567 321 567 246 l 567 747 l 765 747 m 339 878 q 327 866 339 878 q 277 853 314 853 q 216 878 241 853 q 191 937 191 903 q 216 997 191 972 q 277 1021 241 1021 q 339 997 314 1021 q 364 937 364 972 q 339 878 364 903 m 614 878 q 602 866 614 878 q 553 853 589 853 q 491 878 516 853 q 466 937 466 903 q 491 997 466 972 q 553 1021 516 1021 q 614 997 589 1021 q 640 937 640 972 q 614 878 640 903 m 642 1222 l 642 1125 l 189 1125 l 189 1222 l 642 1222 z "},"Ǘ":{"ha":983,"x_min":81,"x_max":901,"o":"m 416 1280 l 547 1444 l 720 1444 l 559 1280 l 416 1280 m 353 1061 q 291 1085 316 1061 q 266 1145 266 1110 q 291 1205 266 1181 q 353 1230 316 1230 q 415 1205 390 1230 q 440 1145 440 1180 q 415 1085 440 1110 q 353 1061 390 1061 m 630 1061 q 568 1085 593 1061 q 543 1145 543 1110 q 568 1205 543 1180 q 630 1230 593 1230 q 692 1205 667 1230 q 718 1145 718 1181 q 692 1085 718 1110 q 630 1061 667 1061 m 286 979 l 286 366 q 340 215 286 271 q 492 159 394 159 q 643 215 589 159 q 696 366 696 271 l 696 979 l 901 979 l 901 346 q 790 83 901 183 q 492 -17 678 -17 q 193 83 304 -17 q 81 346 81 183 l 81 979 l 286 979 z "},"ǘ":{"ha":832,"x_min":64,"x_max":765,"o":"m 341 1100 l 465 1282 l 637 1282 l 490 1100 l 341 1100 m 338 880 q 325 867 338 880 q 273 854 312 854 q 208 880 235 854 q 182 943 182 906 q 208 1005 182 979 q 273 1031 235 1031 q 338 1005 312 1031 q 365 943 365 979 q 338 880 365 906 m 623 880 q 609 867 623 880 q 557 854 596 854 q 492 880 519 854 q 466 943 466 906 q 492 1005 466 979 q 557 1031 519 1031 q 623 1005 596 1031 q 649 943 649 979 q 623 880 649 906 m 765 747 l 765 0 l 574 0 l 574 135 l 570 135 q 480 27 541 64 q 335 -11 420 -11 q 138 64 212 -11 q 64 268 64 139 l 64 747 l 262 747 l 262 309 q 301 194 262 235 q 410 154 340 154 q 524 200 480 154 q 567 321 567 246 l 567 747 l 765 747 z "},"Ǚ":{"ha":983,"x_min":81,"x_max":901,"o":"m 417 1280 l 243 1453 l 395 1453 l 486 1360 l 498 1360 l 588 1453 l 741 1453 l 566 1280 l 417 1280 m 353 1230 q 415 1205 390 1230 q 440 1145 440 1180 q 415 1085 440 1110 q 353 1061 390 1061 q 291 1085 316 1061 q 266 1145 266 1110 q 291 1205 266 1181 q 353 1230 316 1230 m 630 1230 q 692 1205 667 1230 q 718 1145 718 1181 q 692 1085 718 1110 q 630 1061 667 1061 q 568 1085 593 1061 q 543 1145 543 1110 q 568 1205 543 1180 q 630 1230 593 1230 m 286 979 l 286 366 q 340 215 286 271 q 492 159 394 159 q 643 215 589 159 q 696 366 696 271 l 696 979 l 901 979 l 901 346 q 790 83 901 183 q 492 -17 678 -17 q 193 83 304 -17 q 81 346 81 183 l 81 979 l 286 979 z "},"ǚ":{"ha":832,"x_min":64,"x_max":765,"o":"m 340 879 q 327 866 340 879 q 277 853 315 853 q 214 879 240 853 q 189 939 189 904 q 214 1000 189 975 q 277 1025 240 1025 q 340 1000 315 1025 q 366 939 366 975 q 340 879 366 904 m 553 853 q 490 879 516 853 q 465 939 465 904 q 490 1000 465 975 q 553 1025 515 1025 q 616 1000 590 1025 q 642 939 642 975 q 616 879 642 904 q 553 853 590 853 m 497 1087 l 333 1087 l 158 1289 l 309 1289 l 412 1166 l 418 1166 l 522 1289 l 672 1289 l 497 1087 m 765 747 l 765 0 l 574 0 l 574 135 l 570 135 q 480 27 541 64 q 335 -11 420 -11 q 138 64 212 -11 q 64 268 64 139 l 64 747 l 262 747 l 262 309 q 301 194 262 235 q 410 154 340 154 q 524 200 480 154 q 567 321 567 246 l 567 747 l 765 747 z "},"Ǜ":{"ha":983,"x_min":81,"x_max":901,"o":"m 568 1280 l 425 1280 l 264 1444 l 436 1444 l 568 1280 m 353 1061 q 291 1085 316 1061 q 266 1145 266 1110 q 291 1205 266 1181 q 353 1230 316 1230 q 415 1205 390 1230 q 440 1145 440 1180 q 415 1085 440 1110 q 353 1061 390 1061 m 630 1061 q 568 1085 593 1061 q 543 1145 543 1110 q 568 1205 543 1180 q 630 1230 593 1230 q 692 1205 667 1230 q 718 1145 718 1181 q 692 1085 718 1110 q 630 1061 667 1061 m 286 979 l 286 366 q 340 215 286 271 q 492 159 394 159 q 643 215 589 159 q 696 366 696 271 l 696 979 l 901 979 l 901 346 q 790 83 901 183 q 492 -17 678 -17 q 193 83 304 -17 q 81 346 81 183 l 81 979 l 286 979 z "},"ǜ":{"ha":832,"x_min":64,"x_max":765,"o":"m 492 1108 l 345 1108 l 195 1289 l 375 1289 l 492 1108 m 338 880 q 325 867 338 880 q 273 854 312 854 q 208 880 235 854 q 182 943 182 906 q 208 1005 182 979 q 273 1031 235 1031 q 338 1005 312 1031 q 365 943 365 979 q 338 880 365 906 m 623 880 q 609 867 623 880 q 557 854 596 854 q 492 880 519 854 q 466 943 466 906 q 492 1005 466 979 q 557 1031 519 1031 q 623 1005 596 1031 q 649 943 649 979 q 623 880 649 906 m 765 747 l 765 0 l 574 0 l 574 135 l 570 135 q 480 27 541 64 q 335 -11 420 -11 q 138 64 212 -11 q 64 268 64 139 l 64 747 l 262 747 l 262 309 q 301 194 262 235 q 410 154 340 154 q 524 200 480 154 q 567 321 567 246 l 567 747 l 765 747 z "},"Ǟ":{"ha":958,"x_min":19,"x_max":940,"o":"m 722 0 l 648 237 l 304 237 l 229 0 l 19 0 l 359 979 l 600 979 l 940 0 l 722 0 m 473 791 l 348 391 l 604 391 l 478 791 l 473 791 m 341 1230 q 403 1205 378 1230 q 428 1145 428 1180 q 403 1085 428 1110 q 341 1061 378 1061 q 279 1085 304 1061 q 254 1145 254 1110 q 279 1205 254 1181 q 341 1230 304 1230 m 245 1406 l 714 1406 l 714 1309 l 245 1309 l 245 1406 m 618 1230 q 680 1205 655 1230 q 705 1145 705 1181 q 680 1085 705 1110 q 618 1061 655 1061 q 556 1085 581 1061 q 531 1145 531 1110 q 556 1205 531 1180 q 618 1230 581 1230 z "},"ǟ":{"ha":778,"x_min":37,"x_max":712,"o":"m 353 136 q 470 175 422 136 q 517 274 517 214 l 517 329 l 361 318 q 267 290 299 314 q 234 225 234 267 q 266 160 234 184 q 353 136 298 136 m 288 -9 q 108 54 179 -9 q 37 215 37 116 q 112 373 37 316 q 331 439 187 430 l 517 450 l 517 500 q 483 582 517 553 q 387 611 448 611 q 298 586 334 611 q 255 519 262 560 l 74 519 q 166 693 78 626 q 395 760 255 760 q 625 692 538 760 q 712 512 712 624 l 712 0 l 521 0 l 521 115 l 517 115 q 424 24 487 58 q 288 -9 361 -9 m 316 878 q 303 866 316 878 q 254 853 291 853 q 193 878 218 853 q 168 937 168 903 q 193 997 168 972 q 254 1021 218 1021 q 316 997 291 1021 q 341 937 341 972 q 316 878 341 903 m 591 878 q 579 866 591 878 q 530 853 566 853 q 468 878 493 853 q 443 937 443 903 q 468 997 443 972 q 530 1021 493 1021 q 591 997 566 1021 q 616 937 616 972 q 591 878 616 903 m 619 1222 l 619 1125 l 165 1125 l 165 1222 l 619 1222 z "},"Ǡ":{"ha":958,"x_min":19,"x_max":940,"o":"m 722 0 l 648 237 l 304 237 l 229 0 l 19 0 l 359 979 l 600 979 l 940 0 l 722 0 m 473 791 l 348 391 l 604 391 l 478 791 l 473 791 m 546 1081 q 533 1068 546 1081 q 479 1055 519 1055 q 413 1081 439 1055 q 386 1145 386 1107 q 413 1209 386 1183 q 479 1235 439 1235 q 546 1209 519 1235 q 573 1145 573 1183 q 546 1081 573 1107 m 714 1406 l 714 1309 l 245 1309 l 245 1406 l 714 1406 z "},"ǡ":{"ha":778,"x_min":37,"x_max":712,"o":"m 353 136 q 470 175 422 136 q 517 274 517 214 l 517 329 l 361 318 q 267 290 299 314 q 234 225 234 267 q 266 160 234 184 q 353 136 298 136 m 288 -9 q 108 54 179 -9 q 37 215 37 116 q 112 373 37 316 q 331 439 187 430 l 517 450 l 517 500 q 483 582 517 553 q 387 611 448 611 q 298 586 334 611 q 255 519 262 560 l 74 519 q 166 693 78 626 q 395 760 255 760 q 625 692 538 760 q 712 512 712 624 l 712 0 l 521 0 l 521 115 l 517 115 q 424 24 487 58 q 288 -9 361 -9 m 464 878 q 449 864 464 878 q 392 849 434 849 q 320 878 350 849 q 290 949 290 907 q 320 1020 290 990 q 392 1049 350 1049 q 464 1020 434 1049 q 494 949 494 990 q 464 878 494 907 m 619 1225 l 619 1128 l 165 1128 l 165 1225 l 619 1225 z "},"Ǣ":{"ha":1383,"x_min":19,"x_max":1296,"o":"m 563 821 l 390 406 l 655 406 l 655 821 l 563 821 m 655 0 l 655 253 l 330 253 l 223 0 l 19 0 l 435 979 l 1296 979 l 1296 810 l 842 810 l 842 570 l 1271 570 l 1271 413 l 842 413 l 842 169 l 1296 169 l 1296 0 l 655 0 m 1217 1198 l 1217 1101 l 747 1101 l 747 1198 l 1217 1198 z "},"ǣ":{"ha":1251,"x_min":37,"x_max":1211,"o":"m 872 -13 q 707 24 779 -13 q 598 127 634 62 l 592 127 q 317 -9 510 -9 q 114 53 191 -9 q 37 214 37 114 q 112 372 37 315 q 330 438 187 430 l 517 448 l 517 494 q 481 578 517 546 q 385 611 444 611 q 293 586 328 611 q 252 519 257 561 l 71 519 q 161 693 76 627 q 380 760 246 760 q 531 729 468 760 q 625 646 595 699 l 631 646 q 730 730 669 701 q 870 760 791 760 q 1119 659 1026 760 q 1211 389 1211 558 l 1211 328 l 702 328 l 702 315 q 749 184 702 234 q 875 135 797 135 q 969 159 930 135 q 1023 228 1008 184 l 1205 228 q 1098 53 1188 119 q 872 -13 1007 -13 m 976 568 q 955 590 976 568 q 866 612 934 612 q 754 567 798 612 q 704 450 709 523 l 1020 450 q 976 568 1017 524 m 349 136 q 469 176 420 136 q 517 274 517 216 l 517 327 l 359 317 q 267 290 299 314 q 234 225 234 266 q 265 160 234 184 q 349 136 296 136 m 850 977 l 850 880 l 397 880 l 397 977 l 850 977 z "},"Ǧ":{"ha":1010,"x_min":51,"x_max":956,"o":"m 432 1046 l 246 1262 l 397 1262 l 507 1128 l 511 1128 l 622 1262 l 772 1262 l 587 1046 l 432 1046 m 956 411 q 841 97 956 211 q 522 -17 726 -17 q 177 119 302 -17 q 51 492 51 254 q 176 861 51 727 q 517 996 301 996 q 807 903 688 996 q 947 663 926 811 l 742 663 q 660 783 720 739 q 518 826 601 826 q 328 739 397 826 q 260 495 260 651 q 331 245 260 336 q 526 153 403 153 q 689 210 626 153 q 756 357 753 266 l 757 372 l 544 372 l 544 522 l 956 522 l 956 411 z "},"ǧ":{"ha":844,"x_min":39,"x_max":777,"o":"m 487 850 l 338 850 l 158 1065 l 310 1065 l 410 938 l 415 938 l 516 1065 l 667 1065 l 487 850 m 287 216 q 310 187 287 216 q 410 158 332 158 q 533 216 487 158 q 579 374 579 275 q 533 535 579 475 q 410 595 487 595 q 288 536 333 595 q 242 375 242 476 q 287 216 242 274 m 408 -273 q 165 -213 260 -273 q 64 -53 71 -153 l 259 -53 q 311 -112 269 -90 q 412 -134 353 -134 q 533 -97 488 -134 q 578 2 578 -60 l 578 136 l 574 136 q 486 40 547 75 q 343 5 424 5 q 122 105 205 5 q 39 376 39 205 q 122 653 39 551 q 347 755 205 755 q 487 719 426 755 q 578 619 548 682 l 581 619 l 581 747 l 777 747 l 777 17 q 676 -195 777 -116 q 408 -273 576 -273 z "},"Ǩ":{"ha":918,"x_min":81,"x_max":913,"o":"m 286 0 l 81 0 l 81 979 l 286 979 l 286 532 l 292 532 l 660 979 l 888 979 l 526 545 l 913 0 l 668 0 l 378 409 l 286 299 l 286 0 m 374 1046 l 189 1262 l 339 1262 l 450 1128 l 454 1128 l 564 1262 l 715 1262 l 529 1046 l 374 1046 z "},"ǩ":{"ha":764,"x_min":-92,"x_max":770,"o":"m 273 445 l 532 747 l 757 747 l 469 426 l 770 0 l 543 0 l 324 307 l 271 249 l 271 0 l 73 0 l 73 1025 l 271 1025 l 271 445 l 273 445 m 94 1093 l -92 1309 l 58 1309 l 169 1175 l 173 1175 l 283 1309 l 434 1309 l 248 1093 l 94 1093 z "},"Ǫ":{"ha":1045,"x_min":51,"x_max":994,"o":"m 764 -296 q 675 -309 730 -309 q 550 -270 597 -309 q 503 -167 503 -231 q 586 -12 503 -71 l 586 -9 q 523 -17 559 -17 q 177 119 304 -17 q 51 490 51 254 q 178 860 51 724 q 523 996 304 996 q 868 860 741 996 q 994 490 994 724 q 980 339 994 408 q 938 222 965 271 q 882 138 910 172 q 815 72 853 104 q 763 31 794 54 q 713 -7 732 7 q 674 -41 694 -22 q 646 -81 655 -60 q 637 -124 637 -101 q 659 -176 637 -156 q 716 -195 680 -195 q 764 -190 744 -195 l 764 -296 m 714 734 q 679 779 714 734 q 523 825 644 825 q 331 734 402 825 q 260 490 260 644 q 331 245 260 335 q 523 155 401 155 q 715 245 644 155 q 785 490 785 335 q 714 734 785 644 z "},"ǫ":{"ha":814,"x_min":39,"x_max":776,"o":"m 541 -309 q 419 -267 466 -309 q 373 -157 373 -224 q 454 -13 373 -76 l 454 -12 q 408 -13 446 -13 q 138 91 236 -13 q 39 374 39 194 q 138 655 39 551 q 408 760 237 760 q 677 656 578 760 q 776 374 776 552 q 743 195 776 271 q 636 54 709 119 q 533 -51 559 -14 q 507 -126 507 -87 q 528 -177 507 -158 q 585 -196 550 -196 q 637 -190 614 -196 l 637 -294 q 541 -309 597 -309 m 284 201 q 307 171 284 201 q 408 140 329 140 q 530 201 486 140 q 574 374 574 263 q 530 546 574 484 q 408 608 486 608 q 285 545 330 608 q 240 374 240 483 q 284 201 240 263 z "},"Ǭ":{"ha":1045,"x_min":51,"x_max":994,"o":"m 764 -296 q 675 -309 730 -309 q 550 -270 597 -309 q 503 -167 503 -231 q 586 -12 503 -71 l 586 -9 q 523 -17 559 -17 q 177 119 304 -17 q 51 490 51 254 q 178 860 51 724 q 523 996 304 996 q 868 860 741 996 q 994 490 994 724 q 980 339 994 408 q 938 222 965 271 q 882 138 910 172 q 815 72 853 104 q 763 31 794 54 q 713 -7 732 7 q 674 -41 694 -22 q 646 -81 655 -60 q 637 -124 637 -101 q 659 -176 637 -156 q 716 -195 680 -195 q 764 -190 744 -195 l 764 -296 m 714 734 q 679 779 714 734 q 523 825 644 825 q 331 734 402 825 q 260 490 260 644 q 331 245 260 335 q 523 155 401 155 q 715 245 644 155 q 785 490 785 335 q 714 734 785 644 m 758 1198 l 758 1101 l 288 1101 l 288 1198 l 758 1198 z "},"ǭ":{"ha":814,"x_min":39,"x_max":776,"o":"m 635 977 l 635 880 l 181 880 l 181 977 l 635 977 m 541 -309 q 419 -267 466 -309 q 373 -157 373 -224 q 454 -13 373 -76 l 454 -12 q 408 -13 446 -13 q 138 91 236 -13 q 39 374 39 194 q 138 655 39 551 q 408 760 237 760 q 677 656 578 760 q 776 374 776 552 q 743 195 776 271 q 636 54 709 119 q 533 -51 559 -14 q 507 -126 507 -87 q 528 -177 507 -158 q 585 -196 550 -196 q 637 -190 614 -196 l 637 -294 q 541 -309 597 -309 m 284 201 q 307 171 284 201 q 408 140 329 140 q 530 201 486 140 q 574 374 574 263 q 530 546 574 484 q 408 608 486 608 q 285 545 330 608 q 240 374 240 483 q 284 201 240 263 z "},"Ǳ":{"ha":1851,"x_min":81,"x_max":1791,"o":"m 1036 0 l 1036 134 l 1533 804 l 1533 810 l 1047 810 l 1047 979 l 1777 979 l 1777 846 l 1282 174 l 1282 170 l 1791 170 l 1791 0 l 1036 0 m 81 979 l 458 979 q 802 852 680 979 q 925 493 925 725 q 802 130 925 260 q 458 0 679 0 l 81 0 l 81 979 m 286 810 l 286 170 l 434 170 q 644 252 572 170 q 716 492 716 334 q 643 728 716 646 q 434 810 570 810 l 286 810 z "},"ǲ":{"ha":1693,"x_min":81,"x_max":1641,"o":"m 1028 0 l 1028 114 l 1403 591 l 1403 595 l 1034 595 l 1034 747 l 1632 747 l 1632 621 l 1279 156 l 1279 152 l 1641 152 l 1641 0 l 1028 0 m 81 979 l 458 979 q 802 852 680 979 q 925 493 925 725 q 802 130 925 260 q 458 0 679 0 l 81 0 l 81 979 m 286 810 l 286 170 l 434 170 q 644 252 572 170 q 716 492 716 334 q 643 728 716 646 q 434 810 570 810 l 286 810 z "},"ǳ":{"ha":1565,"x_min":39,"x_max":1513,"o":"m 900 0 l 900 114 l 1275 591 l 1275 595 l 905 595 l 905 747 l 1504 747 l 1504 621 l 1151 156 l 1151 152 l 1513 152 l 1513 0 l 900 0 m 345 -9 q 122 95 205 -9 q 39 374 39 198 q 123 652 39 549 q 346 755 206 755 q 486 719 426 755 q 574 619 546 682 l 578 619 l 578 1025 l 777 1025 l 777 0 l 581 0 l 581 127 l 578 127 q 488 28 550 65 q 345 -9 427 -9 m 411 595 q 288 535 334 595 q 242 374 242 475 q 288 211 242 271 q 411 151 334 151 q 534 212 488 151 q 580 373 580 272 q 534 535 580 474 q 411 595 488 595 z "},"Ǵ":{"ha":1010,"x_min":51,"x_max":956,"o":"m 583 1053 l 429 1053 l 586 1263 l 771 1263 l 583 1053 m 956 411 q 841 97 956 211 q 522 -17 726 -17 q 177 119 302 -17 q 51 492 51 254 q 176 861 51 727 q 517 996 301 996 q 807 903 688 996 q 947 663 926 811 l 742 663 q 660 783 720 739 q 518 826 601 826 q 328 739 397 826 q 260 495 260 651 q 331 245 260 336 q 526 153 403 153 q 689 210 626 153 q 756 357 753 266 l 757 372 l 544 372 l 544 522 l 956 522 l 956 411 z "},"ǵ":{"ha":844,"x_min":39,"x_max":777,"o":"m 489 857 l 332 857 l 482 1067 l 667 1067 l 489 857 m 287 216 q 310 187 287 216 q 410 158 332 158 q 533 216 487 158 q 579 374 579 275 q 533 535 579 475 q 410 595 487 595 q 288 536 333 595 q 242 375 242 476 q 287 216 242 274 m 408 -273 q 165 -213 260 -273 q 64 -53 71 -153 l 259 -53 q 311 -112 269 -90 q 412 -134 353 -134 q 533 -97 488 -134 q 578 2 578 -60 l 578 136 l 574 136 q 486 40 547 75 q 343 5 424 5 q 122 105 205 5 q 39 376 39 205 q 122 653 39 551 q 347 755 205 755 q 487 719 426 755 q 578 619 548 682 l 581 619 l 581 747 l 777 747 l 777 17 q 676 -195 777 -116 q 408 -273 576 -273 z "},"Ǹ":{"ha":992,"x_min":81,"x_max":911,"o":"m 422 1057 l 233 1267 l 418 1267 l 576 1057 l 422 1057 m 277 0 l 81 0 l 81 979 l 252 979 l 709 341 l 715 341 l 715 979 l 911 979 l 911 0 l 741 0 l 283 641 l 277 641 l 277 0 z "},"ǹ":{"ha":832,"x_min":67,"x_max":768,"o":"m 498 857 l 341 857 l 163 1067 l 348 1067 l 498 857 m 67 0 l 67 747 l 258 747 l 258 613 l 262 613 q 503 758 328 758 q 697 684 627 758 q 768 479 768 610 l 768 0 l 570 0 l 570 437 q 532 552 570 512 q 424 593 494 593 q 309 547 353 593 q 265 426 265 500 l 265 0 l 67 0 z "},"Ǻ":{"ha":958,"x_min":19,"x_max":940,"o":"m 722 0 l 648 237 l 304 237 l 229 0 l 19 0 l 359 979 l 600 979 l 940 0 l 722 0 m 473 791 l 348 391 l 604 391 l 478 791 l 473 791 m 579 1055 q 559 1035 579 1055 q 479 1015 539 1015 q 379 1055 420 1015 q 339 1152 339 1094 q 379 1250 339 1211 q 479 1289 420 1289 q 579 1250 539 1289 q 619 1152 619 1211 q 579 1055 619 1094 m 434 1107 q 443 1098 434 1107 q 479 1089 452 1089 q 525 1107 507 1089 q 543 1152 543 1126 q 525 1197 543 1179 q 479 1215 507 1215 q 434 1197 452 1215 q 416 1152 416 1179 q 434 1107 416 1126 m 494 1457 l 663 1457 l 548 1326 l 414 1326 l 494 1457 z "},"ǻ":{"ha":778,"x_min":37,"x_max":712,"o":"m 353 136 q 470 175 422 136 q 517 274 517 214 l 517 329 l 361 318 q 267 290 299 314 q 234 225 234 267 q 266 160 234 184 q 353 136 298 136 m 288 -9 q 108 54 179 -9 q 37 215 37 116 q 112 373 37 316 q 331 439 187 430 l 517 450 l 517 500 q 483 582 517 553 q 387 611 448 611 q 298 586 334 611 q 255 519 262 560 l 74 519 q 166 693 78 626 q 395 760 255 760 q 625 692 538 760 q 712 512 712 624 l 712 0 l 521 0 l 521 115 l 517 115 q 424 24 487 58 q 288 -9 361 -9 m 499 862 q 478 841 499 862 q 393 821 456 821 q 288 862 330 821 q 245 965 245 904 q 287 1068 245 1027 q 393 1110 330 1110 q 499 1068 456 1110 q 541 965 541 1027 q 499 862 541 904 m 327 965 q 346 919 327 938 q 393 900 366 900 q 440 919 421 900 q 459 965 459 938 q 440 1012 459 993 q 393 1031 421 1031 q 346 1012 366 1031 q 327 965 327 993 m 330 1161 l 420 1305 l 581 1305 l 463 1161 l 330 1161 z "},"Ǽ":{"ha":1383,"x_min":19,"x_max":1296,"o":"m 1056 1053 l 901 1053 l 1059 1263 l 1244 1263 l 1056 1053 m 563 821 l 390 406 l 655 406 l 655 821 l 563 821 m 655 0 l 655 253 l 330 253 l 223 0 l 19 0 l 435 979 l 1296 979 l 1296 810 l 842 810 l 842 570 l 1271 570 l 1271 413 l 842 413 l 842 169 l 1296 169 l 1296 0 l 655 0 z "},"ǽ":{"ha":1251,"x_min":37,"x_max":1211,"o":"m 699 857 l 543 857 l 692 1067 l 878 1067 l 699 857 m 872 -13 q 707 24 779 -13 q 598 127 634 62 l 592 127 q 317 -9 510 -9 q 114 53 191 -9 q 37 214 37 114 q 112 372 37 315 q 330 438 187 430 l 517 448 l 517 494 q 481 578 517 546 q 385 611 444 611 q 293 586 328 611 q 252 519 257 561 l 71 519 q 161 693 76 627 q 380 760 246 760 q 531 729 468 760 q 625 646 595 699 l 631 646 q 730 730 669 701 q 870 760 791 760 q 1119 659 1026 760 q 1211 389 1211 558 l 1211 328 l 702 328 l 702 315 q 749 184 702 234 q 875 135 797 135 q 969 159 930 135 q 1023 228 1008 184 l 1205 228 q 1098 53 1188 119 q 872 -13 1007 -13 m 976 568 q 955 590 976 568 q 866 612 934 612 q 754 567 798 612 q 704 450 709 523 l 1020 450 q 976 568 1017 524 m 349 136 q 469 176 420 136 q 517 274 517 216 l 517 327 l 359 317 q 267 290 299 314 q 234 225 234 266 q 265 160 234 184 q 349 136 296 136 z "},"Ǿ":{"ha":1045,"x_min":51,"x_max":995,"o":"m 802 1263 l 614 1053 l 459 1053 l 616 1263 l 802 1263 m 733 706 l 391 191 q 523 155 448 155 q 714 245 643 155 q 785 489 785 336 q 733 706 785 621 m 328 248 l 677 772 q 523 825 613 825 q 331 734 403 825 q 260 489 260 643 q 328 248 260 338 m 916 981 l 848 879 q 995 489 995 741 q 867 119 995 256 q 523 -17 740 -17 q 288 36 389 -17 l 233 -45 l 164 1 l 218 82 q 94 252 137 148 q 51 489 51 355 q 178 859 51 723 q 523 996 305 996 q 781 929 672 996 l 842 1021 l 916 981 z "},"ǿ":{"ha":814,"x_min":39,"x_max":776,"o":"m 677 1067 l 498 857 l 342 857 l 492 1067 l 677 1067 m 549 513 l 328 161 q 408 140 363 140 q 530 201 486 140 q 574 374 574 262 q 549 513 574 456 m 271 224 l 494 581 q 408 608 458 608 q 284 546 329 608 q 240 374 240 484 q 271 224 240 283 m 699 752 l 652 679 q 776 374 776 574 q 677 90 776 193 q 408 -13 578 -13 q 239 20 315 -13 l 197 -47 l 127 -4 l 169 62 q 39 374 39 165 q 139 656 39 552 q 408 760 239 760 q 583 723 506 760 l 627 792 l 699 752 z "},"Ȁ":{"ha":958,"x_min":19,"x_max":940,"o":"m 722 0 l 648 237 l 304 237 l 229 0 l 19 0 l 359 979 l 600 979 l 940 0 l 722 0 m 473 791 l 348 391 l 604 391 l 478 791 l 473 791 m 541 1053 l 352 1263 l 534 1263 l 691 1053 l 541 1053 m 273 1053 l 84 1263 l 266 1263 l 423 1053 l 273 1053 z "},"ȁ":{"ha":778,"x_min":37,"x_max":712,"o":"m 353 136 q 470 175 422 136 q 517 274 517 214 l 517 329 l 361 318 q 267 290 299 314 q 234 225 234 267 q 266 160 234 184 q 353 136 298 136 m 288 -9 q 108 54 179 -9 q 37 215 37 116 q 112 373 37 316 q 331 439 187 430 l 517 450 l 517 500 q 483 582 517 553 q 387 611 448 611 q 298 586 334 611 q 255 519 262 560 l 74 519 q 166 693 78 626 q 395 760 255 760 q 625 692 538 760 q 712 512 712 624 l 712 0 l 521 0 l 521 115 l 517 115 q 424 24 487 58 q 288 -9 361 -9 m 341 857 l 200 857 l 42 1067 l 213 1067 l 341 857 m 592 857 l 451 857 l 293 1067 l 464 1067 l 592 857 z "},"Ȃ":{"ha":958,"x_min":19,"x_max":940,"o":"m 722 0 l 648 237 l 304 237 l 229 0 l 19 0 l 359 979 l 600 979 l 940 0 l 722 0 m 473 791 l 348 391 l 604 391 l 478 791 l 473 791 m 240 1046 q 306 1200 241 1139 q 479 1261 371 1261 q 653 1200 588 1261 q 719 1046 718 1139 l 598 1046 q 564 1130 597 1097 q 479 1163 532 1163 q 395 1130 427 1163 q 361 1046 362 1097 l 240 1046 z "},"ȃ":{"ha":778,"x_min":37,"x_max":712,"o":"m 353 136 q 470 175 422 136 q 517 274 517 214 l 517 329 l 361 318 q 267 290 299 314 q 234 225 234 267 q 266 160 234 184 q 353 136 298 136 m 288 -9 q 108 54 179 -9 q 37 215 37 116 q 112 373 37 316 q 331 439 187 430 l 517 450 l 517 500 q 483 582 517 553 q 387 611 448 611 q 298 586 334 611 q 255 519 262 560 l 74 519 q 166 693 78 626 q 395 760 255 760 q 625 692 538 760 q 712 512 712 624 l 712 0 l 521 0 l 521 115 l 517 115 q 424 24 487 58 q 288 -9 361 -9 m 149 850 q 216 1006 150 945 q 392 1068 281 1068 q 568 1006 503 1068 q 635 850 634 945 l 513 850 q 478 935 512 901 q 392 969 445 969 q 306 935 339 969 q 271 850 272 901 l 149 850 z "},"Ȅ":{"ha":796,"x_min":10,"x_max":730,"o":"m 467 1053 l 278 1263 l 460 1263 l 617 1053 l 467 1053 m 199 1053 l 10 1263 l 192 1263 l 349 1053 l 199 1053 m 730 170 l 730 0 l 81 0 l 81 979 l 730 979 l 730 810 l 286 810 l 286 574 l 705 574 l 705 416 l 286 416 l 286 170 l 730 170 z "},"ȅ":{"ha":789,"x_min":39,"x_max":750,"o":"m 400 612 q 287 567 332 612 q 237 450 242 522 l 559 450 q 513 568 556 524 q 400 612 469 612 m 562 228 l 744 228 q 635 53 728 119 q 406 -13 542 -13 q 137 90 235 -13 q 39 370 39 192 q 137 654 39 549 q 398 760 234 760 q 655 659 559 760 q 750 389 750 559 l 750 328 l 235 328 l 235 315 q 283 185 235 235 q 409 135 331 135 q 506 160 465 135 q 562 228 547 184 m 347 857 l 205 857 l 47 1067 l 218 1067 l 347 857 m 597 857 l 456 857 l 298 1067 l 469 1067 l 597 857 z "},"Ȇ":{"ha":796,"x_min":81,"x_max":730,"o":"m 730 170 l 730 0 l 81 0 l 81 979 l 730 979 l 730 810 l 286 810 l 286 574 l 705 574 l 705 416 l 286 416 l 286 170 l 730 170 m 166 1046 q 232 1200 168 1139 q 406 1261 297 1261 q 579 1200 514 1261 q 645 1046 644 1139 l 524 1046 q 490 1130 523 1097 q 406 1163 458 1163 q 321 1130 353 1163 q 287 1046 288 1097 l 166 1046 z "},"ȇ":{"ha":789,"x_min":39,"x_max":750,"o":"m 400 612 q 287 567 332 612 q 237 450 242 522 l 559 450 q 513 568 556 524 q 400 612 469 612 m 562 228 l 744 228 q 635 53 728 119 q 406 -13 542 -13 q 137 90 235 -13 q 39 370 39 192 q 137 654 39 549 q 398 760 234 760 q 655 659 559 760 q 750 389 750 559 l 750 328 l 235 328 l 235 315 q 283 185 235 235 q 409 135 331 135 q 506 160 465 135 q 562 228 547 184 m 154 850 q 221 1006 155 945 q 397 1068 287 1068 q 574 1006 508 1068 q 641 850 640 945 l 519 850 q 484 935 517 901 q 397 969 450 969 q 311 935 345 969 q 276 850 277 901 l 154 850 z "},"Ȉ":{"ha":368,"x_min":-212,"x_max":395,"o":"m 286 0 l 81 0 l 81 979 l 286 979 l 286 0 m 245 1053 l 56 1263 l 239 1263 l 395 1053 l 245 1053 m -23 1053 l -212 1263 l -30 1263 l 127 1053 l -23 1053 z "},"ȉ":{"ha":339,"x_min":-180,"x_max":370,"o":"m 71 0 l 71 747 l 269 747 l 269 0 l 71 0 m 119 857 l -22 857 l -180 1067 l -9 1067 l 119 857 m 370 857 l 229 857 l 71 1067 l 241 1067 l 370 857 z "},"Ȋ":{"ha":368,"x_min":-56,"x_max":423,"o":"m 286 0 l 81 0 l 81 979 l 286 979 l 286 0 m -56 1046 q 11 1200 -54 1139 q 184 1261 75 1261 q 357 1200 292 1261 q 423 1046 422 1139 l 302 1046 q 269 1130 301 1097 q 184 1163 236 1163 q 99 1130 132 1163 q 65 1046 66 1097 l -56 1046 z "},"ȋ":{"ha":339,"x_min":-74,"x_max":413,"o":"m 71 0 l 71 747 l 269 747 l 269 0 l 71 0 m -74 850 q -7 1006 -73 945 q 170 1068 59 1068 q 346 1006 280 1068 q 413 850 412 945 l 291 850 q 256 935 290 901 q 170 969 222 969 q 83 935 117 969 q 48 850 50 901 l -74 850 z "},"Ȍ":{"ha":1045,"x_min":51,"x_max":995,"o":"m 584 1053 l 395 1263 l 578 1263 l 734 1053 l 584 1053 m 316 1053 l 127 1263 l 309 1263 l 467 1053 l 316 1053 m 178 859 q 242 927 178 859 q 523 996 305 996 q 868 859 741 996 q 995 489 995 723 q 867 119 995 256 q 523 -17 740 -17 q 178 119 305 -17 q 51 489 51 256 q 178 859 51 723 m 714 734 q 679 779 714 734 q 523 825 643 825 q 331 734 403 825 q 260 489 260 643 q 331 245 260 336 q 523 155 402 155 q 714 245 643 155 q 785 489 785 336 q 714 734 785 643 z "},"ȍ":{"ha":814,"x_min":39,"x_max":776,"o":"m 408 -13 q 138 90 237 -13 q 39 374 39 193 q 139 656 39 552 q 408 760 239 760 q 676 656 577 760 q 776 374 776 553 q 677 90 776 193 q 408 -13 578 -13 m 284 201 q 307 170 284 201 q 408 140 329 140 q 530 201 486 140 q 574 374 574 262 q 530 546 574 484 q 408 608 486 608 q 284 546 329 608 q 240 374 240 484 q 284 201 240 262 m 357 857 l 216 857 l 58 1067 l 229 1067 l 357 857 m 608 857 l 467 857 l 309 1067 l 479 1067 l 608 857 z "},"Ȏ":{"ha":1045,"x_min":51,"x_max":995,"o":"m 283 1046 q 350 1200 285 1139 q 523 1261 414 1261 q 696 1200 631 1261 q 762 1046 761 1139 l 642 1046 q 608 1130 640 1097 q 523 1163 575 1163 q 438 1130 471 1163 q 404 1046 406 1097 l 283 1046 m 178 859 q 242 927 178 859 q 523 996 305 996 q 868 859 741 996 q 995 489 995 723 q 867 119 995 256 q 523 -17 740 -17 q 178 119 305 -17 q 51 489 51 256 q 178 859 51 723 m 714 734 q 679 779 714 734 q 523 825 643 825 q 331 734 403 825 q 260 489 260 643 q 331 245 260 336 q 523 155 402 155 q 714 245 643 155 q 785 489 785 336 q 714 734 785 643 z "},"ȏ":{"ha":814,"x_min":39,"x_max":776,"o":"m 408 -13 q 138 90 237 -13 q 39 374 39 193 q 139 656 39 552 q 408 760 239 760 q 676 656 577 760 q 776 374 776 553 q 677 90 776 193 q 408 -13 578 -13 m 284 201 q 307 170 284 201 q 408 140 329 140 q 530 201 486 140 q 574 374 574 262 q 530 546 574 484 q 408 608 486 608 q 284 546 329 608 q 240 374 240 484 q 284 201 240 262 m 164 850 q 231 1006 165 945 q 408 1068 297 1068 q 584 1006 518 1068 q 651 850 650 945 l 529 850 q 494 935 528 901 q 408 969 460 969 q 321 935 355 969 q 286 850 288 901 l 164 850 z "},"Ȑ":{"ha":892,"x_min":22,"x_max":868,"o":"m 479 1053 l 290 1263 l 473 1263 l 629 1053 l 479 1053 m 211 1053 l 22 1263 l 204 1263 l 361 1053 l 211 1053 m 286 819 l 286 507 l 466 507 q 586 548 543 507 q 629 663 629 589 q 585 776 629 734 q 464 819 540 819 l 286 819 m 286 358 l 286 0 l 81 0 l 81 979 l 486 979 q 746 896 653 979 q 840 667 840 812 q 792 496 840 571 q 662 389 745 421 l 868 0 l 636 0 l 454 358 l 286 358 z "},"ȑ":{"ha":515,"x_min":-77,"x_max":496,"o":"m 67 0 l 67 747 l 258 747 l 258 613 l 262 613 q 328 719 281 682 q 440 755 374 755 q 496 748 473 755 l 496 572 q 425 585 469 585 q 307 541 349 585 q 265 418 265 496 l 265 0 l 67 0 m 222 857 l 81 857 l -77 1067 l 94 1067 l 222 857 m 473 857 l 332 857 l 174 1067 l 345 1067 l 473 857 z "},"Ȓ":{"ha":892,"x_min":81,"x_max":868,"o":"m 286 819 l 286 507 l 466 507 q 586 548 543 507 q 629 663 629 589 q 585 776 629 734 q 464 819 540 819 l 286 819 m 286 358 l 286 0 l 81 0 l 81 979 l 486 979 q 746 896 653 979 q 840 667 840 812 q 792 496 840 571 q 662 389 745 421 l 868 0 l 636 0 l 454 358 l 286 358 m 178 1046 q 244 1200 180 1139 q 418 1261 309 1261 q 591 1200 526 1261 q 657 1046 656 1139 l 536 1046 q 503 1130 535 1097 q 418 1163 470 1163 q 333 1130 366 1163 q 299 1046 300 1097 l 178 1046 z "},"ȓ":{"ha":515,"x_min":30,"x_max":517,"o":"m 67 0 l 67 747 l 258 747 l 258 613 l 262 613 q 328 719 281 682 q 440 755 374 755 q 496 748 473 755 l 496 572 q 425 585 469 585 q 307 541 349 585 q 265 418 265 496 l 265 0 l 67 0 m 30 850 q 97 1006 31 945 q 273 1068 163 1068 q 450 1006 384 1068 q 517 850 515 945 l 395 850 q 360 935 393 901 q 273 969 326 969 q 187 935 220 969 q 152 850 153 901 l 30 850 z "},"Ȕ":{"ha":983,"x_min":81,"x_max":901,"o":"m 553 1053 l 364 1263 l 547 1263 l 703 1053 l 553 1053 m 285 1053 l 96 1263 l 278 1263 l 435 1053 l 285 1053 m 286 979 l 286 366 q 340 215 286 271 q 492 159 394 159 q 643 215 589 159 q 696 366 696 271 l 696 979 l 901 979 l 901 346 q 790 83 901 183 q 492 -17 678 -17 q 193 83 304 -17 q 81 346 81 183 l 81 979 l 286 979 z "},"ȕ":{"ha":832,"x_min":64,"x_max":765,"o":"m 765 747 l 765 0 l 574 0 l 574 135 l 570 135 q 480 27 541 64 q 335 -11 420 -11 q 138 64 212 -11 q 64 268 64 139 l 64 747 l 262 747 l 262 309 q 301 194 262 235 q 410 154 340 154 q 524 200 480 154 q 567 321 567 246 l 567 747 l 765 747 m 364 857 l 223 857 l 65 1067 l 236 1067 l 364 857 m 615 857 l 474 857 l 316 1067 l 487 1067 l 615 857 z "},"Ȗ":{"ha":983,"x_min":81,"x_max":901,"o":"m 286 979 l 286 366 q 340 215 286 271 q 492 159 394 159 q 643 215 589 159 q 696 366 696 271 l 696 979 l 901 979 l 901 346 q 790 83 901 183 q 492 -17 678 -17 q 193 83 304 -17 q 81 346 81 183 l 81 979 l 286 979 m 252 1046 q 318 1200 254 1139 q 492 1261 383 1261 q 665 1200 600 1261 q 731 1046 730 1139 l 610 1046 q 576 1130 609 1097 q 492 1163 544 1163 q 407 1130 439 1163 q 373 1046 374 1097 l 252 1046 z "},"ȗ":{"ha":832,"x_min":64,"x_max":765,"o":"m 765 747 l 765 0 l 574 0 l 574 135 l 570 135 q 480 27 541 64 q 335 -11 420 -11 q 138 64 212 -11 q 64 268 64 139 l 64 747 l 262 747 l 262 309 q 301 194 262 235 q 410 154 340 154 q 524 200 480 154 q 567 321 567 246 l 567 747 l 765 747 m 172 850 q 239 1006 173 945 q 415 1068 304 1068 q 591 1006 526 1068 q 659 850 657 945 l 536 850 q 502 935 535 901 q 415 969 468 969 q 329 935 362 969 q 294 850 295 901 l 172 850 z "},"Ș":{"ha":877,"x_min":45,"x_max":833,"o":"m 45 279 l 242 279 q 306 182 249 219 q 444 145 362 145 q 577 180 526 145 q 628 269 628 215 q 590 346 628 317 q 463 395 552 375 l 336 422 q 66 696 66 480 q 171 913 66 830 q 441 996 276 996 q 711 915 610 996 q 815 701 812 835 l 623 701 q 569 799 618 763 q 441 834 519 834 q 319 801 366 834 q 273 713 273 768 q 310 641 273 669 q 433 593 348 613 l 551 568 q 766 471 699 537 q 833 293 833 405 q 726 67 833 151 q 436 -17 618 -17 q 154 62 259 -17 q 45 279 50 141 m 423 -339 l 276 -339 l 358 -105 l 532 -105 l 423 -339 z "},"ș":{"ha":731,"x_min":36,"x_max":695,"o":"m 54 527 q 140 696 54 632 q 367 760 225 760 q 590 695 505 760 q 677 523 675 630 l 494 523 q 456 593 490 567 q 364 619 421 619 q 278 597 311 619 q 245 539 245 575 q 345 461 245 484 l 486 431 q 647 358 598 405 q 695 228 695 311 q 604 53 695 119 q 366 -13 513 -13 q 132 52 220 -13 q 36 226 43 117 l 229 226 q 273 153 237 178 q 372 127 310 127 q 465 149 431 127 q 498 207 498 170 q 477 253 498 236 q 405 282 456 270 l 267 313 q 54 527 54 361 m 349 -339 l 202 -339 l 284 -105 l 458 -105 l 349 -339 z "},"Ț":{"ha":842,"x_min":33,"x_max":810,"o":"m 406 -339 l 259 -339 l 341 -105 l 515 -105 l 406 -339 m 524 0 l 319 0 l 319 810 l 33 810 l 33 979 l 810 979 l 810 810 l 524 810 l 524 0 z "},"ț":{"ha":503,"x_min":19,"x_max":456,"o":"m 273 -339 l 125 -339 l 208 -105 l 381 -105 l 273 -339 m 120 913 l 318 913 l 318 747 l 456 747 l 456 597 l 318 597 l 318 234 q 407 149 318 149 q 456 152 436 149 l 456 5 q 361 -3 416 -3 q 176 45 231 -3 q 120 201 120 92 l 120 597 l 19 597 l 19 747 l 120 747 l 120 913 z "},"Ȟ":{"ha":1013,"x_min":81,"x_max":932,"o":"m 932 0 l 727 0 l 727 412 l 286 412 l 286 0 l 81 0 l 81 979 l 286 979 l 286 581 l 727 581 l 727 979 l 932 979 l 932 0 m 429 1046 l 243 1262 l 394 1262 l 505 1128 l 509 1128 l 619 1262 l 770 1262 l 584 1046 l 429 1046 z "},"ȟ":{"ha":846,"x_min":-92,"x_max":782,"o":"m 73 0 l 73 1025 l 267 1025 l 267 613 l 271 613 q 365 721 302 684 q 513 758 427 758 q 709 682 637 758 q 782 477 782 607 l 782 0 l 584 0 l 584 436 q 544 551 584 509 q 433 593 503 593 q 315 546 360 593 q 271 424 271 499 l 271 0 l 73 0 m 94 1093 l -92 1309 l 58 1309 l 169 1175 l 173 1175 l 283 1309 l 434 1309 l 248 1093 l 94 1093 z "},"Ȧ":{"ha":958,"x_min":19,"x_max":940,"o":"m 722 0 l 648 237 l 304 237 l 229 0 l 19 0 l 359 979 l 600 979 l 940 0 l 722 0 m 473 791 l 348 391 l 604 391 l 478 791 l 473 791 m 551 1088 q 537 1073 551 1088 q 479 1059 522 1059 q 408 1088 437 1059 q 378 1160 378 1118 q 408 1231 378 1202 q 479 1260 437 1260 q 551 1231 522 1260 q 581 1160 581 1202 q 551 1088 581 1118 z "},"ȧ":{"ha":778,"x_min":37,"x_max":712,"o":"m 353 136 q 470 175 422 136 q 517 274 517 214 l 517 329 l 361 318 q 267 290 299 314 q 234 225 234 267 q 266 160 234 184 q 353 136 298 136 m 288 -9 q 108 54 179 -9 q 37 215 37 116 q 112 373 37 316 q 331 439 187 430 l 517 450 l 517 500 q 483 582 517 553 q 387 611 448 611 q 298 586 334 611 q 255 519 262 560 l 74 519 q 166 693 78 626 q 395 760 255 760 q 625 692 538 760 q 712 512 712 624 l 712 0 l 521 0 l 521 115 l 517 115 q 424 24 487 58 q 288 -9 361 -9 m 464 886 q 449 871 464 886 q 391 857 434 857 q 319 886 349 857 q 289 957 289 916 q 319 1028 289 999 q 391 1058 349 1058 q 464 1028 434 1058 q 493 957 493 999 q 464 886 493 916 z "},"Ȩ":{"ha":796,"x_min":81,"x_max":730,"o":"m 730 810 l 286 810 l 286 574 l 705 574 l 705 416 l 286 416 l 286 170 l 730 170 l 730 0 l 468 0 l 435 -79 q 527 -107 494 -79 q 560 -186 560 -135 q 517 -278 560 -245 q 397 -313 473 -312 q 302 -302 337 -313 l 302 -220 q 377 -230 329 -230 q 450 -193 450 -230 q 430 -163 450 -172 q 365 -155 411 -155 l 327 -155 l 327 -86 l 366 0 l 81 0 l 81 979 l 730 979 l 730 810 z "},"ȩ":{"ha":789,"x_min":39,"x_max":750,"o":"m 237 450 l 559 450 q 513 568 556 524 q 400 612 469 612 q 287 567 332 612 q 237 450 242 522 m 750 328 l 235 328 l 235 315 q 283 185 235 235 q 409 135 331 135 q 506 160 465 135 q 562 228 547 184 l 744 228 q 652 67 729 131 q 458 -10 575 3 l 429 -79 q 522 -107 489 -79 q 555 -186 555 -135 q 511 -278 555 -245 q 391 -313 468 -312 q 296 -302 332 -313 l 296 -220 q 372 -230 323 -230 q 444 -193 444 -230 q 425 -163 444 -172 q 359 -155 406 -155 l 321 -155 l 321 -86 l 356 -10 q 123 105 208 5 q 39 370 39 205 q 137 654 39 549 q 398 760 234 760 q 655 659 559 760 q 750 389 750 559 l 750 328 z "},"Ȫ":{"ha":1045,"x_min":51,"x_max":995,"o":"m 178 859 q 242 927 178 859 q 523 996 305 996 q 868 859 741 996 q 995 489 995 723 q 867 119 995 256 q 523 -17 740 -17 q 178 119 305 -17 q 51 489 51 256 q 178 859 51 723 m 714 734 q 679 779 714 734 q 523 825 643 825 q 331 734 403 825 q 260 489 260 643 q 331 245 260 336 q 523 155 402 155 q 714 245 643 155 q 785 489 785 336 q 714 734 785 643 m 385 1230 q 446 1205 421 1230 q 471 1145 471 1180 q 446 1085 471 1110 q 385 1061 421 1061 q 322 1085 347 1061 q 297 1145 297 1110 q 322 1205 297 1181 q 385 1230 347 1230 m 288 1406 l 758 1406 l 758 1309 l 288 1309 l 288 1406 m 661 1230 q 724 1205 699 1230 q 749 1145 749 1181 q 724 1085 749 1110 q 661 1061 699 1061 q 600 1085 625 1061 q 574 1145 574 1110 q 600 1205 574 1180 q 661 1230 625 1230 z "},"ȫ":{"ha":814,"x_min":39,"x_max":776,"o":"m 332 878 q 319 866 332 878 q 270 853 307 853 q 208 878 233 853 q 183 937 183 903 q 208 997 183 972 q 270 1021 233 1021 q 332 997 307 1021 q 357 937 357 972 q 332 878 357 903 m 607 878 q 594 866 607 878 q 545 853 582 853 q 484 878 509 853 q 458 937 458 903 q 484 997 458 972 q 545 1021 509 1021 q 607 997 582 1021 q 632 937 632 972 q 607 878 632 903 m 635 1222 l 635 1125 l 181 1125 l 181 1222 l 635 1222 m 408 -13 q 138 90 237 -13 q 39 374 39 193 q 139 656 39 552 q 408 760 239 760 q 676 656 577 760 q 776 374 776 553 q 677 90 776 193 q 408 -13 578 -13 m 284 201 q 307 170 284 201 q 408 140 329 140 q 530 201 486 140 q 574 374 574 262 q 530 546 574 484 q 408 608 486 608 q 284 546 329 608 q 240 374 240 484 q 284 201 240 262 z "},"Ȭ":{"ha":1045,"x_min":51,"x_max":995,"o":"m 614 1042 q 566 1051 589 1042 q 526 1074 543 1061 q 495 1101 510 1088 q 466 1124 481 1115 q 438 1134 452 1134 q 404 1112 416 1134 q 391 1053 392 1090 l 284 1053 q 325 1188 284 1139 q 429 1238 365 1238 q 491 1223 462 1238 q 536 1191 519 1208 q 573 1159 553 1174 q 608 1145 592 1145 q 652 1227 650 1145 l 759 1227 q 718 1092 759 1143 q 614 1042 677 1042 m 758 1406 l 758 1309 l 288 1309 l 288 1406 l 758 1406 m 178 859 q 242 927 178 859 q 523 996 305 996 q 868 859 741 996 q 995 489 995 723 q 867 119 995 256 q 523 -17 740 -17 q 178 119 305 -17 q 51 489 51 256 q 178 859 51 723 m 714 734 q 679 779 714 734 q 523 825 643 825 q 331 734 403 825 q 260 489 260 643 q 331 245 260 336 q 523 155 402 155 q 714 245 643 155 q 785 489 785 336 q 714 734 785 643 z "},"ȭ":{"ha":814,"x_min":39,"x_max":776,"o":"m 504 849 q 455 859 478 849 q 416 882 433 868 q 386 909 400 895 q 357 932 372 922 q 329 941 342 941 q 295 919 307 941 q 282 861 283 897 l 175 861 q 216 995 175 946 q 321 1044 256 1044 q 371 1035 347 1044 q 411 1012 395 1025 q 441 985 427 998 q 470 962 456 972 q 498 953 485 953 q 542 1036 541 953 l 649 1036 q 608 900 649 951 q 504 849 567 849 m 635 1222 l 635 1125 l 181 1125 l 181 1222 l 635 1222 m 408 -13 q 138 90 237 -13 q 39 374 39 193 q 139 656 39 552 q 408 760 239 760 q 676 656 577 760 q 776 374 776 553 q 677 90 776 193 q 408 -13 578 -13 m 284 201 q 307 170 284 201 q 408 140 329 140 q 530 201 486 140 q 574 374 574 262 q 530 546 574 484 q 408 608 486 608 q 284 546 329 608 q 240 374 240 484 q 284 201 240 262 z "},"Ȯ":{"ha":1045,"x_min":51,"x_max":995,"o":"m 595 1088 q 580 1073 595 1088 q 523 1059 566 1059 q 451 1088 480 1059 q 422 1160 422 1118 q 451 1231 422 1202 q 523 1260 480 1260 q 595 1231 566 1260 q 624 1160 624 1202 q 595 1088 624 1118 m 178 859 q 242 927 178 859 q 523 996 305 996 q 868 859 741 996 q 995 489 995 723 q 867 119 995 256 q 523 -17 740 -17 q 178 119 305 -17 q 51 489 51 256 q 178 859 51 723 m 714 734 q 679 779 714 734 q 523 825 643 825 q 331 734 403 825 q 260 489 260 643 q 331 245 260 336 q 523 155 402 155 q 714 245 643 155 q 785 489 785 336 q 714 734 785 643 z "},"ȯ":{"ha":814,"x_min":39,"x_max":776,"o":"m 479 886 q 464 871 479 886 q 407 857 450 857 q 334 886 364 857 q 304 957 304 916 q 334 1028 304 999 q 407 1058 364 1058 q 479 1028 450 1058 q 509 957 509 999 q 479 886 509 916 m 408 -13 q 138 90 237 -13 q 39 374 39 193 q 139 656 39 552 q 408 760 239 760 q 676 656 577 760 q 776 374 776 553 q 677 90 776 193 q 408 -13 578 -13 m 284 201 q 307 170 284 201 q 408 140 329 140 q 530 201 486 140 q 574 374 574 262 q 530 546 574 484 q 408 608 486 608 q 284 546 329 608 q 240 374 240 484 q 284 201 240 262 z "},"Ȱ":{"ha":1045,"x_min":51,"x_max":995,"o":"m 590 1081 q 576 1068 590 1081 q 523 1055 563 1055 q 456 1081 483 1055 q 429 1145 429 1107 q 456 1209 429 1183 q 523 1235 483 1235 q 590 1209 563 1235 q 616 1145 616 1183 q 590 1081 616 1107 m 758 1406 l 758 1309 l 288 1309 l 288 1406 l 758 1406 m 178 859 q 242 927 178 859 q 523 996 305 996 q 868 859 741 996 q 995 489 995 723 q 867 119 995 256 q 523 -17 740 -17 q 178 119 305 -17 q 51 489 51 256 q 178 859 51 723 m 714 734 q 679 779 714 734 q 523 825 643 825 q 331 734 403 825 q 260 489 260 643 q 331 245 260 336 q 523 155 402 155 q 714 245 643 155 q 785 489 785 336 q 714 734 785 643 z "},"ȱ":{"ha":814,"x_min":39,"x_max":776,"o":"m 408 -13 q 138 90 237 -13 q 39 374 39 193 q 139 656 39 552 q 408 760 239 760 q 676 656 577 760 q 776 374 776 553 q 677 90 776 193 q 408 -13 578 -13 m 284 201 q 307 170 284 201 q 408 140 329 140 q 530 201 486 140 q 574 374 574 262 q 530 546 574 484 q 408 608 486 608 q 284 546 329 608 q 240 374 240 484 q 284 201 240 262 m 479 878 q 465 864 479 878 q 408 849 450 849 q 336 878 366 849 q 306 949 306 907 q 336 1020 306 990 q 408 1049 366 1049 q 479 1020 450 1049 q 509 949 509 990 q 479 878 509 907 m 635 1225 l 635 1128 l 181 1128 l 181 1225 l 635 1225 z "},"Ȳ":{"ha":924,"x_min":19,"x_max":905,"o":"m 564 0 l 359 0 l 359 366 l 19 979 l 242 979 l 461 561 l 466 561 l 686 979 l 905 979 l 564 366 l 564 0 m 696 1198 l 696 1101 l 227 1101 l 227 1198 l 696 1198 z "},"ȳ":{"ha":770,"x_min":9,"x_max":762,"o":"m 162 -273 q 87 -270 102 -273 l 87 -117 q 132 -119 97 -119 q 220 -98 188 -119 q 264 -33 252 -77 l 271 -5 l 9 747 l 226 747 l 387 161 l 391 161 l 553 747 l 762 747 l 504 -15 q 379 -215 456 -157 q 162 -273 302 -273 m 613 977 l 613 880 l 159 880 l 159 977 l 613 977 z "},"ȷ":{"ha":338,"x_min":-50,"x_max":268,"o":"m 268 747 l 268 -25 q 201 -197 268 -139 q 3 -255 134 -255 q -50 -253 -37 -255 l -50 -106 q -25 -107 -45 -107 q 48 -87 26 -107 q 71 -20 71 -67 l 71 747 l 268 747 z "},"ˆ":{"ha":686,"x_min":88,"x_max":597,"o":"m 417 1065 l 597 850 l 446 850 l 345 978 l 340 978 l 240 850 l 88 850 l 269 1065 l 417 1065 z "},"ˇ":{"ha":686,"x_min":88,"x_max":597,"o":"m 417 850 l 269 850 l 88 1065 l 240 1065 l 340 938 l 345 938 l 446 1065 l 597 1065 l 417 850 z "},"˘":{"ha":678,"x_min":96,"x_max":583,"o":"m 96 1065 l 218 1065 q 253 980 219 1013 q 339 946 286 946 q 426 980 392 946 q 460 1065 459 1013 l 583 1065 q 515 908 581 970 q 339 846 450 846 q 163 908 229 846 q 96 1065 98 970 z "},"˙":{"ha":644,"x_min":219,"x_max":423,"o":"m 394 886 q 379 871 394 886 q 321 857 364 857 q 249 886 279 857 q 219 957 219 916 q 249 1028 219 999 q 321 1058 279 1058 q 394 1028 364 1058 q 423 957 423 999 q 394 886 423 916 z "},"˚":{"ha":700,"x_min":200,"x_max":500,"o":"m 350 821 q 244 865 289 821 q 200 968 200 908 q 244 1072 200 1029 q 350 1116 289 1116 q 456 1072 412 1116 q 500 968 500 1029 q 456 865 500 908 q 350 821 412 821 m 350 901 q 399 921 378 901 q 419 968 419 941 q 399 1017 419 996 q 350 1037 378 1037 q 301 1017 322 1037 q 281 968 281 996 q 301 921 281 941 q 350 901 322 901 z "},"˛":{"ha":678,"x_min":216,"x_max":471,"o":"m 471 -201 l 471 -305 q 377 -319 432 -319 q 260 -280 305 -319 q 216 -178 216 -241 q 330 0 216 -74 l 435 0 q 366 -67 388 -34 q 345 -137 345 -100 q 366 -188 345 -168 q 422 -207 387 -207 q 471 -201 448 -207 z "},"˜":{"ha":686,"x_min":106,"x_max":580,"o":"m 435 853 q 386 863 409 853 q 347 886 363 872 q 317 913 331 899 q 288 936 302 926 q 260 945 273 945 q 225 923 237 945 q 213 865 214 901 l 106 865 q 146 999 106 950 q 252 1048 187 1048 q 302 1039 278 1048 q 342 1016 326 1029 q 372 989 358 1002 q 401 966 387 976 q 429 957 416 957 q 473 1040 471 957 l 580 1040 q 539 904 580 955 q 435 853 498 853 z "},"˝":{"ha":678,"x_min":66,"x_max":617,"o":"m 318 857 l 446 1067 l 617 1067 l 459 857 l 318 857 m 66 857 l 195 1067 l 366 1067 l 208 857 l 66 857 z "},"̀":{"ha":0,"x_min":-254,"x_max":81,"o":"m 81 857 l -76 857 l -254 1067 l -69 1067 l 81 857 z "},"́":{"ha":0,"x_min":-81,"x_max":254,"o":"m 76 857 l -81 857 l 69 1067 l 254 1067 l 76 857 z "},"̂":{"ha":0,"x_min":-255,"x_max":254,"o":"m 74 1065 l 254 850 l 103 850 l 2 978 l -3 978 l -103 850 l -255 850 l -75 1065 l 74 1065 z "},"̃":{"ha":0,"x_min":-233,"x_max":241,"o":"m 96 853 q 48 863 71 853 q 9 886 25 872 q -22 913 -7 899 q -51 936 -36 926 q -79 945 -65 945 q -113 923 -101 945 q -125 865 -125 901 l -233 865 q -192 999 -233 950 q -87 1048 -151 1048 q -37 1039 -60 1048 q 3 1016 -13 1029 q 34 989 20 1002 q 63 966 48 976 q 90 957 77 957 q 134 1040 133 957 l 241 1040 q 200 904 241 955 q 96 853 159 853 z "},"̄":{"ha":0,"x_min":-227,"x_max":227,"o":"m 227 977 l 227 880 l -227 880 l -227 977 l 227 977 z "},"̆":{"ha":0,"x_min":-243,"x_max":243,"o":"m -243 1065 l -122 1065 q -87 980 -121 1013 q -1 946 -54 946 q 86 980 53 946 q 121 1065 119 1013 l 243 1065 q 176 908 241 970 q -1 846 110 846 q -176 908 -111 846 q -243 1065 -242 970 z "},"̇":{"ha":0,"x_min":-103,"x_max":101,"o":"m 72 886 q 57 871 72 886 q -1 857 42 857 q -73 886 -43 857 q -103 957 -103 916 q -73 1028 -103 999 q -1 1058 -43 1058 q 72 1028 42 1058 q 101 957 101 999 q 72 886 101 916 z "},"̈":{"ha":0,"x_min":-233,"x_max":234,"o":"m -77 880 q -90 867 -77 880 q -142 854 -103 854 q -207 880 -180 854 q -233 943 -233 906 q -207 1005 -233 979 q -142 1031 -180 1031 q -77 1005 -103 1031 q -50 943 -50 979 q -77 880 -50 906 m 208 880 q 194 867 208 880 q 142 854 181 854 q 77 880 104 854 q 51 943 51 906 q 77 1005 51 979 q 142 1031 104 1031 q 208 1005 181 1031 q 234 943 234 979 q 208 880 234 906 z "},"̉":{"ha":0,"x_min":-103,"x_max":157,"o":"m -103 1006 l -103 1098 q -1 1116 -60 1116 q 114 1078 71 1116 q 157 977 157 1040 q 123 887 157 929 q 28 819 89 845 l -29 890 q 21 923 5 905 q 36 967 36 941 q 17 1006 36 991 q -34 1021 -3 1021 q -103 1006 -69 1021 z "},"̊":{"ha":0,"x_min":-150,"x_max":150,"o":"m 0 821 q -105 864 -61 821 q -150 968 -150 907 q -105 1072 -150 1028 q 0 1115 -61 1115 q 106 1072 62 1115 q 150 968 150 1028 q 106 864 150 907 q 0 821 62 821 m 0 900 q 49 920 28 900 q 69 968 69 940 q 49 1016 69 996 q 0 1036 28 1036 q -48 1016 -28 1036 q -69 968 -69 996 q -48 920 -69 940 q 0 900 -28 900 z "},"̋":{"ha":0,"x_min":-201,"x_max":350,"o":"m 51 857 l 179 1067 l 350 1067 l 192 857 l 51 857 m -201 857 l -72 1067 l 98 1067 l -60 857 l -201 857 z "},"̌":{"ha":0,"x_min":-255,"x_max":254,"o":"m 74 850 l -75 850 l -255 1065 l -103 1065 l -3 938 l 2 938 l 103 1065 l 254 1065 l 74 850 z "},"̏":{"ha":0,"x_min":-350,"x_max":200,"o":"m -51 857 l -192 857 l -350 1067 l -179 1067 l -51 857 m 200 857 l 59 857 l -99 1067 l 72 1067 l 200 857 z "},"̑":{"ha":0,"x_min":-243,"x_max":243,"o":"m -243 850 q -176 1006 -242 945 q 0 1068 -111 1068 q 176 1006 111 1068 q 243 850 242 945 l 121 850 q 86 935 120 901 q 0 969 53 969 q -86 935 -53 969 q -121 850 -120 901 l -243 850 z "},"̛":{"ha":0,"x_min":0,"x_max":254,"o":"m 0 627 l 0 758 q 48 743 22 742 q 90 765 77 745 q 103 829 103 785 l 103 932 l 254 932 l 254 791 q 209 657 254 707 q 88 607 164 607 q 0 627 31 607 z "},"̣":{"ha":0,"x_min":-101,"x_max":101,"o":"m 72 -281 q 57 -296 72 -281 q 0 -311 43 -311 q -72 -281 -43 -311 q -101 -210 -101 -252 q -72 -138 -101 -168 q 0 -109 -43 -109 q 72 -138 43 -109 q 101 -210 101 -168 q 72 -281 101 -252 z "},"̤":{"ha":0,"x_min":-233,"x_max":234,"o":"m -77 -266 q -90 -279 -77 -266 q -142 -292 -103 -292 q -207 -266 -180 -292 q -233 -203 -233 -239 q -207 -140 -233 -166 q -142 -114 -180 -114 q -77 -140 -103 -114 q -50 -203 -50 -166 q -77 -266 -50 -239 m 208 -266 q 194 -279 208 -266 q 142 -292 181 -292 q 77 -266 104 -292 q 51 -203 51 -239 q 77 -140 51 -166 q 142 -114 104 -114 q 208 -140 181 -114 q 234 -203 234 -166 q 208 -266 234 -239 z "},"̥":{"ha":0,"x_min":-150,"x_max":150,"o":"m 0 -393 q -105 -350 -61 -393 q -150 -246 -150 -307 q -105 -142 -150 -186 q 0 -99 -61 -99 q 106 -142 62 -99 q 150 -246 150 -186 q 106 -350 150 -307 q 0 -393 62 -393 m 0 -314 q 49 -294 28 -314 q 69 -246 69 -274 q 49 -198 69 -218 q 0 -178 28 -178 q -48 -198 -28 -178 q -69 -246 -69 -218 q -48 -294 -69 -274 q 0 -314 -28 -314 z "},"̦":{"ha":0,"x_min":-162,"x_max":94,"o":"m -15 -339 l -162 -339 l -80 -105 l 94 -105 l -15 -339 z "},"̧":{"ha":0,"x_min":-104,"x_max":155,"o":"m -79 -155 l -79 -86 l -36 8 l 62 0 l 29 -79 q 122 -107 89 -79 q 155 -186 155 -135 q 111 -278 155 -245 q -9 -313 68 -312 q -104 -302 -68 -313 l -104 -220 q -28 -230 -77 -230 q 44 -193 44 -230 q 25 -163 44 -172 q -41 -155 5 -155 l -79 -155 z "},"̨":{"ha":0,"x_min":-136,"x_max":119,"o":"m 119 -201 l 119 -305 q 26 -319 81 -319 q -91 -280 -46 -319 q -136 -178 -136 -241 q -22 0 -136 -74 l 83 0 q 15 -67 37 -34 q -7 -137 -7 -100 q 15 -188 -7 -168 q 71 -207 36 -207 q 119 -201 96 -207 z "},"̭":{"ha":0,"x_min":-263,"x_max":263,"o":"m -77 -109 l 77 -109 l 263 -324 l 113 -324 l 2 -191 l -2 -191 l -113 -324 l -263 -324 l -77 -109 z "},"̮":{"ha":0,"x_min":-239,"x_max":239,"o":"m -239 -119 l -119 -119 q -85 -203 -117 -170 q 0 -236 -52 -236 q 85 -203 52 -236 q 119 -119 117 -170 l 239 -119 q 173 -273 238 -212 q 0 -334 109 -334 q -173 -273 -109 -334 q -239 -119 -238 -212 z "},"̰":{"ha":0,"x_min":-234,"x_max":240,"o":"m 95 -295 q 36 -280 64 -295 q -9 -249 7 -266 q -44 -217 -25 -232 q -80 -203 -64 -203 q -114 -225 -102 -203 q -127 -283 -126 -247 l -234 -283 q -193 -149 -234 -198 q -88 -100 -153 -100 q -38 -109 -62 -100 q 2 -132 -14 -119 q 33 -159 18 -146 q 61 -182 47 -172 q 89 -191 76 -191 q 133 -109 132 -191 l 240 -109 q 199 -244 240 -193 q 95 -295 158 -295 z "},"̱":{"ha":0,"x_min":-235,"x_max":235,"o":"m 235 -156 l 235 -253 l -235 -253 l -235 -156 l 235 -156 z "},";":{"ha":428,"x_min":39,"x_max":304,"o":"m 272 509 q 256 493 272 509 q 195 477 240 477 q 117 509 149 477 q 85 586 85 541 q 117 664 85 632 q 195 695 149 695 q 272 664 240 695 q 304 586 304 632 q 272 509 304 541 m 189 -184 l 39 -184 l 94 183 l 281 183 l 189 -184 z "},"΄":{"ha":604,"x_min":171,"x_max":433,"o":"m 171 857 l 226 1077 l 433 1077 l 328 857 l 171 857 z "},"΅":{"ha":884,"x_min":119,"x_max":765,"o":"m 276 880 q 263 867 276 880 q 211 854 250 854 q 146 880 172 854 q 119 943 119 906 q 146 1005 119 979 q 211 1031 172 1031 q 276 1005 250 1031 q 302 943 302 979 q 276 880 302 906 m 739 880 q 725 867 739 880 q 673 854 712 854 q 608 880 635 854 q 582 943 582 906 q 608 1005 582 979 q 673 1031 635 1031 q 739 1005 712 1031 q 765 943 765 979 q 739 880 765 906 m 480 857 l 350 857 l 368 1077 l 566 1077 l 480 857 z "},"Ά":{"ha":1048,"x_min":63,"x_max":1000,"o":"m 782 0 l 707 237 l 363 237 l 289 0 l 79 0 l 418 979 l 659 979 l 1000 0 l 782 0 m 533 791 l 408 391 l 663 391 l 538 791 l 533 791 m 214 758 l 63 758 l 115 979 l 322 979 l 214 758 z "},"·":{"ha":425,"x_min":104,"x_max":322,"o":"m 290 575 q 274 559 290 575 q 213 543 258 543 q 136 575 168 543 q 104 652 104 607 q 135 730 104 699 q 213 762 167 762 q 291 730 259 762 q 322 652 322 699 q 290 575 322 607 z "},"Έ":{"ha":1094,"x_min":31,"x_max":1020,"o":"m 181 758 l 31 758 l 82 979 l 290 979 l 181 758 m 1020 170 l 1020 0 l 372 0 l 372 979 l 1020 979 l 1020 810 l 576 810 l 576 574 l 995 574 l 995 416 l 576 416 l 576 170 l 1020 170 z "},"Ή":{"ha":1318,"x_min":31,"x_max":1222,"o":"m 181 758 l 31 758 l 82 979 l 290 979 l 181 758 m 1222 0 l 1017 0 l 1017 412 l 576 412 l 576 0 l 372 0 l 372 979 l 576 979 l 576 581 l 1017 581 l 1017 979 l 1222 979 l 1222 0 z "},"Ί":{"ha":673,"x_min":31,"x_max":576,"o":"m 576 0 l 372 0 l 372 979 l 576 979 l 576 0 m 181 758 l 31 758 l 82 979 l 290 979 l 181 758 z "},"Ό":{"ha":1223,"x_min":22,"x_max":1173,"o":"m 356 859 q 420 927 356 859 q 701 996 484 996 q 1046 859 919 996 q 1173 489 1173 723 q 1046 119 1173 256 q 701 -17 918 -17 q 356 119 484 -17 q 229 489 229 256 q 356 859 229 723 m 892 734 q 857 779 892 734 q 701 825 821 825 q 510 734 581 825 q 438 489 438 643 q 509 245 438 336 q 701 155 581 155 q 892 245 821 155 q 964 489 964 336 q 892 734 964 643 m 173 758 l 22 758 l 74 979 l 281 979 l 173 758 z "},"Ύ":{"ha":1227,"x_min":24,"x_max":1209,"o":"m 174 758 l 24 758 l 75 979 l 283 979 l 174 758 m 868 0 l 663 0 l 663 366 l 323 979 l 546 979 l 765 561 l 770 561 l 989 979 l 1209 979 l 868 366 l 868 0 z "},"Ώ":{"ha":1244,"x_min":22,"x_max":1185,"o":"m 979 534 q 906 747 979 669 q 711 825 833 825 q 515 747 588 825 q 443 534 443 669 q 489 341 443 421 q 629 203 535 261 l 629 0 l 237 0 l 237 162 l 435 162 l 435 168 q 290 323 343 223 q 237 549 237 424 q 369 872 237 748 q 711 996 500 996 q 1054 872 922 996 q 1185 549 1185 748 q 1132 324 1185 424 q 987 168 1078 224 l 987 162 l 1185 162 l 1185 0 l 793 0 l 793 203 q 933 341 887 261 q 979 534 979 421 m 173 758 l 22 758 l 74 979 l 281 979 l 173 758 z "},"ΐ":{"ha":446,"x_min":-134,"x_max":511,"o":"m 320 -3 q 125 46 184 -3 q 66 204 66 94 l 66 747 l 263 747 l 263 249 q 362 149 263 149 q 419 153 391 149 l 426 6 q 320 -3 387 -3 m 22 880 q 9 867 22 880 q -43 854 -4 854 q -108 880 -81 854 q -134 943 -134 906 q -108 1005 -134 979 q -43 1031 -81 1031 q 22 1005 -4 1031 q 49 943 49 979 q 22 880 49 906 m 485 880 q 472 867 485 880 q 420 854 458 854 q 355 880 381 854 q 328 943 328 906 q 355 1005 328 979 q 420 1031 381 1031 q 485 1005 458 1031 q 511 943 511 979 q 485 880 511 906 m 227 857 l 96 857 l 114 1077 l 312 1077 l 227 857 z "},"Α":{"ha":958,"x_min":19,"x_max":940,"o":"m 722 0 l 648 237 l 304 237 l 229 0 l 19 0 l 359 979 l 600 979 l 940 0 l 722 0 m 473 791 l 348 391 l 604 391 l 478 791 l 473 791 z "},"Β":{"ha":903,"x_min":81,"x_max":859,"o":"m 521 0 l 81 0 l 81 979 l 513 979 q 732 913 651 979 q 812 734 812 847 q 760 594 812 654 q 629 522 707 534 l 629 517 q 794 443 729 509 q 859 280 859 376 q 768 75 859 151 q 521 0 677 0 m 286 826 l 286 572 l 439 572 q 566 606 522 572 q 611 703 611 640 q 572 794 611 762 q 460 826 532 826 l 286 826 m 286 153 l 469 153 q 604 190 557 153 q 650 296 650 227 q 603 401 650 365 q 464 437 555 437 l 286 437 l 286 153 z "},"Γ":{"ha":755,"x_min":89,"x_max":716,"o":"m 294 0 l 89 0 l 89 979 l 716 979 l 716 810 l 294 810 l 294 0 z "},"Δ":{"ha":945,"x_min":36,"x_max":910,"o":"m 910 0 l 36 0 l 36 117 l 353 979 l 593 979 l 910 117 l 910 0 m 251 174 l 251 169 l 680 169 l 680 174 l 469 798 l 465 798 l 251 174 z "},"Ε":{"ha":804,"x_min":81,"x_max":730,"o":"m 730 170 l 730 0 l 81 0 l 81 979 l 730 979 l 730 810 l 286 810 l 286 574 l 705 574 l 705 416 l 286 416 l 286 170 l 730 170 z "},"Ζ":{"ha":877,"x_min":60,"x_max":816,"o":"m 60 0 l 60 134 l 557 804 l 557 810 l 72 810 l 72 979 l 802 979 l 802 846 l 307 174 l 307 170 l 816 170 l 816 0 l 60 0 z "},"Η":{"ha":1028,"x_min":81,"x_max":932,"o":"m 932 0 l 727 0 l 727 412 l 286 412 l 286 0 l 81 0 l 81 979 l 286 979 l 286 581 l 727 581 l 727 979 l 932 979 l 932 0 z "},"Θ":{"ha":1076,"x_min":51,"x_max":1025,"o":"m 711 409 l 364 409 l 364 564 l 711 564 l 711 409 m 179 859 q 244 927 179 859 q 538 996 308 996 q 896 859 768 996 q 1025 490 1025 723 q 895 120 1025 256 q 538 -17 765 -17 q 181 120 311 -17 q 51 490 51 256 q 179 859 51 723 m 538 825 q 332 735 406 825 q 258 490 258 646 q 332 243 258 332 q 538 155 406 155 q 744 243 670 155 q 818 490 818 332 q 744 735 818 646 q 538 825 670 825 z "},"Ι":{"ha":382,"x_min":81,"x_max":286,"o":"m 286 0 l 81 0 l 81 979 l 286 979 l 286 0 z "},"Κ":{"ha":925,"x_min":81,"x_max":913,"o":"m 286 0 l 81 0 l 81 979 l 286 979 l 286 532 l 292 532 l 660 979 l 888 979 l 526 545 l 913 0 l 668 0 l 378 409 l 286 299 l 286 0 z "},"Λ":{"ha":938,"x_min":19,"x_max":919,"o":"m 702 0 l 468 788 l 463 788 l 229 0 l 19 0 l 349 979 l 589 979 l 919 0 l 702 0 z "},"Μ":{"ha":1214,"x_min":81,"x_max":1118,"o":"m 1118 979 l 1118 0 l 935 0 l 935 661 l 930 661 l 664 9 l 535 9 l 269 661 l 264 661 l 264 0 l 81 0 l 81 979 l 319 979 l 597 285 l 602 285 l 880 979 l 1118 979 z "},"Ν":{"ha":1007,"x_min":81,"x_max":911,"o":"m 277 0 l 81 0 l 81 979 l 252 979 l 709 341 l 715 341 l 715 979 l 911 979 l 911 0 l 741 0 l 283 641 l 277 641 l 277 0 z "},"Ξ":{"ha":870,"x_min":66,"x_max":804,"o":"m 66 979 l 804 979 l 804 806 l 66 806 l 66 979 m 745 413 l 125 413 l 125 574 l 745 574 l 745 413 m 66 173 l 804 173 l 804 0 l 66 0 l 66 173 z "},"Ο":{"ha":1045,"x_min":51,"x_max":995,"o":"m 178 859 q 242 927 178 859 q 523 996 305 996 q 868 859 741 996 q 995 489 995 723 q 867 119 995 256 q 523 -17 740 -17 q 178 119 305 -17 q 51 489 51 256 q 178 859 51 723 m 714 734 q 679 779 714 734 q 523 825 643 825 q 331 734 403 825 q 260 489 260 643 q 331 245 260 336 q 523 155 402 155 q 714 245 643 155 q 785 489 785 336 q 714 734 785 643 z "},"Π":{"ha":1015,"x_min":89,"x_max":926,"o":"m 926 0 l 721 0 l 721 810 l 294 810 l 294 0 l 89 0 l 89 979 l 926 979 l 926 0 z "},"Ρ":{"ha":876,"x_min":81,"x_max":829,"o":"m 81 979 l 490 979 q 735 886 641 979 q 829 644 829 794 q 732 401 829 494 q 479 309 635 309 l 286 309 l 286 0 l 81 0 l 81 979 m 286 817 l 286 469 l 435 469 q 572 514 523 469 q 621 643 621 559 q 572 771 621 726 q 435 817 524 817 l 286 817 z "},"Σ":{"ha":864,"x_min":61,"x_max":803,"o":"m 312 174 l 312 170 l 803 170 l 803 0 l 61 0 l 61 125 l 320 491 l 75 834 l 75 979 l 785 979 l 785 810 l 331 810 l 331 804 l 543 500 l 543 496 l 312 174 z "},"Τ":{"ha":853,"x_min":33,"x_max":810,"o":"m 524 0 l 319 0 l 319 810 l 33 810 l 33 979 l 810 979 l 810 810 l 524 810 l 524 0 z "},"Υ":{"ha":924,"x_min":19,"x_max":905,"o":"m 564 0 l 359 0 l 359 366 l 19 979 l 242 979 l 461 561 l 466 561 l 686 979 l 905 979 l 564 366 l 564 0 z "},"Φ":{"ha":1205,"x_min":39,"x_max":1166,"o":"m 895 279 q 930 317 895 279 q 966 484 966 355 q 895 690 966 613 q 696 776 824 766 l 696 193 q 895 279 824 202 m 310 690 q 275 651 310 690 q 239 484 239 613 q 310 279 239 355 q 509 193 381 202 l 509 776 q 310 690 381 766 m 696 -72 l 509 -72 l 509 31 q 168 165 298 41 q 39 484 39 290 q 98 714 39 613 q 263 873 157 815 q 509 938 370 932 l 509 1041 l 696 1041 l 696 938 q 1037 804 907 928 q 1166 484 1166 680 q 1037 165 1166 290 q 696 31 907 41 l 696 -72 z "},"Χ":{"ha":953,"x_min":29,"x_max":923,"o":"m 29 0 l 340 490 l 340 496 l 31 979 l 272 979 l 479 626 l 485 626 l 694 979 l 923 979 l 603 492 l 603 487 l 919 0 l 686 0 l 471 342 l 466 342 l 250 0 l 29 0 z "},"Ψ":{"ha":1130,"x_min":62,"x_max":1068,"o":"m 663 0 l 468 0 l 468 210 q 171 322 279 213 q 62 612 62 431 l 62 979 l 256 979 l 256 611 q 310 443 256 503 q 468 376 363 383 l 468 979 l 663 979 l 663 376 q 820 443 767 383 q 873 611 873 503 l 873 979 l 1068 979 l 1068 612 q 959 321 1068 430 q 663 210 850 212 l 663 0 z "},"Ω":{"ha":1066,"x_min":60,"x_max":1007,"o":"m 801 534 q 728 747 801 669 q 533 825 656 825 q 338 747 410 825 q 265 534 265 669 q 311 341 265 421 q 451 203 357 261 l 451 0 l 60 0 l 60 162 l 258 162 l 258 168 q 113 323 165 223 q 60 549 60 424 q 191 872 60 748 q 533 996 322 996 q 876 872 745 996 q 1007 549 1007 748 q 954 324 1007 424 q 809 168 901 224 l 809 162 l 1007 162 l 1007 0 l 616 0 l 616 203 q 755 341 709 261 q 801 534 801 421 z "},"Ϊ":{"ha":320,"x_min":-81,"x_max":387,"o":"m 255 0 l 50 0 l 50 979 l 255 979 l 255 0 m 76 1085 q 63 1072 76 1085 q 11 1059 50 1059 q -54 1085 -28 1059 q -81 1147 -81 1111 q -54 1210 -81 1184 q 11 1236 -28 1236 q 76 1210 50 1236 q 102 1147 102 1184 q 76 1085 102 1111 m 360 1085 q 347 1072 360 1085 q 295 1059 334 1059 q 230 1085 256 1059 q 203 1147 203 1111 q 230 1210 203 1184 q 295 1236 256 1236 q 360 1210 334 1236 q 387 1147 387 1184 q 360 1085 387 1111 z "},"Ϋ":{"ha":924,"x_min":19,"x_max":905,"o":"m 564 0 l 359 0 l 359 366 l 19 979 l 242 979 l 461 561 l 466 561 l 686 979 l 905 979 l 564 366 l 564 0 m 385 1085 q 372 1072 385 1085 q 320 1059 359 1059 q 255 1085 281 1059 q 229 1147 229 1111 q 255 1210 229 1184 q 320 1236 281 1236 q 385 1210 359 1236 q 412 1147 412 1184 q 385 1085 412 1111 m 669 1085 q 656 1072 669 1085 q 604 1059 643 1059 q 539 1085 566 1059 q 513 1147 513 1111 q 539 1210 513 1184 q 604 1236 566 1236 q 669 1210 643 1236 q 696 1147 696 1184 q 669 1085 696 1111 z "},"ά":{"ha":909,"x_min":43,"x_max":877,"o":"m 404 152 q 526 212 480 152 q 572 374 572 273 q 526 535 572 473 q 405 597 480 597 q 289 536 333 597 q 245 374 245 475 q 288 212 245 271 q 404 152 330 152 m 353 -8 q 126 95 209 -8 q 43 375 43 197 q 126 653 43 551 q 351 756 209 756 q 484 720 423 756 q 574 620 545 684 l 578 620 l 578 747 l 773 747 l 773 231 q 787 165 773 184 q 832 146 800 146 q 870 152 854 146 l 877 8 q 779 -3 837 -3 q 590 111 628 -3 q 583 125 584 122 l 579 125 q 486 26 545 61 q 353 -8 428 -8 m 337 857 l 392 1077 l 600 1077 l 494 857 l 337 857 z "},"έ":{"ha":795,"x_min":51,"x_max":774,"o":"m 316 857 l 371 1077 l 578 1077 l 473 857 l 316 857 m 387 -13 q 141 45 231 -13 q 51 203 51 103 q 87 311 51 265 q 187 376 123 357 l 187 380 q 66 541 66 425 q 158 700 66 640 q 399 760 250 760 q 652 692 560 760 q 758 501 744 625 l 564 501 q 514 582 551 556 q 404 608 477 608 q 298 586 336 608 q 260 524 260 564 q 296 467 260 487 q 397 447 332 447 l 496 447 l 496 306 l 397 306 q 292 284 330 306 q 254 224 254 263 q 290 161 254 182 q 394 140 326 140 q 572 252 543 140 l 774 252 q 652 60 758 132 q 387 -13 546 -13 z "},"ή":{"ha":910,"x_min":38,"x_max":844,"o":"m 844 -235 l 646 -235 l 646 432 q 608 551 646 509 q 500 593 570 593 q 388 546 432 593 q 345 427 345 500 l 345 0 l 146 0 l 146 515 q 131 582 146 562 q 83 602 115 602 q 38 595 61 602 l 38 740 q 140 751 82 751 q 326 644 283 751 q 336 613 332 629 l 340 613 q 433 720 371 682 q 580 758 494 758 q 774 684 705 758 q 844 477 844 610 l 844 -235 m 319 857 l 374 1077 l 581 1077 l 476 857 l 319 857 z "},"ί":{"ha":446,"x_min":66,"x_max":426,"o":"m 320 -1 q 125 47 184 -1 q 66 205 66 96 l 66 748 l 263 748 l 263 250 q 362 150 263 150 q 419 155 391 150 l 426 7 q 320 -1 387 -1 m 83 857 l 138 1077 l 346 1077 l 241 857 l 83 857 z "},"ΰ":{"ha":796,"x_min":55,"x_max":743,"o":"m 212 880 q 198 867 212 880 q 146 854 185 854 q 81 880 108 854 q 55 943 55 906 q 81 1005 55 979 q 146 1031 108 1031 q 212 1005 185 1031 q 238 943 238 979 q 212 880 238 906 m 674 880 q 661 867 674 880 q 609 854 648 854 q 544 880 570 854 q 517 943 517 906 q 544 1005 517 979 q 609 1031 570 1031 q 674 1005 648 1031 q 701 943 701 979 q 674 880 701 906 m 416 857 l 286 857 l 303 1077 l 501 1077 l 416 857 m 391 -11 q 147 70 229 -11 q 66 308 66 151 l 66 747 l 253 747 l 253 332 q 287 198 253 241 q 394 155 321 155 q 512 214 474 155 q 550 393 550 273 q 534 570 550 475 q 493 747 519 665 l 684 747 q 727 585 711 680 q 743 400 743 491 q 652 96 743 203 q 391 -11 560 -11 z "},"α":{"ha":911,"x_min":43,"x_max":877,"o":"m 404 151 q 526 212 480 151 q 572 373 572 272 q 526 534 572 473 q 405 596 480 596 q 289 535 333 596 q 245 374 245 475 q 288 211 245 271 q 404 151 330 151 m 353 -9 q 126 94 209 -9 q 43 374 43 197 q 126 653 43 550 q 351 755 209 755 q 484 719 423 755 q 574 619 545 683 l 578 619 l 578 747 l 773 747 l 773 231 q 787 164 773 184 q 832 145 800 145 q 870 151 854 145 l 877 7 q 779 -4 837 -4 q 590 111 628 -4 q 583 125 584 121 l 579 125 q 486 26 545 60 q 353 -9 428 -9 z "},"β":{"ha":854,"x_min":67,"x_max":814,"o":"m 358 472 l 358 616 l 407 616 q 519 651 479 616 q 559 750 559 686 q 521 844 559 810 q 420 879 484 879 q 303 831 343 879 q 264 690 264 784 l 264 376 q 313 210 264 268 q 455 151 363 151 q 570 193 528 151 q 612 302 612 235 q 559 428 612 383 q 409 472 507 472 l 358 472 m 67 665 q 157 941 67 846 q 421 1035 247 1035 q 654 966 570 1035 q 739 776 739 897 q 700 646 739 702 q 591 563 661 591 l 591 559 q 814 288 814 509 q 732 73 814 154 q 514 -9 650 -9 q 365 26 430 -9 q 269 125 300 62 l 265 125 l 265 -235 l 67 -235 l 67 665 z "},"γ":{"ha":800,"x_min":10,"x_max":745,"o":"m 745 627 q 681 318 745 465 q 472 -26 616 172 l 472 -231 l 278 -231 l 278 -40 l 10 747 l 216 747 l 390 159 l 394 159 q 515 391 477 283 q 554 627 554 500 q 547 747 554 688 l 737 747 q 745 627 745 692 z "},"δ":{"ha":802,"x_min":39,"x_max":762,"o":"m 401 -13 q 136 80 233 -13 q 39 335 39 174 q 112 551 39 464 q 303 658 184 637 l 303 661 q 158 844 158 728 q 232 985 158 935 q 435 1035 305 1035 q 693 989 594 1035 l 686 844 q 461 890 570 890 q 364 830 364 890 q 384 787 364 806 q 465 736 404 768 q 694 554 627 646 q 762 345 762 463 q 663 84 762 182 q 401 -13 564 -13 m 397 131 q 515 186 473 131 q 558 342 558 242 q 515 499 558 444 q 399 554 472 554 q 279 495 321 554 q 237 339 237 437 q 280 187 237 243 q 397 131 323 131 z "},"ε":{"ha":802,"x_min":51,"x_max":774,"o":"m 387 -13 q 141 45 231 -13 q 51 203 51 103 q 87 311 51 265 q 187 376 123 357 l 187 380 q 66 541 66 425 q 158 700 66 640 q 399 760 250 760 q 652 692 560 760 q 758 501 744 625 l 564 501 q 514 582 551 556 q 404 608 477 608 q 298 586 336 608 q 260 524 260 564 q 296 467 260 487 q 397 447 332 447 l 496 447 l 496 306 l 397 306 q 292 284 330 306 q 254 224 254 263 q 290 161 254 182 q 394 140 326 140 q 572 252 543 140 l 774 252 q 652 60 758 132 q 387 -13 546 -13 z "},"ζ":{"ha":671,"x_min":41,"x_max":668,"o":"m 592 -266 l 437 -235 q 482 -98 482 -159 q 454 -27 482 -54 q 346 26 427 -1 q 109 160 177 82 q 41 366 41 239 q 121 615 41 493 q 364 865 201 737 l 364 869 l 96 869 l 96 1025 l 654 1025 l 654 890 q 341 638 443 758 q 240 399 240 519 q 279 275 240 317 q 435 192 319 233 q 618 91 568 144 q 668 -53 668 37 q 592 -266 668 -157 z "},"η":{"ha":910,"x_min":38,"x_max":844,"o":"m 844 -235 l 646 -235 l 646 432 q 608 551 646 509 q 500 593 570 593 q 388 546 432 593 q 345 427 345 500 l 345 0 l 146 0 l 146 515 q 131 582 146 562 q 83 602 115 602 q 38 595 61 602 l 38 740 q 140 751 82 751 q 326 644 283 751 q 336 613 332 629 l 340 613 q 433 720 371 682 q 580 758 494 758 q 774 684 705 758 q 844 477 844 610 l 844 -235 z "},"θ":{"ha":851,"x_min":53,"x_max":798,"o":"m 426 -13 q 146 120 239 -13 q 53 513 53 253 q 148 902 53 768 q 426 1035 243 1035 q 703 901 608 1035 q 798 513 798 767 q 704 120 798 253 q 426 -13 610 -13 m 426 135 q 555 210 513 135 q 600 444 597 284 l 251 444 q 296 210 254 284 q 426 135 338 135 m 251 590 l 600 590 q 426 888 592 888 q 251 590 259 888 z "},"ι":{"ha":446,"x_min":66,"x_max":426,"o":"m 320 -3 q 125 46 184 -3 q 66 204 66 94 l 66 747 l 263 747 l 263 249 q 362 149 263 149 q 419 153 391 149 l 426 6 q 320 -3 387 -3 z "},"κ":{"ha":821,"x_min":67,"x_max":785,"o":"m 67 0 l 67 747 l 261 747 l 261 403 l 264 403 l 456 624 q 564 725 520 699 q 670 751 607 751 q 760 740 725 751 l 760 595 q 710 602 743 602 q 657 588 680 602 q 598 532 635 574 l 505 429 l 785 0 l 576 0 l 374 313 l 261 191 l 261 0 l 67 0 z "},"λ":{"ha":810,"x_min":14,"x_max":799,"o":"m 14 0 l 313 703 l 288 768 q 235 863 262 839 q 155 886 208 886 q 104 880 123 886 l 104 1023 q 195 1035 143 1035 q 287 1024 250 1035 q 356 985 323 1014 q 413 908 388 956 q 465 781 437 860 l 661 226 q 697 162 677 179 q 753 145 718 145 q 792 151 775 145 l 799 7 q 701 -4 763 -4 q 573 28 618 -4 q 500 144 527 60 l 391 469 l 388 469 l 208 0 l 14 0 z "},"μ":{"ha":911,"x_min":67,"x_max":869,"o":"m 67 -235 l 67 747 l 265 747 l 265 313 q 303 196 265 237 q 410 155 340 155 q 524 200 480 155 q 567 321 567 246 l 567 747 l 765 747 l 765 231 q 779 164 765 184 q 823 145 792 145 q 862 151 847 145 l 869 7 q 768 -4 829 -4 q 652 22 696 -4 q 585 106 608 48 q 578 130 581 115 l 574 130 q 499 27 549 64 q 385 -11 448 -11 q 316 4 348 -11 q 269 43 283 19 l 265 43 l 265 -235 l 67 -235 z "},"ν":{"ha":792,"x_min":10,"x_max":738,"o":"m 264 0 l 10 747 l 216 747 l 390 159 l 394 159 q 510 389 475 283 q 545 627 545 496 q 537 747 545 690 l 730 747 q 738 627 738 686 q 683 331 738 469 q 492 0 629 193 l 264 0 z "},"ξ":{"ha":688,"x_min":41,"x_max":668,"o":"m 592 -266 l 437 -235 q 482 -96 482 -161 q 452 -25 482 -52 q 334 31 422 1 q 153 113 218 71 q 64 199 88 155 q 41 306 41 243 q 91 444 41 387 q 230 519 142 500 l 230 522 q 119 591 155 549 q 83 699 83 633 q 241 865 83 828 l 241 869 l 86 869 l 86 1025 l 645 1025 l 645 888 l 557 877 q 338 825 401 859 q 275 726 275 791 q 321 647 275 671 q 467 623 368 623 l 593 623 l 593 473 l 457 473 q 240 348 240 473 q 281 263 240 296 q 439 191 323 231 q 617 92 567 146 q 668 -52 668 38 q 592 -266 668 -157 z "},"ο":{"ha":814,"x_min":41,"x_max":774,"o":"m 408 -13 q 139 91 237 -13 q 41 374 41 195 q 139 656 41 552 q 408 760 238 760 q 675 656 577 760 q 774 374 774 552 q 675 91 774 195 q 408 -13 577 -13 m 287 204 q 308 174 287 204 q 408 144 330 144 q 528 204 486 144 q 571 374 571 264 q 527 542 571 481 q 408 604 484 604 q 288 542 332 604 q 243 374 243 481 q 287 204 243 264 z "},"π":{"ha":1007,"x_min":47,"x_max":949,"o":"m 186 0 l 186 591 l 47 591 l 47 747 l 949 747 l 949 591 l 795 591 l 795 227 q 812 165 795 184 q 865 145 829 145 q 903 151 881 145 l 910 7 q 808 -4 872 -4 q 652 42 698 -4 q 606 198 606 87 l 606 591 l 376 591 l 376 0 l 186 0 z "},"ρ":{"ha":831,"x_min":54,"x_max":791,"o":"m 416 151 q 543 212 497 151 q 588 381 588 272 q 543 544 588 485 q 420 604 498 604 q 296 544 340 604 q 252 376 252 484 q 296 211 252 271 q 416 151 339 151 m 54 -235 l 54 361 q 154 652 54 545 q 423 760 254 760 q 692 656 593 760 q 791 378 791 553 q 707 95 791 199 q 479 -9 624 -9 q 344 27 404 -9 q 256 125 284 63 l 252 125 l 252 -235 l 54 -235 z "},"ς":{"ha":769,"x_min":41,"x_max":734,"o":"m 592 -266 l 437 -235 q 482 -98 482 -159 q 454 -27 482 -54 q 346 27 427 0 q 111 165 182 82 q 41 391 41 249 q 137 660 41 559 q 397 760 234 760 q 634 684 547 760 q 734 471 722 608 l 550 471 q 503 569 541 534 q 404 604 465 604 q 283 551 326 604 q 240 409 240 499 q 282 279 240 327 q 435 192 323 231 q 618 92 568 145 q 668 -52 668 38 q 592 -266 668 -157 z "},"σ":{"ha":912,"x_min":37,"x_max":871,"o":"m 664 88 q 615 38 664 88 q 399 -13 565 -13 q 136 88 234 -13 q 37 359 37 189 q 144 641 37 534 q 428 747 252 747 l 871 747 l 871 591 l 675 591 l 675 587 q 741 490 718 551 q 764 357 764 429 q 664 88 764 189 m 401 141 q 523 202 478 141 q 568 368 568 263 q 526 526 568 468 q 412 585 484 585 q 286 525 332 585 q 240 363 240 465 q 284 201 240 261 q 401 141 329 141 z "},"τ":{"ha":751,"x_min":39,"x_max":727,"o":"m 520 -3 q 321 45 381 -3 q 262 203 262 93 l 262 591 l 39 591 l 39 747 l 727 747 l 727 591 l 458 591 l 458 249 q 484 173 458 197 q 563 149 509 149 q 623 153 594 149 l 629 6 q 520 -3 584 -3 z "},"υ":{"ha":796,"x_min":66,"x_max":743,"o":"m 391 -11 q 147 70 229 -11 q 66 308 66 151 l 66 747 l 253 747 l 253 332 q 287 198 253 241 q 394 155 321 155 q 512 214 474 155 q 550 393 550 273 q 534 570 550 475 q 493 747 519 665 l 684 747 q 727 585 711 680 q 743 400 743 491 q 652 96 743 203 q 391 -11 560 -11 z "},"φ":{"ha":1054,"x_min":31,"x_max":1023,"o":"m 437 -235 l 437 -13 q 143 98 256 -6 q 31 374 31 201 q 143 652 31 547 q 437 761 256 756 l 437 946 l 617 946 l 617 761 q 911 652 799 756 q 1023 374 1023 548 q 910 98 1023 201 q 617 -13 798 -6 l 617 -235 l 437 -235 m 614 138 q 775 207 716 145 q 833 374 833 269 q 776 543 833 481 q 614 609 718 604 l 614 138 m 440 138 l 440 609 q 278 543 336 604 q 220 374 220 481 q 279 207 220 269 q 440 138 338 145 z "},"χ":{"ha":834,"x_min":40,"x_max":821,"o":"m 60 -235 l 332 247 l 188 522 q 140 587 162 572 q 81 602 117 602 q 40 595 59 602 l 40 740 q 134 751 83 751 q 256 722 212 751 q 340 618 301 694 l 446 413 l 449 413 l 624 747 l 821 747 l 536 243 l 667 -7 q 713 -73 692 -55 q 770 -90 734 -90 q 811 -83 793 -90 l 814 -228 q 720 -239 777 -239 q 600 -213 642 -239 q 521 -115 558 -187 l 421 78 l 418 78 l 258 -235 l 60 -235 z "},"ψ":{"ha":1057,"x_min":66,"x_max":1004,"o":"m 429 -235 l 429 -11 q 160 73 254 -9 q 66 309 66 155 l 66 747 l 253 747 l 253 349 q 294 199 253 243 q 429 155 334 155 l 429 946 l 616 946 l 616 157 q 762 217 712 157 q 811 393 811 277 q 749 747 811 578 l 942 747 q 987 590 970 682 q 1004 403 1004 497 q 903 97 1004 204 q 616 -11 802 -11 l 616 -235 l 429 -235 z "},"ω":{"ha":1105,"x_min":53,"x_max":1052,"o":"m 333 -13 q 123 81 193 -13 q 53 353 53 176 q 81 565 53 460 q 157 747 109 669 l 356 747 q 245 349 245 551 q 273 200 245 248 q 357 153 300 153 q 434 190 406 153 q 462 294 462 227 l 462 534 l 642 534 l 642 294 q 670 190 642 227 q 748 153 698 153 q 832 200 805 153 q 859 349 859 248 q 749 747 859 551 l 947 747 q 1024 565 996 669 q 1052 353 1052 460 q 982 81 1052 176 q 771 -13 912 -13 q 555 153 618 -13 l 550 153 q 333 -13 486 -13 z "},"ϊ":{"ha":446,"x_min":-62,"x_max":426,"o":"m 94 880 q 81 867 94 880 q 29 854 68 854 q -36 880 -9 854 q -62 943 -62 906 q -36 1005 -62 979 q 29 1031 -9 1031 q 94 1005 68 1031 q 121 943 121 979 q 94 880 121 906 m 378 880 q 365 867 378 880 q 313 854 352 854 q 248 880 275 854 q 222 943 222 906 q 248 1005 222 979 q 313 1031 275 1031 q 378 1005 352 1031 q 405 943 405 979 q 378 880 405 906 m 320 -3 q 125 46 184 -3 q 66 204 66 94 l 66 747 l 263 747 l 263 249 q 362 149 263 149 q 419 153 391 149 l 426 6 q 320 -3 387 -3 z "},"ϋ":{"ha":796,"x_min":66,"x_max":743,"o":"m 306 880 q 293 867 306 880 q 241 854 279 854 q 176 880 202 854 q 149 943 149 906 q 176 1005 149 979 q 241 1031 202 1031 q 306 1005 279 1031 q 332 943 332 979 q 306 880 332 906 m 590 880 q 577 867 590 880 q 525 854 564 854 q 460 880 486 854 q 433 943 433 906 q 460 1005 433 979 q 525 1031 486 1031 q 590 1005 564 1031 q 616 943 616 979 q 590 880 616 906 m 391 -11 q 147 70 229 -11 q 66 308 66 151 l 66 747 l 253 747 l 253 332 q 287 198 253 241 q 394 155 321 155 q 512 214 474 155 q 550 393 550 273 q 534 570 550 475 q 493 747 519 665 l 684 747 q 727 585 711 680 q 743 400 743 491 q 652 96 743 203 q 391 -11 560 -11 z "},"ό":{"ha":814,"x_min":41,"x_max":774,"o":"m 408 -13 q 139 91 237 -13 q 41 374 41 195 q 139 656 41 552 q 408 760 238 760 q 675 656 577 760 q 774 374 774 552 q 675 91 774 195 q 408 -13 577 -13 m 287 204 q 308 174 287 204 q 408 144 330 144 q 528 204 486 144 q 571 374 571 264 q 527 542 571 481 q 408 604 484 604 q 288 542 332 604 q 243 374 243 481 q 287 204 243 264 m 330 857 l 385 1077 l 592 1077 l 487 857 l 330 857 z "},"ύ":{"ha":796,"x_min":66,"x_max":743,"o":"m 288 857 l 343 1077 l 551 1077 l 446 857 l 288 857 m 391 -11 q 147 70 229 -11 q 66 308 66 151 l 66 747 l 253 747 l 253 332 q 287 198 253 241 q 394 155 321 155 q 512 214 474 155 q 550 393 550 273 q 534 570 550 475 q 493 747 519 665 l 684 747 q 727 585 711 680 q 743 400 743 491 q 652 96 743 203 q 391 -11 560 -11 z "},"ώ":{"ha":1105,"x_min":53,"x_max":1052,"o":"m 333 -13 q 123 81 193 -13 q 53 353 53 176 q 81 565 53 460 q 157 747 109 669 l 356 747 q 245 349 245 551 q 273 200 245 248 q 357 153 300 153 q 434 190 406 153 q 462 294 462 227 l 462 534 l 642 534 l 642 294 q 670 190 642 227 q 748 153 698 153 q 832 200 805 153 q 859 349 859 248 q 749 747 859 551 l 947 747 q 1024 565 996 669 q 1052 353 1052 460 q 982 81 1052 176 q 771 -13 912 -13 q 555 153 618 -13 l 550 153 q 333 -13 486 -13 m 460 857 l 515 1077 l 722 1077 l 617 857 l 460 857 z "},"Ё":{"ha":817,"x_min":88,"x_max":736,"o":"m 336 1085 q 322 1072 336 1085 q 271 1059 309 1059 q 205 1085 232 1059 q 179 1147 179 1111 q 205 1210 179 1184 q 271 1236 232 1236 q 336 1210 309 1236 q 362 1147 362 1184 q 336 1085 362 1111 m 620 1085 q 607 1072 620 1085 q 555 1059 593 1059 q 490 1085 516 1059 q 463 1147 463 1111 q 490 1210 463 1184 q 555 1236 516 1236 q 620 1210 593 1236 q 646 1147 646 1184 q 620 1085 646 1111 m 736 170 l 736 0 l 88 0 l 88 979 l 736 979 l 736 810 l 293 810 l 293 574 l 711 574 l 711 416 l 293 416 l 293 170 l 736 170 z "}}}
